<?xml version="1.0" encoding="UTF-8"?>
<svg id="Capa_1" xmlns="http://www.w3.org/2000/svg" version="1.1" viewBox="0 0 231.28 45.1">
  <!-- Generator: Adobe Illustrator 29.5.1, SVG Export Plug-In . SVG Version: 2.1.0 Build 141)  -->
  <defs>
    <style>
      .st0 {
        fill: #fff;
      }
    </style>
  </defs>
  <g>
    <path class="st0" d="M37.39,30.77v-1.41c.46,0,.83-.13,1.11-.4.28-.26.51-.61.69-1.05.18-.44.37-.93.57-1.47l4.93-13.45h1.34l5.37,13.69c.1.28.23.68.4,1.19.16.51.26.96.27,1.34.28-.02.55-.03.82-.05.26-.02.5-.02.69-.02v1.63h-6.31v-1.36c.51,0,.86-.11,1.04-.32.18-.21.26-.5.24-.84-.02-.35-.11-.7-.26-1.07l-.62-1.68-5.75.1-.54,1.66c-.1.28-.21.6-.35.95-.13.36-.26.67-.4.95.3-.02.62-.03.98-.05.35-.02.64-.02.85-.02v1.68s-5.08,0-5.08,0ZM42.47,24.01h4.66l-1.34-3.64c-.2-.56-.38-1.13-.56-1.7-.17-.57-.32-1.09-.43-1.57h-.05c-.1.33-.22.76-.36,1.29-.14.53-.33,1.13-.58,1.81l-1.34,3.81Z"/>
    <path class="st0" d="M54.53,29.45c.48,0,.82-.1,1.02-.31.2-.21.32-.5.37-.88.05-.38.07-.81.07-1.29v-4.66c0-.3,0-.61.02-.94.02-.33.04-.67.07-1.02-.28.02-.59.03-.92.04-.33,0-.6.02-.82.04v-1.58h.92c.66,0,1.21-.08,1.66-.24.45-.16.76-.32.94-.48h1.04c.03.2.06.51.07.94.02.43.02.86.02,1.29.38-.5.78-.92,1.19-1.28.41-.35.84-.63,1.28-.82.44-.19.89-.28,1.35-.28.53,0,.99.15,1.4.45.4.3.61.78.61,1.44,0,.22-.05.45-.16.69-.11.25-.27.45-.5.62-.22.17-.52.25-.9.25-.35,0-.67-.11-.98-.33-.31-.22-.47-.58-.48-1.08-.35-.02-.71.11-1.08.37-.37.26-.71.59-1,.97-.3.38-.53.77-.69,1.16l.02,4.71c0,.26,0,.58-.02.95-.02.37-.04.73-.07,1.08.26-.03.54-.05.84-.06.3,0,.54-.01.74-.01v1.58h-6.02v-1.31h0Z"/>
    <path class="st0" d="M71.42,37.48c-1.45,0-2.6-.16-3.45-.47-.85-.31-1.46-.72-1.83-1.23-.37-.5-.56-1.03-.56-1.57,0-.41.09-.8.27-1.15.18-.36.45-.69.79-1,.35-.31.77-.56,1.26-.74-.63-.18-1.08-.46-1.36-.83-.28-.37-.42-.8-.42-1.28s.19-.98.58-1.51c.39-.53,1-.9,1.84-1.11-.71-.31-1.29-.78-1.75-1.39-.45-.61-.69-1.34-.71-2.18-.02-.99.24-1.87.76-2.62.52-.76,1.2-1.35,2.04-1.77.84-.42,1.72-.63,2.62-.63.46,0,.97.07,1.54.2.56.13,1.06.34,1.49.62.16-.5.4-.95.69-1.37.3-.42.65-.76,1.05-1.03.4-.26.85-.4,1.35-.4s.9.13,1.16.4c.26.26.4.62.4,1.06,0,.18-.04.38-.12.59-.08.21-.22.4-.42.54-.2.15-.47.22-.82.22-.26,0-.51-.09-.73-.27-.22-.18-.36-.4-.41-.67-.28.07-.53.27-.76.62-.22.35-.36.68-.41.99.45.4.79.86,1.04,1.4.25.54.37,1.11.37,1.72,0,.94-.26,1.78-.78,2.51-.52.73-1.2,1.31-2.03,1.72-.83.41-1.73.62-2.69.62-.25,0-.5-.01-.74-.04-.25-.02-.51-.04-.79-.04-.45,0-.81.09-1.1.27-.29.18-.42.42-.38.72.05.35.35.57.89.68.54.11,1.39.19,2.53.26,1.27.07,2.38.22,3.32.47.94.25,1.67.64,2.18,1.18.51.54.77,1.28.77,2.22,0,.69-.2,1.3-.59,1.83-.4.53-.92.97-1.57,1.34-.65.36-1.37.64-2.15.83-.78.19-1.57.28-2.37.28h0ZM71.89,36.02c1.25,0,2.21-.23,2.87-.69.66-.46.99-.97.99-1.51,0-.43-.16-.77-.47-1.03-.31-.26-.76-.45-1.34-.58-.58-.13-1.3-.21-2.15-.25-.38-.02-.8-.04-1.26-.06-.46-.02-.88-.07-1.26-.14-.31.23-.56.52-.73.87-.17.35-.26.69-.26,1.04-.03.71.28,1.28.94,1.71.66.43,1.55.64,2.67.64ZM71.54,26.09c.5,0,.91-.14,1.25-.43.34-.29.59-.66.77-1.11.17-.45.26-.94.26-1.45,0-.63-.08-1.23-.25-1.8-.17-.57-.42-1.03-.77-1.39-.35-.35-.78-.53-1.31-.53-.74,0-1.32.31-1.72.93-.4.62-.61,1.35-.61,2.19,0,.64.09,1.24.28,1.8.19.55.46.99.82,1.31.35.32.78.48,1.28.48Z"/>
    <path class="st0" d="M85.41,31.16c-1.19,0-2.25-.27-3.17-.8-.92-.54-1.64-1.3-2.15-2.28-.51-.98-.77-2.14-.77-3.48,0-1.16.26-2.24.77-3.24.51-1.01,1.23-1.82,2.17-2.44.93-.62,2.02-.93,3.26-.93.69,0,1.36.1,2.01.3.64.2,1.22.53,1.73.99.51.46.92,1.07,1.23,1.83.31.76.45,1.68.43,2.77l-8.32.15c0,1.02.12,1.93.36,2.71.24.78.63,1.4,1.18,1.86.54.45,1.26.68,2.15.68.4,0,.82-.07,1.28-.21.45-.14.9-.36,1.35-.64.45-.29.84-.65,1.19-1.08l.94.87c-.54.79-1.15,1.4-1.81,1.83-.66.43-1.32.72-1.98.88-.66.16-1.27.24-1.83.24ZM82.71,22.55h5.15c-.02-.66-.11-1.22-.28-1.67-.17-.45-.43-.8-.76-1.04-.33-.24-.73-.36-1.21-.36-.81,0-1.46.27-1.94.8-.49.54-.8,1.29-.95,2.27Z"/>
    <path class="st0" d="M92.83,30.77v-1.31c.48,0,.82-.1,1.02-.31.2-.21.32-.5.37-.88.05-.38.07-.81.07-1.29v-4.66c0-.3,0-.61.02-.94.02-.33.04-.67.07-1.02-.26.02-.57.03-.9.05-.34.02-.62.03-.83.05v-1.61c.74,0,1.35-.04,1.83-.11.48-.07.85-.17,1.11-.28.26-.12.45-.22.57-.32h1.04c.03.18.05.33.05.45s0,.24.02.36c.02.12.04.3.07.53.33-.28.71-.53,1.15-.76.44-.22.88-.4,1.32-.53.45-.13.86-.2,1.24-.2,1.49,0,2.55.44,3.19,1.31.64.88.97,2.27.97,4.19v3.74c0,.26,0,.58-.01.95,0,.37-.04.73-.09,1.08.28-.03.57-.05.87-.06.3,0,.54-.01.74-.01v1.58h-6.02v-1.31c.48,0,.82-.1,1.03-.31.21-.21.33-.5.38-.88.05-.38.07-.81.07-1.29l-.02-3.52c0-1.19-.18-2.08-.53-2.66-.36-.59-.94-.88-1.75-.88-.48.02-.95.13-1.41.35-.46.21-.85.49-1.16.82.02.2.02.4.02.62v.64l-.02,4.88c0,.26,0,.58-.01.95,0,.37-.04.73-.09,1.08.26-.03.55-.05.85-.06.31,0,.56-.01.76-.01v1.58h-6.02Z"/>
    <path class="st0" d="M112.99,31.16c-.46,0-.91-.06-1.35-.17-.44-.12-.83-.33-1.19-.64-.36-.31-.64-.78-.85-1.4-.21-.62-.32-1.44-.32-2.46l.05-6.39-1.76.02v-1.73c.5-.02.97-.19,1.44-.51.46-.32.87-.75,1.21-1.28.35-.53.58-1.09.69-1.68h1.51l-.02,3.47h3.49v1.58l-3.49.07-.02,6.36c0,.5.05.95.14,1.37.09.42.26.76.5,1,.24.25.57.37.98.37.31,0,.67-.1,1.08-.3.4-.2.81-.59,1.23-1.19l1.02.92c-.41.63-.84,1.11-1.28,1.46-.44.35-.86.6-1.26.77-.4.16-.76.26-1.08.3-.31.03-.54.05-.69.05Z"/>
    <path class="st0" d="M118.17,29.45c.48,0,.82-.1,1.02-.31.2-.21.32-.5.37-.88.05-.38.07-.81.07-1.29v-4.63c0-.28,0-.59.02-.93.02-.34.04-.69.07-1.05-.28.02-.59.03-.92.05-.33.02-.6.03-.82.05v-1.61c.74,0,1.36-.04,1.84-.11.49-.07.87-.17,1.14-.28.27-.12.47-.22.58-.32h1.11v9.09c0,.26,0,.58-.01.95,0,.37-.04.73-.09,1.08.26-.03.55-.05.85-.06.31,0,.56-.01.76-.01v1.58h-6.02s0-1.31,0-1.31ZM121.02,16.01c-.48,0-.88-.18-1.21-.53-.33-.35-.5-.79-.5-1.3s.17-.95.51-1.31c.34-.36.74-.54,1.2-.54s.88.18,1.2.54c.32.36.48.8.48,1.31s-.16.95-.47,1.3c-.31.36-.72.53-1.21.53Z"/>
    <path class="st0" d="M125.89,30.77v-1.31c.48,0,.82-.1,1.02-.31.2-.21.32-.5.37-.88.05-.38.07-.81.07-1.29v-4.66c0-.3,0-.61.02-.94.02-.33.04-.67.07-1.02-.26.02-.57.03-.9.05-.34.02-.62.03-.83.05v-1.61c.74,0,1.35-.04,1.83-.11.48-.07.85-.17,1.11-.28.26-.12.45-.22.57-.32h1.04c.03.18.05.33.05.45s0,.24.02.36c.02.12.04.3.07.53.33-.28.71-.53,1.15-.76.44-.22.88-.4,1.32-.53.45-.13.86-.2,1.24-.2,1.49,0,2.55.44,3.19,1.31.64.88.97,2.27.97,4.19v3.74c0,.26,0,.58-.01.95s-.04.73-.09,1.08c.28-.03.57-.05.87-.06.3,0,.54-.01.74-.01v1.58h-6.02v-1.31c.48,0,.82-.1,1.03-.31.21-.21.33-.5.38-.88.05-.38.07-.81.07-1.29l-.02-3.52c0-1.19-.18-2.08-.53-2.66-.36-.59-.94-.88-1.75-.88-.48.02-.95.13-1.41.35-.46.21-.85.49-1.16.82.02.2.02.4.02.62v.64l-.02,4.88c0,.26,0,.58-.01.95,0,.37-.04.73-.09,1.08.26-.03.55-.05.85-.06.31,0,.56-.01.76-.01v1.58s-6.02,0-6.02,0Z"/>
    <path class="st0" d="M148.5,30.77c-.05-.25-.08-.46-.09-.63,0-.17-.02-.38-.04-.61-.56.56-1.16.97-1.8,1.24-.64.26-1.29.4-1.97.4-1.12,0-1.99-.31-2.59-.92-.6-.61-.9-1.36-.9-2.25,0-.79.21-1.46.64-2.02.43-.55.99-1.01,1.68-1.36.69-.35,1.46-.63,2.3-.82.84-.19,1.68-.29,2.5-.31v-1.36c0-.48-.05-.92-.16-1.32-.11-.4-.3-.73-.58-.97-.28-.24-.69-.36-1.24-.36-.36.02-.73.1-1.1.24-.37.14-.66.36-.88.66.13.15.21.31.25.48.03.17.05.33.05.46,0,.3-.12.61-.35.93-.23.32-.6.47-1.11.46-.45-.02-.79-.17-1.03-.47-.24-.3-.36-.65-.36-1.06,0-.63.23-1.18.68-1.65.45-.47,1.07-.84,1.85-1.11.78-.27,1.64-.41,2.6-.41,1.42,0,2.51.37,3.27,1.11.76.74,1.13,1.93,1.11,3.57v1.57c0,.47,0,.94-.01,1.41,0,.47-.01.99-.01,1.57,0,.25,0,.56-.02.93-.02.37-.04.74-.07,1.1.3-.03.6-.05.9-.06.3,0,.56-.02.76-.04v1.61h-4.28ZM148.23,24.95c-.5.03-.98.11-1.46.24-.48.12-.91.29-1.29.51-.38.22-.68.48-.9.8-.22.32-.33.69-.31,1.1.02.51.18.89.5,1.13.31.24.68.36,1.09.36.48,0,.91-.1,1.3-.3.39-.2.75-.46,1.08-.79v-3.05h0Z"/>
    <path class="st0" d="M156.2,31.16c-.48,0-.88-.18-1.2-.53-.32-.36-.48-.78-.48-1.28s.17-.94.51-1.3c.34-.35.73-.53,1.18-.53.48,0,.87.18,1.19.53.31.36.47.79.47,1.3s-.16.92-.47,1.28c-.31.35-.71.53-1.19.53Z"/>
    <path class="st0" d="M165.71,37.48c-1.45,0-2.6-.16-3.45-.47-.85-.31-1.46-.72-1.83-1.23-.37-.5-.56-1.03-.56-1.57,0-.41.09-.8.27-1.15.18-.36.45-.69.79-1,.35-.31.77-.56,1.26-.74-.63-.18-1.08-.46-1.36-.83-.28-.37-.42-.8-.42-1.28s.19-.98.58-1.51c.39-.53,1-.9,1.84-1.11-.71-.31-1.29-.78-1.75-1.39-.45-.61-.69-1.34-.71-2.18-.02-.99.24-1.87.76-2.62.52-.76,1.2-1.35,2.04-1.77.84-.42,1.72-.63,2.62-.63.46,0,.97.07,1.54.2.56.13,1.06.34,1.49.62.16-.5.4-.95.69-1.37.3-.42.65-.76,1.05-1.03.4-.26.85-.4,1.35-.4s.9.13,1.16.4c.26.26.4.62.4,1.06,0,.18-.04.38-.12.59-.08.21-.22.4-.42.54-.2.15-.47.22-.82.22-.26,0-.51-.09-.73-.27-.22-.18-.36-.4-.41-.67-.28.07-.53.27-.76.62-.22.35-.36.68-.41.99.45.4.79.86,1.04,1.4.25.54.37,1.11.37,1.72,0,.94-.26,1.78-.78,2.51-.52.73-1.2,1.31-2.03,1.72-.83.41-1.73.62-2.69.62-.25,0-.5-.01-.74-.04-.25-.02-.51-.04-.79-.04-.45,0-.81.09-1.1.27-.29.18-.42.42-.38.72.05.35.35.57.89.68.54.11,1.39.19,2.53.26,1.27.07,2.38.22,3.32.47.94.25,1.67.64,2.18,1.18.51.54.77,1.28.77,2.22,0,.69-.2,1.3-.59,1.83-.4.53-.92.97-1.57,1.34-.65.36-1.37.64-2.15.83-.78.19-1.57.28-2.36.28h0ZM166.18,36.02c1.25,0,2.21-.23,2.87-.69.66-.46.99-.97.99-1.51,0-.43-.16-.77-.47-1.03-.31-.26-.76-.45-1.34-.58-.58-.13-1.3-.21-2.15-.25-.38-.02-.8-.04-1.26-.06-.46-.02-.88-.07-1.26-.14-.31.23-.56.52-.73.87-.17.35-.26.69-.26,1.04-.03.71.28,1.28.94,1.71.66.43,1.55.64,2.67.64h0ZM165.84,26.09c.5,0,.91-.14,1.25-.43.34-.29.59-.66.77-1.11.17-.45.26-.94.26-1.45,0-.63-.08-1.23-.25-1.8-.16-.57-.42-1.03-.77-1.39-.35-.35-.78-.53-1.31-.53-.74,0-1.32.31-1.72.93-.4.62-.61,1.35-.61,2.19,0,.64.09,1.24.28,1.8.19.55.46.99.82,1.31.36.32.78.48,1.28.48h0Z"/>
    <path class="st0" d="M179.88,31.16c-1.17,0-2.24-.26-3.19-.78-.96-.52-1.71-1.25-2.27-2.2-.55-.95-.83-2.06-.83-3.33,0-1.34.28-2.53.84-3.57.56-1.04,1.32-1.85,2.27-2.43.95-.58,1.99-.87,3.13-.87s2.23.26,3.17.79c.94.53,1.69,1.26,2.24,2.2.55.94.83,2.06.83,3.34,0,1.35-.27,2.55-.8,3.58-.54,1.03-1.27,1.83-2.2,2.4-.93.57-1.99.85-3.18.85ZM180,29.65c.74,0,1.31-.23,1.71-.69.4-.46.67-1.05.83-1.77.16-.72.24-1.46.24-2.22,0-.64-.05-1.3-.16-1.96-.11-.66-.28-1.26-.51-1.8s-.54-.97-.92-1.29c-.38-.32-.84-.48-1.39-.48-.73.02-1.3.26-1.73.72-.43.46-.74,1.05-.93,1.76-.19.71-.28,1.46-.28,2.25,0,.89.11,1.76.32,2.61.21.85.55,1.54,1.02,2.08.46.54,1.06.8,1.81.78Z"/>
    <path class="st0" d="M188.57,16.28c0-.28,0-.59.01-.93,0-.34.03-.69.06-1.05-.26.02-.57.03-.9.05-.34.02-.62.03-.83.05v-1.61c.76,0,1.38-.04,1.86-.11.48-.07.85-.17,1.13-.28.27-.12.47-.22.58-.32h1.14v7.31c.53-.5,1.09-.85,1.68-1.07.59-.21,1.19-.32,1.78-.32,1.02,0,1.93.26,2.71.77.78.51,1.4,1.24,1.84,2.18.45.94.67,2.05.67,3.32,0,1.35-.26,2.55-.79,3.59-.53,1.04-1.25,1.85-2.18,2.44-.92.59-1.99.88-3.19.88-.48,0-1.06-.1-1.75-.3-.69-.2-1.31-.59-1.87-1.19l-.69,1.09h-1.26v-14.49h0ZM191.61,27c0,.66.11,1.18.32,1.56.21.38.49.65.83.8.34.16.68.24,1.03.26.76,0,1.37-.22,1.84-.67.47-.45.82-1.04,1.04-1.8.22-.75.33-1.56.33-2.44s-.11-1.7-.32-2.44c-.21-.73-.54-1.32-.99-1.76-.45-.44-1.03-.66-1.76-.66-.45.02-.88.13-1.29.35-.41.21-.76.5-1.04.84v5.94Z"/>
    <path class="st0" d="M204.12,31.16c-.48,0-.88-.18-1.2-.53-.32-.36-.48-.78-.48-1.28s.17-.94.51-1.3c.34-.35.73-.53,1.18-.53.48,0,.87.18,1.19.53.31.36.47.79.47,1.3s-.16.92-.47,1.28c-.31.35-.71.53-1.19.53h0Z"/>
    <path class="st0" d="M215.19,30.77c-.05-.25-.08-.46-.09-.63,0-.17-.02-.38-.04-.61-.56.56-1.16.97-1.8,1.24-.64.26-1.29.4-1.97.4-1.12,0-1.99-.31-2.59-.92-.6-.61-.9-1.36-.9-2.25,0-.79.21-1.46.64-2.02.43-.55.99-1.01,1.68-1.36.69-.35,1.46-.63,2.3-.82.84-.19,1.68-.29,2.5-.31v-1.36c0-.48-.05-.92-.16-1.32-.11-.4-.3-.73-.58-.97-.28-.24-.69-.36-1.24-.36-.36.02-.73.1-1.1.24-.37.14-.66.36-.88.66.13.15.21.31.25.48.03.17.05.33.05.46,0,.3-.12.61-.35.93-.23.32-.6.47-1.11.46-.45-.02-.79-.17-1.03-.47-.24-.3-.36-.65-.36-1.06,0-.63.23-1.18.68-1.65.45-.47,1.07-.84,1.84-1.11.78-.27,1.64-.41,2.6-.41,1.42,0,2.51.37,3.27,1.11.76.74,1.13,1.93,1.11,3.57v1.57c0,.47,0,.94-.01,1.41,0,.47-.01.99-.01,1.57,0,.25,0,.56-.02.93-.02.37-.04.74-.07,1.1.3-.03.6-.05.9-.06.3,0,.56-.02.76-.04v1.61h-4.28ZM214.92,24.95c-.5.03-.98.11-1.46.24-.48.12-.91.29-1.29.51-.38.22-.68.48-.9.8-.22.32-.33.69-.31,1.1.02.51.18.89.5,1.13.31.24.68.36,1.09.36.48,0,.91-.1,1.3-.3.39-.2.75-.46,1.08-.79v-3.05h0Z"/>
    <path class="st0" d="M220.98,29.45c.48,0,.82-.1,1.02-.31.2-.21.32-.5.37-.88.05-.38.07-.81.07-1.29v-4.66c0-.3,0-.61.02-.94.02-.33.04-.67.07-1.02-.28.02-.59.03-.92.04-.33,0-.6.02-.82.04v-1.58h.92c.66,0,1.21-.08,1.66-.24s.76-.32.94-.48h1.04c.03.2.06.51.07.94.02.43.02.86.02,1.29.38-.5.78-.92,1.19-1.28.41-.35.84-.63,1.28-.82.44-.19.89-.28,1.35-.28.53,0,.99.15,1.4.45.4.3.61.78.61,1.44,0,.22-.05.45-.16.69-.11.25-.27.45-.5.62-.22.17-.52.25-.9.25-.35,0-.67-.11-.98-.33-.31-.22-.47-.58-.48-1.08-.35-.02-.71.11-1.08.37-.37.26-.71.59-1,.97-.3.38-.53.77-.69,1.16l.02,4.71c0,.26,0,.58-.02.95s-.04.73-.07,1.08c.26-.03.54-.05.84-.06.3,0,.54-.01.74-.01v1.58h-6.02v-1.31Z"/>
  </g>
  <g>
    <g>
      <path class="st0" d="M13.49,39.22c-5.72,0-10.37-6.54-10.37-14.58s4.65-14.58,10.37-14.58,10.37,6.54,10.37,14.58-4.65,14.58-10.37,14.58ZM13.49,10.33c-5.56,0-10.09,6.42-10.09,14.3s4.52,14.3,10.09,14.3,10.09-6.42,10.09-14.3-4.52-14.3-10.09-14.3Z"/>
      <path class="st0" d="M22.41,31.88c.09-.21.2-.54.31-.95-.14.42-.24.73-.31.95Z"/>
      <g>
        <g>
          <path class="st0" d="M20.06,12h0s-3.35-1.19-3.35-1.19l.26.18c.13.07.3.09.44.17l2.68.94h.03s-.01-.02-.01-.02c-.02-.03-.03-.07-.05-.1Z"/>
          <path class="st0" d="M22.48,9.12l-4.98-.33h0s.04-.02.06-.02c.11-.04.22-.08.36-.15.06-.03.13-.06.18-.09h0s.09-.05.13-.07c.2-.1.4-.17.59-.22.2-.05.4-.07.62-.06.07,0,.13,0,.21.01h0s.09,0,.13,0c.13,0,.26.01.41-.01.26-.04.46-.15.65-.25h0s.05-.03.08-.04c.19-.1.39-.21.59-.27.2-.06.41-.07.61-.05.1.01.2-.06.22-.16,0-.05,0-.11-.03-.15-.03-.04-.08-.07-.13-.08-.26-.05-.53-.05-.78.01-.25.06-.49.16-.7.26-.09.04-.2.09-.3.13-.05.02-.1.03-.14.05h0s-.04.01-.06.01h-.02s-.03,0-.05,0h0c-.11.01-.25,0-.4-.03-.07-.01-.16-.02-.24-.03-.26-.03-.53-.02-.78.02-.24.04-.49.11-.74.22-.05.02-.1.04-.15.06h0c-.05.03-.11.05-.16.07-.12.05-.22.08-.3.1-.07.02-.15.04-.23.05h0s-.01-.04-.01-.04l4.67-2.32c.07-.04.09-.11.06-.17-.02-.06-.09-.1-.17-.07l-4.69,1.74h0s.07-.06.11-.1c.09-.08.17-.16.27-.27.04-.05.09-.1.13-.15h0s.07-.08.1-.12c.15-.17.3-.32.46-.43.16-.12.34-.22.55-.29.06-.02.13-.05.2-.07h0s.08-.03.12-.05c.12-.04.25-.09.37-.17.23-.14.37-.32.5-.49h0s.03-.05.05-.07c.13-.17.28-.34.44-.48.16-.13.34-.22.55-.28.1-.03.16-.13.14-.23-.01-.05-.04-.1-.09-.13-.04-.03-.1-.04-.15-.03-.26.06-.5.16-.72.32-.21.15-.38.34-.54.52-.07.08-.15.16-.23.24-.04.04-.08.07-.11.1h0s-.03.02-.05.03h0s0,0-.01.01c-.01,0-.03.02-.04.02h0c-.1.06-.24.09-.38.13-.08.02-.15.04-.23.07-.25.08-.5.19-.71.32-.21.13-.41.3-.6.49-.04.04-.08.08-.12.12-.04.04-.08.08-.12.13-.09.09-.17.16-.24.21-.07.06-.15.11-.22.15h0s-.02-.02-.02-.02l3.42-3.99c.05-.06.03-.14,0-.18-.04-.04-.12-.06-.18,0l-3.64,3.43h0s.04-.09.06-.13c.05-.1.09-.21.14-.36.02-.06.04-.13.06-.19h0c.02-.06.03-.11.05-.15.07-.22.15-.41.25-.58.1-.17.23-.33.39-.48.05-.05.1-.09.15-.14h.01s.06-.06.09-.09c.09-.09.19-.18.28-.3.15-.22.21-.43.27-.64,0-.03.02-.06.02-.09.06-.21.12-.43.22-.61.1-.18.23-.34.39-.47.08-.07.1-.19.04-.27-.03-.04-.08-.07-.13-.08-.05,0-.11,0-.15.03-.21.15-.4.35-.54.57-.14.22-.22.46-.3.69-.03.1-.07.21-.12.31-.02.05-.04.09-.07.14h0s-.02.04-.03.05v.02s-.03.03-.04.04h0c-.07.09-.18.18-.3.27h0c-.06.05-.12.1-.19.15-.2.17-.39.37-.53.58-.14.2-.26.43-.36.69-.02.06-.04.11-.06.15h0c-.02.06-.04.11-.06.17-.05.12-.09.21-.14.29-.04.09-.1.17-.15.24h0s0,.01,0,.01h0s-.03-.02-.05-.02h0s1.76-4.99,1.76-4.99c.03-.08-.02-.14-.07-.16-.06-.02-.13,0-.17.06l-2.02,4.23h0c0-.06,0-.13,0-.2,0-.06-.01-.13-.02-.2h0c0-.06,0-.11-.01-.16-.02-.22-.02-.44,0-.63.03-.2.08-.4.17-.6.03-.06.05-.12.09-.19.02-.04.04-.08.06-.13.05-.12.11-.24.14-.39.05-.26.03-.48,0-.7h0s0-.06,0-.09c-.03-.21-.06-.44-.04-.65.02-.21.08-.4.18-.59.05-.09.02-.21-.07-.26-.05-.03-.1-.04-.15-.02-.05.01-.1.04-.12.09-.14.22-.23.48-.27.74-.04.26-.02.51,0,.75,0,.11.01.23.01.33,0,.06,0,.1,0,.15h0s0,.04,0,.06h0s0,.02,0,.02c0,.02,0,.03-.01.04h0c-.03.12-.1.24-.17.37-.04.06-.08.14-.11.21-.12.24-.21.49-.26.74-.05.24-.07.5-.06.77,0,.05,0,.1,0,.14v.04c0,.06,0,.11,0,.16,0,.13,0,.23-.01.32,0,.1-.02.19-.05.28,0,.02,0,.03-.02.05h0s0,0,0,0c-.02,0-.04,0-.06,0l-.31-5.23c0-.08-.07-.12-.13-.12-.06,0-.13.04-.13.13l-.24,5h0s-.03-.09-.04-.14c-.04-.11-.08-.22-.15-.36-.03-.06-.05-.11-.09-.18v-.02s-.05-.09-.07-.13c-.1-.2-.17-.4-.22-.59-.05-.2-.07-.4-.06-.62,0-.06,0-.13.01-.2v-.03s0-.08.01-.12c0-.13.01-.26-.01-.41-.04-.26-.15-.46-.25-.65-.01-.03-.03-.05-.04-.08-.1-.19-.21-.39-.27-.59-.06-.2-.07-.4-.05-.61.01-.1-.06-.2-.16-.22-.05-.01-.11,0-.15.03-.04.03-.07.08-.08.13-.05.26-.05.53.01.78.06.25.16.49.26.7.04.09.09.2.13.3.02.05.03.1.05.14h0s0,.04.01.06v.02s0,.03,0,.04h0c.01.12,0,.26-.03.41-.01.08-.02.16-.03.24-.03.26-.02.53.02.78.04.24.11.49.22.74.02.06.04.11.06.15h0c.02.06.05.11.07.17.05.12.08.21.1.3.03.09.05.19.06.28h0s-.02,0-.02,0L10.02.82c-.04-.07-.11-.09-.17-.06-.06.02-.1.09-.07.17l1.74,4.69h0s-.06-.07-.09-.11c-.08-.08-.16-.17-.27-.27-.05-.04-.1-.09-.14-.13h-.02s-.07-.08-.11-.11c-.17-.15-.32-.3-.43-.46-.12-.16-.22-.34-.29-.55-.02-.06-.05-.13-.07-.2-.01-.04-.03-.09-.05-.13-.04-.12-.09-.25-.17-.37-.14-.23-.32-.37-.49-.5-.02-.02-.05-.04-.07-.06-.17-.13-.34-.27-.48-.44-.13-.16-.22-.34-.28-.55-.03-.1-.13-.16-.23-.14-.05.01-.1.04-.13.09-.03.04-.04.1-.03.15.06.26.16.5.32.72.15.21.34.38.52.54.08.07.17.15.24.23.04.04.07.08.1.11h0s.02.03.03.05v.02s.03.03.04.04h0c.06.11.09.24.13.39h0c.02.08.04.16.07.23.08.25.19.5.32.71.13.21.3.41.49.6.04.04.08.08.11.11h0c.04.05.08.09.13.13.09.09.16.17.21.24.06.07.12.16.16.23,0,0,0,.02.01.03h0s-.01,0-.01,0l-4.02-3.45c-.06-.05-.14-.03-.18,0-.04.04-.06.12,0,.18l3.43,3.64h0s-.08-.04-.13-.06c-.1-.05-.21-.09-.36-.14-.06-.02-.12-.04-.19-.06h-.01s-.09-.03-.14-.05c-.22-.07-.41-.15-.58-.25-.17-.1-.33-.23-.48-.39-.05-.05-.1-.1-.14-.15-.03-.03-.06-.07-.09-.1-.09-.09-.18-.19-.3-.28-.22-.15-.44-.21-.64-.27h-.01s-.05-.02-.07-.02c-.21-.06-.42-.12-.61-.22-.18-.1-.34-.23-.47-.39-.07-.08-.19-.1-.27-.04-.09.06-.11.19-.05.28.15.21.35.4.57.54.22.14.46.22.69.3.1.03.21.07.31.12.05.02.1.04.14.07h0s.03.02.05.03h.02s.03.03.04.04h0c.09.07.18.19.27.3.05.06.1.13.15.19.17.21.37.39.58.53.2.14.43.26.69.36.06.02.11.04.16.06.06.02.11.04.16.07.12.05.21.09.29.14.09.04.17.1.24.15.01,0,.02.02.03.03h0s-.02.04-.02.04l-5.01-1.77c-.08-.03-.14.02-.16.07-.02.06,0,.13.06.17l4.23,2.02h0c-.06,0-.12,0-.2,0-.06,0-.13.01-.2.02h-.01c-.05,0-.1.01-.15.01-.23.02-.44.02-.63,0-.2-.03-.4-.08-.6-.17-.06-.03-.12-.05-.18-.08h0s-.08-.04-.13-.06c-.12-.05-.24-.11-.39-.14-.26-.05-.48-.03-.7,0h-.02s-.05,0-.07.01c-.21.03-.44.06-.65.04-.21-.02-.4-.08-.59-.18-.09-.05-.21-.02-.26.07-.03.05-.04.1-.02.15.01.05.04.1.09.12.22.14.48.23.74.27.26.04.51.02.75,0,.1,0,.22-.01.33-.01h0c.06,0,.1,0,.15,0h0s.04,0,.06,0h.02s.03,0,.04.02h0c.11.03.24.1.37.17h0c.07.04.14.08.21.11.24.12.49.21.74.26.24.05.5.07.77.06.06,0,.12,0,.17,0,.06,0,.12,0,.18,0,.13,0,.23,0,.32.01.1,0,.19.02.28.05.02,0,.03.01.05.02h0s0,0,0,0c0,.02,0,.04,0,.06l-5.23.31c-.08,0-.12.07-.12.13,0,.06.04.13.13.13l5,.24h0s-.09.03-.14.05c-.11.04-.22.08-.36.15-.06.03-.13.06-.18.09h0s-.09.05-.13.07c-.2.1-.4.17-.59.22-.2.05-.4.07-.62.06-.07,0-.13,0-.2-.01h-.02s-.08,0-.12,0c-.13,0-.26-.01-.41.01-.26.04-.46.15-.65.25-.03.01-.05.03-.08.04-.19.1-.39.21-.59.27-.2.06-.4.07-.61.05-.1-.01-.2.06-.22.16,0,.05,0,.11.03.15.03.04.08.07.13.08.26.05.53.05.78-.01.25-.06.49-.16.7-.26.09-.04.2-.09.3-.13.05-.02.1-.03.14-.05h0s.04-.01.06-.01h0s0,0,.02,0c.02,0,.03,0,.04,0h0c.11-.01.25,0,.41.03h0c.08.01.16.02.24.03.26.03.53.02.78-.02.24-.04.49-.11.74-.22.05-.02.1-.04.14-.06h.01c.05-.03.11-.05.16-.07.12-.05.22-.08.3-.1.09-.03.18-.05.26-.05h0s0,0,0,0c0,0,0,.02,0,.03h0s-2.69,1.34-2.69,1.34h-.01s.01.02.01.02h0s.02.04,0,.07v.03s2.79-1.39,2.79-1.39h0s-.01-.04-.01-.04c-.01-.04-.02-.07-.03-.11v-.04s-.05,0-.05,0c-.01,0-.02,0-.03,0-.09,0-.2.03-.29.06-.09.03-.19.06-.31.11-.06.02-.11.04-.16.07h0s-.1.04-.16.07c-.25.1-.49.18-.72.21-.24.04-.5.05-.75.02-.08,0-.16-.02-.24-.03h0c-.15-.02-.3-.04-.42-.03-.02,0-.04,0-.06,0h-.02s-.04.01-.07.02c-.05.01-.11.03-.15.05-.11.04-.22.09-.31.14-.21.1-.44.2-.68.26-.24.05-.5.06-.74,0-.03,0-.05-.02-.07-.04-.02-.02-.02-.05-.02-.08,0-.05.06-.09.11-.08.22.03.44.01.65-.05.22-.06.42-.17.61-.28.02-.01.04-.02.07-.04h.01c.18-.1.37-.21.62-.25.14-.02.27-.02.39,0,.05,0,.09,0,.14,0h0c.07,0,.14.01.21.01.23.01.44,0,.64-.06.2-.05.4-.12.61-.23.04-.02.08-.04.13-.06h0c.06-.03.12-.06.18-.09.13-.06.24-.11.35-.14.13-.05.25-.08.38-.1h.05s0-.12,0-.12l-5.3-.25s-.03-.02-.03-.03c0,0,0-.03.03-.03l5.31-.31h0s0-.04,0-.04c0-.04.01-.08.02-.13v-.02s-.02-.03-.02-.03h-.01s-.06-.03-.1-.04c-.09-.03-.19-.04-.3-.05-.09,0-.2-.01-.33-.01-.06,0-.12,0-.18,0-.05,0-.11,0-.17,0-.27,0-.52-.01-.75-.06-.24-.05-.48-.13-.71-.25-.07-.04-.15-.08-.21-.11-.14-.08-.26-.15-.39-.18-.02,0-.04-.01-.06-.01h-.02s-.04-.01-.07-.01c-.05,0-.1,0-.16,0h0c-.11,0-.23,0-.33.01-.23.02-.48.03-.73,0-.25-.04-.49-.13-.7-.26-.02-.01-.04-.04-.05-.06,0-.03,0-.05.01-.08.03-.05.09-.06.13-.04.2.1.41.17.63.19.22.02.45,0,.67-.04.02,0,.04,0,.06,0h.03c.21-.03.42-.06.67,0,.13.03.25.08.37.13.04.02.08.04.12.06h0c.06.03.13.06.19.09.21.09.41.15.62.18.2.03.42.03.65,0,.05,0,.1,0,.15-.01.06,0,.13-.01.2-.02.15,0,.26-.01.38,0,0,0,.01,0,.02,0h.25s-4.64-2.2-4.64-2.2c-.03-.01-.02-.03-.02-.04,0,0,.01-.03.04-.02l5.08,1.79h0s.02-.03.02-.03c0,0,.04-.07.06-.1l.02-.03-.02-.03s-.04-.04-.07-.06c-.07-.06-.16-.12-.25-.16-.08-.04-.18-.09-.3-.14-.06-.02-.11-.04-.16-.06h0s-.1-.04-.15-.06c-.25-.1-.47-.21-.67-.35-.2-.13-.39-.31-.56-.51-.05-.06-.1-.13-.15-.19-.1-.12-.19-.24-.29-.32-.02-.02-.03-.03-.05-.04h-.02s-.04-.04-.06-.05c-.05-.03-.1-.05-.14-.07-.11-.05-.22-.09-.32-.12-.22-.08-.46-.16-.67-.29-.21-.13-.4-.31-.54-.51-.03-.05-.02-.11.02-.14.04-.03.1-.02.14.02.14.17.31.31.5.42.2.1.42.17.63.23.02,0,.05.01.07.02h.01c.2.06.41.12.61.26.11.08.2.17.29.26.03.03.06.07.09.1.05.06.1.11.14.16.16.17.32.3.5.41.17.1.37.19.6.26.04.02.09.03.14.05h0c.06.02.12.04.18.06.14.05.25.09.35.14.13.06.24.12.35.2.01,0,.02.02.04.03l.04.03.07-.08-3.68-3.9s0-.04,0-.05c0,0,.02-.02.05,0l4.08,3.49h0s.03-.02.03-.02c.02-.02.05-.04.07-.06l.03-.02v-.03s-.03-.05-.04-.07c-.05-.08-.1-.17-.17-.25-.06-.07-.13-.15-.22-.24-.04-.04-.08-.08-.12-.12h0s-.08-.08-.12-.12c-.19-.19-.35-.38-.48-.58-.13-.2-.24-.44-.31-.69-.02-.08-.05-.16-.06-.23h0c-.04-.15-.08-.29-.14-.41,0-.02-.02-.04-.03-.05v-.02s-.03-.04-.05-.06c-.03-.04-.07-.09-.1-.12-.08-.08-.17-.16-.25-.23-.18-.16-.36-.33-.5-.53-.14-.2-.25-.44-.3-.68,0-.03,0-.05.01-.08.01-.02.04-.04.06-.04.05-.01.1.02.12.07.06.21.16.41.3.58.14.17.32.32.49.46.02.02.05.04.07.06.16.13.33.27.46.48.07.12.12.24.16.35.01.04.03.08.04.12h0c.02.07.05.14.07.2.08.21.18.4.31.57.12.16.27.32.45.48.04.03.08.07.12.1h0s.1.09.15.13c.11.1.19.18.27.26.09.1.17.2.24.32,0,0,0,.02.01.02l.02.04.1-.05-1.85-5.01s0-.04.02-.04c0,0,.03,0,.04.02l2.38,4.79h0s.04,0,.04,0c.03,0,.07-.02.1-.03h.04s0-.05,0-.05c0-.02,0-.03,0-.05,0-.1-.03-.2-.06-.29-.03-.09-.06-.19-.11-.31-.02-.05-.04-.1-.06-.15v-.03s-.05-.09-.07-.14c-.1-.25-.18-.49-.21-.72-.04-.24-.05-.5-.02-.75,0-.08.02-.16.03-.24.02-.15.04-.3.03-.43,0-.02,0-.04,0-.06,0,0,0,0,0-.01h0s0-.05-.01-.07c-.01-.05-.03-.09-.05-.15-.04-.11-.09-.22-.14-.31-.1-.21-.2-.44-.26-.68-.05-.24-.06-.5,0-.74,0-.03.02-.05.04-.07.02-.02.05-.02.08-.02.05,0,.09.06.08.11-.03.22-.01.44.05.65.06.22.17.42.28.61.01.03.03.05.04.08.1.18.2.37.24.62.02.14.02.27,0,.39,0,.05,0,.09,0,.14,0,.07-.01.14-.01.21-.01.23,0,.44.06.64.05.2.12.4.23.61.02.04.04.09.07.14.03.06.06.12.09.18.06.14.11.24.14.35.05.13.08.26.1.39v.05s.12-.01.12-.01l.25-5.31s.02-.03.03-.03c0,0,.03,0,.03.03l.31,5.3h0s.04.01.04.01c.05,0,.09,0,.13.02h.03s.02-.03.02-.03c.01-.02.03-.06.04-.1.03-.09.04-.19.05-.3,0-.09.01-.2.01-.33,0-.06,0-.11,0-.18h0c0-.06,0-.11,0-.17,0-.27.01-.52.06-.75.05-.24.13-.48.25-.71.04-.07.08-.15.11-.21.08-.14.15-.27.18-.39,0-.02.01-.04.01-.06v-.02s.01-.04.01-.07c0-.05,0-.1,0-.16,0-.11,0-.24-.01-.34-.02-.23-.03-.48,0-.73.04-.25.13-.49.26-.7.01-.02.04-.04.06-.05.03,0,.05,0,.08.01.05.03.06.09.04.13-.1.2-.17.41-.19.63-.02.22,0,.45.04.67,0,.02,0,.04,0,.06v.03c.03.21.06.42,0,.67-.03.13-.08.25-.13.37-.02.04-.04.08-.06.12h0c-.03.07-.06.13-.08.19-.09.21-.15.41-.18.62-.03.2-.03.42,0,.65,0,.05,0,.1.01.15,0,.08.01.14.02.2,0,.15.01.26,0,.38,0,.01,0,.02,0,.03v.24s2.2-4.64,2.2-4.64c.01-.03.03-.02.04-.02,0,0,.03.01.02.04l-1.78,5.06h0s.04.03.04.03c.04.02.08.04.12.06l.03.02.03-.03s.03-.03.04-.05c.06-.07.12-.16.16-.25.04-.08.09-.18.14-.3.02-.05.04-.1.06-.16v-.02s.04-.09.07-.14c.1-.25.21-.47.35-.67.13-.2.31-.39.51-.56.06-.05.13-.1.18-.15h0c.12-.1.24-.19.32-.29.02-.02.03-.03.04-.05v-.02s.04-.03.05-.06c.03-.05.05-.1.07-.14h0c.04-.11.08-.22.12-.32.08-.22.16-.46.29-.67.13-.21.31-.4.51-.54.02-.02.05-.02.08-.02.03,0,.05.02.07.04.03.04.02.1-.02.14-.17.14-.31.31-.42.5-.1.2-.17.42-.23.63,0,.03-.02.05-.02.08h0c-.06.2-.12.41-.26.62-.08.11-.17.2-.26.29-.03.02-.05.05-.08.07l-.02.02s-.11.09-.16.14c-.17.16-.3.32-.41.5-.1.17-.19.38-.26.6-.01.04-.03.08-.04.13v.02c-.03.07-.05.13-.07.19-.05.14-.09.25-.14.35-.06.13-.12.24-.2.35,0,0,0,0,0,0l-.03.04.09.07,3.88-3.66s.04,0,.05,0c0,0,.02.02,0,.05l-3.47,4.04h0s.03.04.03.04c.02.03.05.06.07.09l.02.03.04-.02s.02,0,.03-.01c.08-.05.17-.1.25-.17.07-.06.15-.13.24-.22.05-.04.09-.09.13-.13.04-.04.08-.08.12-.12.19-.19.38-.35.58-.48.2-.13.44-.24.69-.31.08-.02.16-.05.23-.07.15-.04.29-.08.4-.14.02,0,.04-.02.05-.03h.02s.04-.03.06-.05c.04-.03.08-.07.12-.1.08-.08.16-.17.23-.25.16-.18.33-.36.53-.5.2-.14.44-.25.68-.3.03,0,.05,0,.08.01.02.01.04.04.04.06.01.05-.02.1-.07.12-.21.06-.41.16-.58.3-.17.14-.32.32-.46.49-.01.02-.03.03-.04.05l-.02.02c-.13.16-.27.33-.48.46-.12.07-.24.12-.35.16-.04.02-.09.03-.13.05-.07.02-.14.05-.2.07-.21.08-.4.18-.57.31-.16.12-.32.27-.48.45-.03.03-.06.07-.09.1h-.01c-.04.06-.09.11-.13.16-.1.11-.18.19-.26.27-.1.09-.2.17-.3.23l-.04.02.06.1,4.97-1.84s.04.01.04.02c0,0,0,.03-.02.04l-4.74,2.35h0s.01.04.01.04c.01.04.02.08.04.12v.04s.05,0,.05,0c.09,0,.19-.03.28-.06.09-.03.19-.06.31-.11.05-.02.11-.04.17-.07h0s.1-.04.15-.06c.25-.1.49-.18.72-.21.24-.04.5-.05.75-.02.08,0,.16.02.23.03h0c.15.02.3.04.43.03.02,0,.04,0,.06,0h.02s.04-.01.07-.02c.05-.01.1-.03.15-.05.11-.04.22-.09.31-.14.21-.1.44-.2.68-.26.24-.05.5-.06.74,0,.03,0,.05.02.07.04.02.02.02.05.02.08,0,.05-.06.09-.11.08-.22-.03-.44-.01-.65.05-.22.06-.42.17-.61.28-.02.01-.04.02-.07.04h-.01c-.18.1-.37.21-.62.25-.14.02-.27.02-.39,0-.05,0-.09,0-.14,0-.07,0-.14-.01-.21-.01-.23-.01-.44,0-.64.06-.2.05-.4.12-.61.23-.04.02-.08.04-.13.06h-.01c-.05.03-.12.06-.18.09-.14.06-.24.11-.35.14-.11.04-.22.07-.33.09h-.04s0,.1,0,.1l5.31.35s.03.02.03.03c0,0,0,.03-.03.03l-5.31.21v.04c0,.06-.02.12-.02.19v.04s.03.01.03.01c.01,0,.02,0,.04.01.09.03.19.04.3.05.09,0,.2.01.33.01.06,0,.13,0,.18,0h.02s.1,0,.15,0c.27,0,.52.01.75.06.24.05.48.13.71.25.07.04.14.08.21.11.14.08.26.15.39.18.02,0,.04.01.06.01h.02s.04.01.07.01c.05,0,.11,0,.16,0h0c.11,0,.23,0,.33-.01.23-.02.48-.03.73,0,.25.04.49.13.7.26.02.01.04.04.05.06,0,.03,0,.05-.01.08-.03.05-.09.06-.13.04-.2-.1-.41-.17-.63-.19-.22-.02-.45,0-.67.04-.03,0-.05,0-.08,0h-.01c-.21.03-.42.05-.67,0-.13-.03-.25-.08-.37-.13-.04-.02-.08-.04-.12-.06-.06-.03-.13-.06-.19-.09-.21-.09-.41-.15-.62-.18-.2-.03-.42-.03-.65,0-.05,0-.1,0-.15.01h0c-.07,0-.13.01-.2.02-.15,0-.26.01-.38,0-.01,0-.02,0-.03,0h-.24s2.65,1.26,2.65,1.26h.02s0-.01,0-.01c0-.01,0-.03.01-.04,0,0,.01-.01.02-.01h.02s-2.27-1.09-2.27-1.09h0c.06,0,.12,0,.2,0,.07,0,.14-.01.2-.02h.01c.05,0,.1-.01.14-.01.22-.02.44-.02.63,0,.2.03.4.08.6.17.06.03.13.06.19.08h.01s.07.04.11.06c.12.05.24.11.39.14.26.05.48.03.7,0,.03,0,.06,0,.09-.01.21-.03.44-.06.65-.04.21.02.4.08.59.18.09.05.21.02.26-.07.03-.05.04-.1.02-.15-.01-.05-.04-.1-.09-.12-.22-.14-.48-.23-.74-.27-.26-.04-.51-.02-.75,0-.1,0-.22.01-.33.01h0c-.05,0-.1,0-.15,0h0s-.04,0-.06,0h-.02s-.03,0-.04-.02h0c-.11-.03-.23-.1-.37-.17h0c-.07-.04-.14-.08-.21-.11-.24-.12-.49-.21-.74-.26-.24-.05-.5-.07-.77-.06-.06,0-.12,0-.17,0h0c-.06,0-.11,0-.17,0-.13,0-.23,0-.32-.01-.09,0-.19-.02-.27-.05h0s0,0,0,0c0-.03,0-.07.01-.1l5.22-.21c.08,0,.12-.07.13-.13,0-.06-.04-.13-.12-.13ZM16.74,3.57h0s0,0,0,0Z"/>
          <path class="st0" d="M6.87,12.09h0s-.04.07-.05.1v.03s2.48-.92,2.48-.92c.13-.08.25-.15.36-.22l.75-.3s-3.54,1.31-3.54,1.31Z"/>
        </g>
        <g>
          <path class="st0" d="M14.52,7.8c-.23.08-.35.24-.36.24l-.03.03.03.03c.17.2.38.27.59.27.39,0,.75-.24.75-.24l.06-.04-.05-.04c-.43-.34-.77-.32-.98-.25ZM14.55,7.9c-.02.09-.05.26.03.36-.11-.03-.22-.08-.31-.18.04-.05.14-.13.28-.18ZM14.95,8.25c.09-.1.07-.27.05-.35.11.03.24.09.37.19-.08.05-.24.12-.43.16Z"/>
          <path class="st0" d="M12.1,8.37c.2,0,.42-.07.59-.27l.03-.03-.03-.03s-.13-.16-.36-.24c-.21-.07-.55-.09-.98.25l-.05.04.06.04s.37.24.75.24ZM12.58,8.07c-.09.1-.2.15-.31.18.08-.1.05-.27.03-.36.14.05.24.13.28.18ZM11.84,7.9c-.02.09-.04.26.05.35-.18-.04-.34-.12-.43-.16.14-.1.26-.16.37-.19Z"/>
          <path class="st0" d="M14.74,7.1c-.79,0-1.24.43-1.24,1.18,0,.79.3.87.45.91.02,0,.04,0,.06.01.13.03.21.05.21.2,0,.06-.03.1-.09.13-.1.04-.26,0-.35-.08l-.04-.04-.04.04s-.1.1-.3.1c-.21,0-.3-.09-.3-.1l-.04-.04-.04.04c-.09.09-.24.12-.35.08-.06-.02-.09-.07-.09-.13,0-.15.08-.18.21-.2.02,0,.04,0,.08-.02.14-.04.44-.11.44-.91s-.45-1.18-1.24-1.18c-.72,0-1.19.58-1.21.61l.08.06s.46-.57,1.13-.57c.73,0,1.14.38,1.14,1.08s-.25.78-.36.81h-.01s-.04.01-.06.02c-.12.02-.29.06-.29.3,0,.1.05.18.15.22.13.05.3.02.42-.07.05.04.16.1.34.1,0,0,0,0,0,0,.18,0,.29-.06.34-.1.08.06.18.1.28.1.05,0,.1,0,.14-.03.1-.04.15-.12.15-.22,0-.24-.18-.28-.29-.3-.02,0-.04,0-.06-.01h-.01s0,0,0,0c-.12-.03-.36-.09-.36-.81s.4-1.08,1.14-1.08c.68,0,1.13.57,1.13.57l.08-.06s-.49-.61-1.21-.61Z"/>
        </g>
      </g>
      <polygon class="st0" points="2.73 32.55 2.73 32.55 2.73 32.55 2.73 32.55"/>
      <path class="st0" d="M14.66,42.29c.46-.44.86-1,.89-1.45,0,0,0-.02,0-.02,0-.3-.03-.64-.23-.91-.06-.08-.23-.12-.33-.09-.08.02-.83.15-1.6.13-.86-.02-1.4-.11-1.48-.13-.1-.02-.27,0-.33.09-.2.27-.23.61-.23.91,0,0,0,0,0,0,0,0,0,.01,0,.02.04.44.43,1.01.89,1.45-.79.24-2.5,1.03-3.09,2.03-.02.03-.01.07,0,.1.02.03.06.03.09.02.3-.14.59-.16.84-.06.26.1.47.34.6.68.01.03.04.05.08.05h0s.06-.02.08-.05c.33-.93,1.43-2,1.92-2.32.03.12.14.2.27.22.12.02.25.03.37.03h0s0,0,0,0c.01,0,.02,0,.03,0,.01,0,.02,0,.03,0,0,0,0,0,0,0h0c.13,0,.25-.01.37-.03.14-.02.24-.1.27-.22.49.32,1.59,1.39,1.92,2.32.01.03.04.05.08.05h0s.06-.02.08-.05c.13-.34.34-.58.6-.68.25-.1.54-.08.84.06.03.02.07,0,.09-.02.02-.03.03-.07,0-.1-.6-1-2.31-1.8-3.09-2.03ZM11.64,40.25h0c1.27.3,2.44.27,3.68,0,.01.01.06.21.06.3h0c-1.35.34-2.53.32-3.84,0,.02-.11.05-.21.1-.3ZM12.56,42.55c-.64.39-1.75,1.17-2.18,1.79-.06-.05-.25-.15-.44-.18h0c.72-.67,1.67-1.25,2.51-1.71-.02-.01.02.01,0,0h0s.07.06.12.1h0ZM12.75,42.06s-.01.19-.02.25c-.38-.34-.67-.75-.9-1.2.06.02.31.07.36.09h0c.13.32.31.61.56.86,0,0,0,0,0,0ZM13.67,42.8h-.41v-.98h.41v.98ZM14.06,41.78s-.11-.08-.19-.09c-.12-.02-.7-.02-.83,0-.08.01-.14.04-.19.09-.07-.16-.11-.33-.13-.48.24.03,1.22.03,1.46,0-.01.14-.06.32-.13.48ZM14.17,42.06c.24-.26.43-.54.56-.86,0,0,.35-.08.36-.09-.23.45-.52.86-.9,1.2,0-.1,0-.15-.02-.25ZM16.55,44.33c-.43-.61-1.55-1.4-2.18-1.79.06-.05.07-.06.12-.1.84.46,1.79,1.04,2.51,1.71h0c-.12.02-.42.15-.45.17"/>
    </g>
    <g>
      <g>
        <path class="st0" d="M23.25,34.9s0,.04.01.07c.03-.01.06-.03.08-.04.35-.18.63-.32.82-.73.07-.15.12-.34.15-.56l.03-.21c.03-.25.04-.48.04-.7v-.02s0-.05,0-.08c-.02.02-.04.04-.06.06-.17.15-.38.33-.56.51l-.14.14c-.14.15-.26.31-.33.45-.19.41-.13.71-.05,1.1,0,0,0,.02,0,.02Z"/>
        <path class="st0" d="M24.93,18.22s-.05-.07-.08-.1c0,.03-.01.07-.02.11-.07.47-.16,1.1-.06,1.48.12.43.36.62.67.86.03.02.05.04.08.06.01-.03.03-.07.04-.1.15-.36.26-.64.15-1.07-.1-.37-.49-.87-.78-1.24Z"/>
        <path class="st0" d="M23.71,17.08c-.09-.19-.13-.43-.16-.69-.23-.1-.48-.18-.7-.26-.03-.01-.07-.02-.1-.04l.02.05c.2.44.48,1.05.78,1.32.29.26.56.32.89.35-.3-.17-.55-.35-.73-.74Z"/>
        <path class="st0" d="M25.43,29.44c.28-.28.5-.5.55-.94.02-.16,0-.36-.03-.57l-.04-.21c-.05-.24-.12-.47-.18-.68v-.03s-.02-.05-.03-.07l-.04.07c-.12.2-.26.43-.37.66l-.09.18c-.09.19-.15.37-.17.53-.06.45.1.72.29,1.06.01.03.03.05.04.08.02-.02.04-.04.06-.06,0,0,0,0,0,0Z"/>
        <path class="st0" d="M25.88,20.13c-.02.1-.06.19-.09.29.21-.22.38-.43.43-.8.06-.4-.12-1.04-.24-1.51v-.06s-.05.06-.07.09h0c-.12.2-.25.41-.36.62.15.22.27.45.33.65.07.25.07.48.01.72Z"/>
        <path class="st0" d="M24.5,32.24s.02.05.03.07c.02-.01.04-.03.06-.04h.02c.32-.24.57-.43.7-.85.05-.15.06-.36.06-.57v-.21c-.02-.25-.04-.48-.07-.7v-.1s-.04.03-.05.05h-.01c-.15.19-.32.39-.48.6l-.12.16c-.12.17-.21.34-.26.49-.13.43-.02.72.11,1.1h0Z"/>
        <path class="st0" d="M26.2,24.9l-.06-.2c-.07-.24-.16-.46-.23-.67v-.03s-.03-.05-.04-.07l-.04.08c-.1.2-.22.45-.32.68l-.07.19c-.07.2-.12.38-.13.54-.02.45.16.71.38,1.04.02.02.03.05.05.07.02-.02.03-.04.05-.06h0c.25-.31.45-.55.47-1,0-.16-.03-.36-.08-.57Z"/>
        <path class="st0" d="M25.03,17.25c0,.1-.02.2-.04.3.17-.25.3-.49.29-.86-.01-.4-.29-1.01-.49-1.45l-.02-.05s-.03.07-.04.1h0c-.08.21-.18.44-.25.67.18.2.34.4.43.59.11.23.15.46.13.7Z"/>
        <path class="st0" d="M25.09,27.67c-.14-.2-.31-.41-.45-.59-.02-.03-.05-.06-.07-.08v.06c-.07.48-.16,1.14-.05,1.53.11.37.31.56.56.77-.16-.3-.28-.58-.23-1.01.03-.2.12-.44.23-.67Z"/>
        <path class="st0" d="M25.88,23.61s.03-.06.05-.08c.2-.34.35-.61.3-1.05-.02-.16-.09-.35-.18-.55l-.08-.17c-.11-.22-.24-.45-.35-.64l-.05-.09s-.01.05-.02.07h0c-.06.23-.14.49-.2.74l-.04.19c-.04.21-.06.4-.04.56.05.45.27.67.55.96.02.02.04.04.06.06Z"/>
        <path class="st0" d="M23.92,18.66s-.06-.03-.09-.05v.06c.14.47.32,1.11.56,1.43.24.3.5.41.81.49-.26-.21-.48-.43-.6-.85-.05-.2-.06-.45-.04-.71-.21-.13-.44-.26-.64-.37Z"/>
        <path class="st0" d="M22.33,35.74l-.17.11c-.17.12-.32.25-.42.37-.27.36-.28.67-.28,1.07,0,.03,0,.06,0,.09.03,0,.06-.02.09-.03.38-.1.68-.19.95-.54.1-.13.18-.31.26-.51l.08-.22c.08-.24.13-.45.18-.66v-.03s.02-.05.03-.08l-.07.04c-.2.11-.43.24-.65.38Z"/>
        <path class="st0" d="M26.4,22.45c.03.25,0,.48-.09.71-.04.09-.08.18-.13.27.24-.19.43-.38.54-.73.11-.38.03-1.05-.03-1.53v-.06s-.05.05-.08.08h0c-.14.18-.3.37-.44.56.12.24.21.48.23.69Z"/>
        <path class="st0" d="M23.57,33.13c-.07-.24-.16-.48-.25-.7-.01-.03-.03-.07-.04-.1l-.02.05c-.21.44-.5,1.04-.52,1.44-.01.39.12.63.29.9-.06-.33-.09-.64.1-1.03.09-.19.25-.38.43-.57Z"/>
        <path class="st0" d="M25.09,22.61c-.02-.2,0-.45.06-.71-.19-.16-.4-.32-.58-.46-.03-.02-.06-.04-.09-.06v.06c.07.48.15,1.15.35,1.49.2.33.44.47.74.6-.23-.25-.42-.5-.47-.92Z"/>
        <path class="st0" d="M25.31,24.72c-.16-.19-.34-.38-.5-.55-.03-.03-.05-.05-.07-.08v.06c-.03.49-.06,1.15.08,1.53.14.36.35.54.62.72-.19-.28-.33-.56-.31-.99,0-.21.08-.44.18-.69Z"/>
        <path class="st0" d="M24.56,30.45c-.11-.22-.23-.45-.35-.65-.02-.03-.04-.06-.05-.09l-.02.05c-.14.47-.34,1.1-.3,1.5.04.39.21.61.43.85-.11-.32-.18-.62-.05-1.03.06-.2.19-.41.34-.62Z"/>
        <path class="st0" d="M17.54,40.59c.15-.06.31-.18.48-.32l.15-.14c.18-.17.35-.35.5-.51l.03-.03s.03-.03.05-.05h-.08c-.23,0-.5,0-.76.02l-.2.02c-.21.02-.4.06-.55.12-.41.18-.57.45-.77.8-.01.03-.03.05-.04.08.03,0,.05.01.08.02h.01c.38.1.69.17,1.1,0Z"/>
        <path class="st0" d="M25.17,33.33c-.21.07-.45.15-.67.23-.03.27-.09.52-.18.71-.11.23-.26.41-.46.55-.08.06-.17.11-.26.16.31-.03.57-.08.85-.33.3-.26.59-.87.8-1.3l.03-.05s-.07.02-.1.03c0,0,0,0,0,0Z"/>
        <path class="st0" d="M23.67,36.17c-.22.02-.47.05-.71.09-.09.25-.19.49-.32.66-.16.2-.34.35-.56.45-.09.04-.19.07-.29.1.31.03.57.03.9-.15.35-.2.76-.73,1.06-1.11l.04-.05s-.07,0-.11.01c0,0,0,0,0,0Z"/>
        <path class="st0" d="M21.55,38.68c-.22-.03-.47-.06-.71-.08-.15.23-.3.43-.46.56-.2.16-.41.26-.65.3-.1.02-.2.03-.3.03.29.11.55.17.91.07.39-.11.91-.53,1.29-.83l.04-.04s-.05,0-.07,0h-.04Z"/>
        <path class="st0" d="M19.55,38.14c.16-.13.39-.24.64-.33.04-.25.06-.5.08-.73v-.02s0-.06,0-.09l-.05.04c-.38.31-.9.73-1.09,1.08-.18.34-.17.62-.12.94.09-.33.2-.62.54-.89Z"/>
        <path class="st0" d="M20.64,38.59l.11-.18c.13-.21.25-.43.35-.62v-.02s.04-.05.05-.07l-.08.02c-.22.06-.48.13-.72.22l-.19.07c-.2.08-.37.16-.49.26-.35.28-.43.59-.52.97,0,.03-.01.06-.02.09.03,0,.06,0,.1,0,.39-.01.71-.02,1.05-.3.13-.1.25-.26.37-.44Z"/>
        <path class="st0" d="M26.87,24.29c-.17.15-.36.31-.53.48.07.26.12.51.11.72-.01.26-.08.47-.21.69-.05.09-.11.17-.18.25.27-.15.49-.3.66-.63.17-.36.21-1.03.23-1.51v-.06s-.08.07-.08.07Z"/>
        <path class="st0" d="M26.17,30.41c-.2.1-.42.21-.63.33,0,.27,0,.52-.07.72-.08.25-.19.44-.37.61-.07.07-.15.13-.23.2.3-.07.55-.17.79-.45.26-.31.46-.94.6-1.41l.02-.06s-.06.03-.1.05c0,0,0,0,0,0Z"/>
        <path class="st0" d="M23.71,16.27s.01.15.02.2c.03.21.07.4.13.54.19.41.47.56.82.75.03.01.05.03.08.04,0-.03.01-.06.02-.09h0c.09-.39.15-.69-.03-1.1-.07-.15-.19-.31-.33-.47-.04-.05-.1-.11-.14-.14-.17-.18-.36-.35-.52-.5l-.02-.02s-.04-.03-.06-.05v.08c0,.23.01.5.03.75Z"/>
        <path class="st0" d="M26.67,27.36c-.18.13-.38.28-.57.43.05.26.08.52.05.73-.03.25-.12.47-.27.67-.06.08-.13.16-.2.23.28-.12.51-.26.71-.57.2-.34.29-1.01.36-1.49v-.06s-.05.04-.08.06c0,0,0,0,0,0Z"/>
        <path class="st0" d="M18.87,40.6c-.21-.09-.44-.18-.66-.27-.2.18-.41.33-.6.42-.19.08-.38.12-.57.12-.05,0-.09,0-.14,0-.1,0-.2-.03-.3-.05.25.18.48.31.86.31.4,0,1.02-.27,1.47-.46l.05-.02s-.06-.03-.1-.04c0,0,0,0,0,0Z"/>
        <path class="st0" d="M17.09,39.55c.19-.08.44-.12.7-.15.1-.23.19-.47.27-.69.01-.03.03-.07.04-.1l-.05.02c-.45.19-1.06.46-1.34.75-.27.28-.33.55-.37.87.17-.29.36-.54.76-.71Z"/>
        <path class="st0" d="M21.61,36.11c.13-.16.32-.32.54-.47-.02-.25-.06-.5-.1-.73,0-.04-.01-.07-.02-.11l-.04.05c-.3.39-.7.92-.8,1.3-.09.38-.02.64.1.94,0-.34.05-.65.31-.99Z"/>
        <g>
          <path class="st0" d="M23.55,15.18c.07-.33.15-.8-.02-1.17-.16-.35-.63-.78-.97-1.1-.03-.02-.05-.05-.08-.07v.08c0,.3.03.68.06,1.01l.04.22c.02.1.05.17.08.25.18.4.45.55.78.73,0,0,.09.05.09.05Z"/>
          <path class="st0" d="M22.52,14.47c.19.42.47.6.79.77-.34.02-.63.02-.97-.2-.33-.21-.69-.75-.95-1.14l-.05-.07s.07.01.1.02c.29.05.65.11.96.21.03.15.07.29.12.41Z"/>
        </g>
      </g>
      <g>
        <path class="st0" d="M3.7,34.9s0,.04-.01.07c-.03-.01-.06-.03-.08-.04-.35-.18-.63-.32-.82-.73-.07-.15-.12-.34-.15-.56l-.03-.21c-.03-.25-.04-.48-.04-.7v-.02s0-.05,0-.08c.02.02.04.04.06.06.17.15.38.33.56.51l.14.14c.14.15.26.31.33.45.19.41.13.71.05,1.1v.02Z"/>
        <path class="st0" d="M2.03,18.22s.05-.07.08-.1c0,.03.01.07.02.11.07.47.16,1.1.06,1.48-.12.43-.36.62-.67.86-.03.02-.05.04-.08.06-.01-.03-.03-.07-.04-.1-.15-.36-.26-.64-.15-1.07.1-.37.49-.87.78-1.24Z"/>
        <path class="st0" d="M3.25,17.08c.09-.19.13-.43.16-.69.23-.1.48-.18.7-.26.03-.01.07-.02.1-.04l-.02.05c-.2.44-.48,1.05-.78,1.32-.29.26-.56.32-.89.35.3-.17.55-.35.73-.74Z"/>
        <path class="st0" d="M1.52,29.44c-.28-.28-.5-.5-.55-.94-.02-.16,0-.36.03-.57l.04-.21c.05-.24.12-.47.18-.68v-.03s.02-.05.03-.07l.04.07c.12.2.26.43.37.66l.09.18c.09.19.15.37.17.53.06.45-.1.72-.29,1.06-.01.03-.03.05-.04.08-.02-.02-.04-.04-.06-.06,0,0,0,0,0,0Z"/>
        <path class="st0" d="M1.07,20.13c.02.1.06.19.09.29-.21-.22-.38-.43-.43-.8-.06-.4.12-1.04.24-1.51v-.06s.05.06.07.09h0c.12.2.25.41.36.62-.15.22-.27.45-.33.65-.07.25-.07.48-.01.72Z"/>
        <path class="st0" d="M2.46,32.24s-.02.05-.03.07c-.02-.01-.04-.03-.06-.04h-.02c-.32-.24-.57-.43-.7-.85-.05-.15-.06-.36-.06-.57v-.21c.02-.25.04-.48.07-.7v-.1s.04.03.05.05h.01c.15.19.32.39.48.6l.12.16c.12.17.21.34.26.49.13.43.02.72-.11,1.1h0Z"/>
        <path class="st0" d="M.76,24.9l.06-.2c.07-.24.16-.46.23-.67v-.03s.03-.05.04-.07l.04.08c.1.2.22.45.32.68l.07.19c.07.2.12.38.13.54.02.45-.16.71-.38,1.04-.02.02-.03.05-.05.07-.02-.02-.03-.04-.05-.06h0c-.25-.31-.45-.55-.47-1,0-.16.03-.36.08-.57Z"/>
        <path class="st0" d="M1.92,17.25c0,.1.02.2.04.3-.17-.25-.3-.49-.29-.86.01-.4.29-1.01.49-1.45l.02-.05s.03.07.04.1h0c.08.21.18.44.25.67-.18.2-.34.4-.43.59-.11.23-.15.46-.13.7Z"/>
        <path class="st0" d="M1.87,27.67c.14-.2.31-.41.45-.59.02-.03.05-.06.07-.08v.06c.07.48.16,1.14.05,1.53-.11.37-.31.56-.56.77.16-.3.28-.58.23-1.01-.03-.2-.12-.44-.23-.67Z"/>
        <path class="st0" d="M1.07,23.61s-.03-.06-.05-.08c-.2-.34-.35-.61-.3-1.05.02-.16.09-.35.18-.55l.08-.17c.11-.22.24-.45.35-.64l.05-.09s.01.05.02.07h0c.06.23.14.49.2.74l.04.19c.04.21.06.4.04.56-.05.45-.27.67-.55.96-.02.02-.04.04-.06.06Z"/>
        <path class="st0" d="M3.04,18.66s.06-.03.09-.05v.06c-.14.47-.32,1.11-.56,1.43-.24.3-.5.41-.81.49.26-.21.48-.43.6-.85.05-.2.06-.45.04-.71.21-.13.44-.26.64-.37Z"/>
        <path class="st0" d="M4.63,35.74l.17.11c.17.12.32.25.42.37.27.36.28.67.28,1.07,0,.03,0,.06,0,.09-.03,0-.06-.02-.09-.03-.38-.1-.68-.19-.95-.54-.1-.13-.18-.31-.26-.51l-.08-.22c-.08-.24-.13-.45-.18-.66v-.03s-.02-.05-.03-.08l.07.04c.2.11.43.24.65.38Z"/>
        <path class="st0" d="M.55,22.45c-.03.25,0,.48.09.71.04.09.08.18.13.27-.24-.19-.43-.38-.54-.73-.11-.38-.03-1.05.03-1.53v-.06s.05.05.08.08h0c.14.18.3.37.44.56-.12.24-.21.48-.23.69Z"/>
        <path class="st0" d="M3.38,33.13c.07-.24.16-.48.25-.7.01-.03.03-.07.04-.1l.02.05c.21.44.5,1.04.52,1.44.01.39-.12.63-.29.9.06-.33.09-.64-.1-1.03-.09-.19-.25-.38-.43-.57Z"/>
        <path class="st0" d="M1.86,22.61c.02-.2,0-.45-.06-.71.19-.16.4-.32.58-.46.03-.02.06-.04.09-.06v.06c-.07.48-.15,1.15-.35,1.49-.2.33-.44.47-.74.6.23-.25.42-.5.47-.92Z"/>
        <path class="st0" d="M1.64,24.72c.16-.19.34-.38.5-.55.03-.03.05-.05.07-.08v.06c.03.49.06,1.15-.08,1.53-.14.36-.35.54-.62.72.19-.28.33-.56.31-.99,0-.21-.08-.44-.18-.69Z"/>
        <path class="st0" d="M2.4,30.45c.11-.22.23-.45.35-.65.02-.03.04-.06.05-.09l.02.05c.14.47.34,1.1.3,1.5-.04.39-.21.61-.43.85.11-.32.18-.62.05-1.03-.06-.2-.19-.41-.34-.62Z"/>
        <path class="st0" d="M9.41,40.59c-.15-.06-.31-.18-.48-.32l-.15-.14c-.18-.17-.35-.35-.5-.51l-.03-.03s-.03-.03-.05-.05h.08c.23,0,.5,0,.76.02l.2.02c.21.02.4.06.55.12.41.18.57.45.77.8.01.03.03.05.04.08-.03,0-.05.01-.08.02h-.01c-.38.1-.69.17-1.1,0Z"/>
        <path class="st0" d="M1.78,33.33c.21.07.45.15.67.23.03.27.09.52.18.71.11.23.26.41.46.55.08.06.17.11.26.16-.31-.03-.57-.08-.85-.33-.3-.26-.59-.87-.8-1.3l-.03-.05s.07.02.1.03c0,0,0,0,0,0Z"/>
        <path class="st0" d="M3.28,36.17c.22.02.47.05.71.09.09.25.19.49.32.66.16.2.34.35.56.45.09.04.19.07.29.1-.31.03-.57.03-.9-.15-.35-.2-.76-.73-1.06-1.11l-.04-.05s.07,0,.11.01c0,0,0,0,0,0Z"/>
        <path class="st0" d="M5.4,38.68c.22-.03.47-.06.71-.08.15.23.3.43.46.56.2.16.41.26.65.3.1.02.2.03.3.03-.29.11-.55.17-.91.07-.39-.11-.91-.53-1.29-.83l-.04-.04s.05,0,.07,0c0,0,.04,0,.04,0Z"/>
        <path class="st0" d="M7.4,38.14c-.16-.13-.39-.24-.64-.33-.04-.25-.06-.5-.08-.73v-.02s0-.06,0-.09l.05.04c.38.31.9.73,1.09,1.08.18.34.17.62.12.94-.09-.33-.2-.62-.54-.89Z"/>
        <path class="st0" d="M6.31,38.59l-.11-.18c-.13-.21-.25-.43-.35-.62v-.02s-.04-.05-.05-.07l.08.02c.22.06.48.13.72.22l.19.07c.2.08.37.16.49.26.35.28.43.59.52.97,0,.03.01.06.02.09-.03,0-.06,0-.1,0-.39-.01-.71-.02-1.05-.3-.13-.1-.25-.26-.37-.44Z"/>
        <path class="st0" d="M.09,24.29c.17.15.36.31.53.48-.07.26-.12.51-.11.72.01.26.08.47.21.69.05.09.11.17.18.25-.27-.15-.49-.3-.66-.63-.17-.36-.21-1.03-.23-1.51v-.06s.08.07.08.07Z"/>
        <path class="st0" d="M.78,30.41c.2.1.42.21.63.33,0,.27,0,.52.07.72.08.25.19.44.37.61.07.07.15.13.23.2-.3-.07-.55-.17-.79-.45-.26-.31-.46-.94-.6-1.41l-.02-.06s.06.03.1.05c0,0,0,0,0,0Z"/>
        <path class="st0" d="M3.25,16.27s-.01.15-.02.2c-.03.21-.07.4-.13.54-.19.41-.47.56-.82.75-.03.01-.05.03-.08.04,0-.03-.01-.06-.02-.09h0c-.09-.39-.15-.69.03-1.1.07-.15.19-.31.33-.47.04-.05.1-.11.14-.14.17-.18.36-.35.52-.5l.02-.02s.04-.03.06-.05v.08c0,.23-.01.5-.03.75Z"/>
        <path class="st0" d="M.28,27.36c.18.13.38.28.57.43-.05.26-.08.52-.05.73.03.25.12.47.27.67.06.08.13.16.2.23-.28-.12-.51-.26-.71-.57-.2-.34-.29-1.01-.36-1.49v-.06s.05.04.08.06c0,0,0,0,0,0Z"/>
        <path class="st0" d="M8.08,40.6c.21-.09.44-.18.66-.27.2.18.41.33.6.42.19.08.38.12.57.12.05,0,.09,0,.14,0,.1,0,.2-.03.3-.05-.25.18-.48.31-.86.31-.4,0-1.02-.27-1.47-.46l-.05-.02s.06-.03.1-.04c0,0,0,0,0,0Z"/>
        <path class="st0" d="M9.86,39.55c-.19-.08-.44-.12-.7-.15-.1-.23-.19-.47-.27-.69-.01-.03-.03-.07-.04-.1l.05.02c.45.19,1.06.46,1.34.75.27.28.33.55.37.87-.17-.29-.36-.54-.76-.71Z"/>
        <path class="st0" d="M5.35,36.11c-.13-.16-.32-.32-.54-.47.02-.25.06-.5.1-.73,0-.04.01-.07.02-.11l.04.05c.3.39.7.92.8,1.3.09.38.02.64-.1.94,0-.34-.05-.65-.31-.99Z"/>
        <path class="st0" d="M23.85,24.64c0-5.91-2.52-11-6.11-13.29l2.33.82.06.02c.18.36.4.73.63.94.36.31.7.34,1.08.36h0c.06,0,.12,0,.19.01,0,0,0,0,0,0,0,0,0,0,.01,0h0s.04-.01.05-.03c.02-.02.02-.05.02-.07-.02-.07-.03-.13-.04-.19-.08-.38-.15-.7-.51-1.01-.3-.26-.88-.45-1.34-.6-.06-.02-.12-.04-.18-.06h.04s-2.17-1.05-2.17-1.05c.04,0,.08,0,.11-.01h.05c.05,0,.1-.01.14-.02.22-.02.43-.02.62,0,.19.02.38.08.58.17.06.02.12.05.18.08l.13.06c.12.05.25.11.4.14.27.06.5.03.72,0h.09c.21-.04.43-.07.64-.05.2.02.39.08.56.17.12.07.28.02.35-.09.04-.06.05-.13.03-.2-.02-.07-.06-.13-.12-.16-.23-.14-.49-.24-.76-.28-.26-.04-.52-.02-.77,0-.1,0-.21.01-.33.01-.05,0-.1,0-.15,0-.02,0-.03,0-.05,0h-.03s-.02,0-.04-.02c-.1-.03-.23-.1-.36-.17-.07-.04-.14-.08-.21-.11-.24-.12-.5-.22-.75-.27-.21-.04-.43-.06-.66-.06-.1,0-.2,0-.3,0h-.03s-.09,0-.14,0c-.13,0-.22,0-.31-.01-.06,0-.13-.01-.19-.03l5.15-.21c.12,0,.19-.1.19-.19,0-.09-.06-.19-.18-.2l-4.69-.31s.1-.04.15-.07c.06-.03.13-.06.19-.09.05-.02.09-.05.14-.07.2-.1.39-.17.58-.21.19-.05.39-.06.6-.05.06,0,.13,0,.21.01h.04s.06,0,.1,0c.13,0,.27.01.42-.01.27-.05.48-.15.67-.26l.08-.04c.19-.1.38-.21.58-.26.19-.05.39-.07.59-.04.14.02.27-.08.29-.21.01-.07,0-.14-.04-.2s-.1-.1-.17-.11c-.27-.05-.55-.05-.81.01-.26.06-.5.16-.72.27-.09.04-.2.09-.3.13-.05.02-.09.03-.15.05-.02,0-.03,0-.05.01h-.02s-.02,0-.04,0c-.11.01-.25,0-.39-.03-.07-.01-.16-.02-.24-.03-.27-.03-.55-.02-.8.02-.25.04-.5.12-.75.22-.05.02-.1.04-.16.06h-.02s-.09.05-.14.07c-.04.02-.08.03-.12.04l4.3-2.14c.11-.05.13-.17.09-.25-.04-.08-.13-.15-.25-.11l-4.39,1.62s.09-.09.14-.15c.04-.05.09-.1.14-.16l.03-.03s.05-.06.07-.08c.14-.17.29-.31.45-.42.16-.12.33-.21.53-.28.06-.02.12-.04.17-.06h.02s.08-.04.12-.05c.12-.04.25-.09.39-.18.23-.15.38-.33.52-.5h.01s.03-.05.05-.07c.13-.17.27-.34.43-.47.15-.12.33-.21.52-.27.13-.04.22-.17.19-.31-.02-.07-.06-.13-.12-.17-.06-.04-.13-.05-.2-.04-.27.06-.52.17-.74.33-.21.15-.39.35-.56.53-.07.08-.15.16-.22.24-.04.04-.07.07-.11.1-.01.01-.03.02-.04.03,0,0-.01,0-.01,0-.01,0-.02.01-.04.02-.09.05-.23.09-.37.13-.08.02-.15.04-.23.07-.26.08-.51.19-.73.33-.21.13-.41.3-.61.5-.04.04-.08.08-.12.12-.04.04-.08.08-.12.12-.03.03-.06.06-.09.09l3.13-3.65c.08-.09.05-.2-.02-.27-.06-.06-.18-.08-.27,0l-3.4,3.21c.02-.06.05-.12.07-.2.02-.05.03-.1.05-.15l.02-.05c.02-.05.03-.1.05-.15.07-.21.15-.4.25-.56.1-.17.22-.32.38-.47.04-.04.08-.07.12-.11l.04-.04s.06-.05.09-.08c.09-.08.2-.18.29-.31.16-.23.22-.46.28-.66l.02-.09c.06-.2.12-.42.21-.6.09-.17.22-.33.38-.45.11-.09.13-.25.05-.36-.04-.06-.1-.1-.17-.11-.07-.01-.14,0-.2.05-.22.16-.41.36-.55.59-.14.23-.23.47-.3.7-.03.1-.07.21-.11.31-.02.05-.04.09-.07.14,0,.01-.01.02-.02.04l-.02.02s-.01.02-.02.03c-.07.08-.18.17-.29.26-.06.05-.12.1-.19.15-.21.17-.4.38-.54.59-.14.2-.26.44-.36.7l-.08.2s-.03.08-.05.12c-.04.1-.08.18-.11.25l1.65-4.68c.04-.11-.03-.21-.11-.25-.08-.03-.2-.01-.25.1l-1.91,4s0-.1-.01-.15c0-.05,0-.1-.01-.15-.02-.22-.02-.43,0-.62.03-.19.08-.38.17-.58.03-.06.05-.12.08-.19.02-.04.04-.08.06-.13.05-.12.11-.25.14-.4.06-.27.03-.5,0-.73v-.08c-.04-.21-.07-.43-.05-.64.02-.2.08-.39.17-.56.06-.12.02-.28-.09-.35-.06-.04-.13-.05-.2-.03-.07.02-.13.06-.16.12-.14.23-.24.49-.28.76-.04.26-.02.52,0,.77,0,.12.01.23.01.33,0,.05,0,.1,0,.15,0,.02,0,.03,0,.05v.02s0,.02-.02.04c-.03.1-.09.22-.17.35-.04.07-.08.14-.11.21-.12.24-.22.5-.27.75-.05.24-.07.51-.06.78v.18c0,.06,0,.11,0,.16,0,.13,0,.23-.01.31,0,.03,0,.05,0,.08l-.3-4.99c-.02-.24-.38-.24-.39,0l-.22,4.67c-.02-.06-.05-.12-.08-.19-.03-.06-.05-.11-.09-.18l-.02-.04s-.04-.07-.05-.11c-.1-.2-.17-.39-.21-.58-.05-.19-.06-.39-.05-.6,0-.06,0-.13.01-.2v-.15c.02-.13.02-.27,0-.42-.05-.27-.15-.47-.26-.67-.02-.03-.03-.05-.04-.08-.11-.19-.21-.38-.26-.58-.05-.19-.07-.39-.04-.59.02-.14-.08-.27-.21-.29-.07-.01-.14,0-.2.04-.06.04-.1.1-.11.17-.05.26-.05.54.01.81.06.26.17.5.27.72.05.1.09.2.13.3.02.05.03.1.05.15,0,.01,0,.03,0,.04v.03s0,.02,0,.04c.01.11,0,.24-.03.4-.01.08-.02.16-.03.24-.03.27-.02.55.02.8.04.25.12.5.22.75.02.06.04.11.06.15v.02s.05.1.07.15c.02.04.03.08.04.12L10.08.8c-.05-.11-.17-.13-.25-.09-.08.04-.15.13-.11.25l1.62,4.39s-.1-.09-.15-.14c-.05-.04-.1-.09-.15-.13h-.02s-.07-.08-.11-.11c-.17-.14-.31-.29-.42-.45-.12-.16-.21-.33-.28-.53-.02-.05-.04-.1-.06-.15v-.04s-.04-.09-.06-.13c-.04-.12-.09-.25-.18-.39-.15-.23-.33-.38-.5-.52l-.07-.06c-.17-.13-.34-.27-.47-.43-.12-.15-.21-.33-.27-.52-.04-.13-.18-.22-.31-.19-.07.01-.13.06-.17.12-.04.06-.05.13-.04.2.06.26.17.52.33.74.16.22.35.39.53.56.08.07.17.15.24.23.03.04.07.07.1.11,0,.01.02.02.03.04v.02s.03.02.03.04c.05.09.09.23.13.38.02.07.04.15.07.23.08.26.19.51.33.73.13.21.3.41.5.61.04.04.08.08.11.11h.01c.04.05.08.09.12.13.03.03.06.06.09.09l-3.65-3.13c-.09-.08-.21-.05-.27.02-.06.06-.08.18,0,.27l3.21,3.4c-.06-.02-.12-.05-.2-.07-.05-.02-.1-.03-.15-.05l-.07-.02s-.08-.03-.11-.04c-.21-.07-.4-.15-.56-.25-.17-.1-.32-.22-.47-.38-.04-.04-.08-.09-.12-.13l-.11-.12c-.09-.1-.19-.2-.31-.29-.23-.16-.45-.22-.67-.28l-.08-.02c-.2-.05-.42-.12-.6-.21-.17-.09-.33-.22-.45-.38-.09-.11-.24-.13-.36-.05-.06.04-.1.1-.11.17-.01.07,0,.14.04.2.16.22.36.41.59.55.23.14.47.23.7.31.09.03.21.07.31.11.05.02.09.04.14.07.02,0,.03.02.04.03h.02s.02.02.04.04c.09.07.17.18.26.29.05.06.1.13.15.19.17.21.38.4.59.54.21.14.44.26.7.36.06.02.11.04.17.07.05.02.1.04.15.06.1.04.18.08.24.11l-4.67-1.65c-.11-.04-.21.03-.25.11-.03.08-.01.2.1.25l4,1.91s-.08,0-.12.01h-.04c-.05,0-.1.01-.15.02-.22.02-.43.02-.62,0-.19-.03-.38-.08-.58-.17-.06-.02-.11-.05-.17-.08h-.02s-.08-.05-.12-.06c-.12-.05-.25-.11-.4-.14-.27-.06-.51-.03-.72,0h-.09c-.2.04-.42.07-.64.05-.2-.02-.39-.08-.56-.17-.12-.06-.28-.02-.35.09-.04.06-.05.13-.03.2s.06.13.12.16c.23.14.49.24.76.28.26.04.52.02.77,0,.1,0,.22-.01.33-.01.05,0,.1,0,.15,0,.02,0,.03,0,.05,0h.03s.02,0,.04.01c.1.03.23.1.36.17h.02c.06.04.13.08.19.11.24.12.5.22.75.27.21.04.43.06.66.06.1,0,.2,0,.3,0,.06,0,.11,0,.17,0,.13,0,.23,0,.31.01.03,0,.06,0,.08,0l-4.99.3c-.12,0-.18.11-.18.2,0,.09.06.19.19.19l4.67.22c-.06.02-.12.05-.19.08-.06.03-.13.06-.19.09-.05.02-.09.05-.14.07-.2.1-.39.17-.58.21-.19.05-.39.06-.6.05-.06,0-.12,0-.18-.01h-.05s-.08,0-.12-.01c-.13,0-.27-.01-.42.01-.28.05-.48.15-.68.26l-.07.04c-.18.1-.38.21-.58.26-.19.05-.39.07-.59.04-.14-.02-.27.08-.29.21-.01.07,0,.14.04.2.04.06.1.1.17.11.27.05.54.05.81-.01.26-.06.5-.16.72-.27.09-.04.2-.09.3-.13.05-.02.09-.03.14-.05.02,0,.03,0,.06-.01h.02s.02,0,.04,0c.1,0,.24,0,.39.03.08.01.16.02.24.03.27.03.55.02.8-.02.24-.04.5-.12.75-.22.05-.02.09-.04.15-.06h.02c.05-.03.1-.05.15-.07.04-.02.08-.03.12-.04l-2.3,1.14s-.03-.02-.04-.01c-.08.03-.18.06-.28.09-.46.15-1.03.33-1.34.6-.36.31-.43.64-.51,1.01-.01.06-.03.13-.04.19,0,.03,0,.05.02.07.01.01.03.02.05.03h0s0,0,.01,0c0,0,0,0,0,0,.06,0,.13,0,.19-.01h0c.39-.03.72-.05,1.08-.36.21-.18.4-.51.58-.83.18-.07,2.01-.75,2.35-.87-3.54,2.32-6,7.36-6,13.21,0,2.62.5,5.07,1.36,7.2.13.35.21.55.28.64,1.84,4.05,5.06,6.75,8.73,6.75s6.89-2.7,8.73-6.75c0,0,.01,0,.01,0,.06,0,.06,0,.13-.21.03-.08.06-.2.12-.37h0c.88-2.14,1.39-4.62,1.39-7.26ZM15.57,28.95c-.1-.07-.15-.06-.21,0l-.07.07s-.03.06,0,.09l.06.07s.17.16.49.46l.07.06c.3.28.35.32.35.33.14.15.14.3.08.38-.07.08-.24.12-.49-.03-.09-.06-.17-.11-.25-.17l-.05-.04s0,0,0,0c-.07-.06-.21-.18-.35-.31l-.11-.09c-.29-.26-.43-.38-.51-.44,0,0-.01-.01-.02-.01-.07-.05-.11-.04-.17-.02-.05.02-.08.07-.09.12,0,.05,0,.1.05.14,0,0,.06.05.64.6l.34.32c.14.15.14.3.08.38-.07.08-.24.12-.49-.03-.02-.01-.03-.02-.05-.03-.06-.03-.14-.07-.4-.28-.34-.28-.53-.42-.57-.42-.07,0-.13.03-.15.09-.01.02-.02.05-.02.07-.02.03-.02.05.02.09h0s0,0,0,0c.01.01.03.03.05.05l.24.22c.14.13.19.19.21.21,0,0,.01.01.01.02.15.17.07.29.04.33-.07.08-.23.1-.44-.03-.05-.03-.13-.08-.22-.15.07-.11.11-.22.1-.32,0-.09-.04-.26-.27-.37-.14-.07-.28-.08-.42-.04-.02-.12-.09-.28-.34-.38-.11-.04-.22-.05-.33-.04-.02-.13-.1-.32-.38-.42-.19-.08-.39-.07-.58.03-.01-.08-.04-.16-.09-.23-.15-.24-.33-.26-.44-.26-.27.01-.54.28-.78.73-.45.15-1.82.83-1.86.87-.41.2-.79.39-1.13.56-1.06.52-1.82.9-2.2,1.05-.17-.39-.33-.78-.47-1.19-.28-.96-.58-2.18-.6-2.5.49-.04,3.77-.3,4.75-.61,1.1-.36,3.32-.95,3.71-.99.17-.01.6,0,.93.06-.05.04-.1.08-.15.12l-.04.03c-.24.18-.51.39-.67.46-.43.18-.67.32-.75.51-.08.18,0,.38.2.53.19.13.89.07,1.25-.04.19-.06.36-.16.53-.26.21-.12.42-.25.65-.28.38-.05,1.68.58,1.94.82.05.04.12.12.22.21l.02.02c.18.17.42.4.69.65,0,0,0,0,0,0,.14.15.07.25.03.29-.1.1-.3.12-.5-.06-.02-.02-.07-.07-.15-.13l-.16-.15c-.43-.39-.64-.58-.75-.66-.02-.02-.04-.03-.04-.03h0ZM11.01,30.36s.03-.04.05-.07l.02-.03c.18-.25.39-.53.64-.55.01,0,.02,0,.03,0,.05,0,.09,0,.14.03.15.06.16.13.16.15,0,.02,0,.06-.01.11-.19.14-.33.35-.42.47-.02.03-.04.05-.05.07-.02.03-.04.05-.06.08l-.06.04c-.24.18-.42.16-.49.08-.07-.07-.08-.22.05-.39ZM10.81,30.07s-.04.06-.06.09c-.03.04-.06.08-.08.13-.12.11-.23.12-.29.08-.08-.05-.13-.2,0-.44.23-.47.45-.64.57-.65h0s.08,0,.15.11c.03.04.04.09.05.14,0,.05,0,.1-.02.16-.13.13-.23.27-.3.37ZM11.83,30.73s.03-.04.05-.07v-.02c.19-.24.37-.47.58-.49.01,0,.02,0,.03,0,.04,0,.08,0,.12.02.12.05.14.1.14.13,0,.04,0,.1-.04.16-.1.09-.18.18-.23.24l-.06.06s-.07.09-.1.13c-.03.03-.07.06-.11.09-.21.16-.37.14-.43.08-.06-.06-.07-.19.04-.34ZM12.64,30.97s.02-.03.04-.04l.02-.03c.17-.19.35-.37.52-.37.04,0,.08,0,.13.03.1.05.11.1.11.12,0,.08-.1.29-.51.54-.18.11-.32.1-.37.03-.05-.05-.04-.16.06-.28ZM12.97,16.02s-.04-.01-.09-.01c-.35,0-1.56.28-1.86.66-.09.11-.31.36-.52.36,0,0,0,0-.01,0-.1,0-.18-.07-.25-.17-.08-.2-.07-.42.03-.65.05-.12.12-.21.21-.27.41-.31.91-.67,1.44-.94.36-.18.66-.29.97-.35.6-.11,1.43,0,2.55,1.91.12.21.23.45.32.66.05.12.1.23.15.32-.41-.11-1.09-.13-1.46-.1-.45.04-.87.21-1.31.39-.22.09-.45.18-.69.25-.12.04-.24.08-.35.11-.35.1-.69.19-.64.55l.02.13.09-.09c.18-.18.53-.29.81-.38l.12-.04c.21-.07.36-.12.5-.18.25-.09.45-.17.83-.26,1.07-.26,1.87-.22,2.4.1.02,0,.04.02.06.04.25.38.41.8.46,1.24.02.18.01.32-.02.45-.02.05-.04.08-.06.1-.02,0-.05,0-.08-.01-.23-.1-.46-.16-.71-.21-.44-.1-.8-.17-1.06-.21-.34-.05-.84-.07-1.34-.06-.66.02-1.01.1-1.68.32-.21.07-.46.17-.69.25l-.17.07c-.08.03-.14.04-.2.03-.09,0-.15-.06-.19-.14-.05-.12-.07-.24-.09-.38-.03-.26-.04-.47,0-.67.02-.15.06-.28.13-.39l.52-.91.02-.04s.04-.06.05-.09c.05-.11.13-.33.17-.46.11-.38.81-.58,1.28-.71.13-.04.25-.07.34-.1l.11-.04-.09-.07ZM16.07,20.05c-.85.28-1.56.44-2.22.49v-.8h.02c.71,0,1.44.11,2.2.31ZM13.08,19.78v.76c-.54-.03-1.1-.14-1.74-.33.56-.22,1.15-.37,1.74-.44ZM16.65,28.79l-.06-.06c-.06-.06-.12-.11-.16-.15-.28-.26-1.66-.97-2.2-.9-.29.04-.54.18-.78.32-.16.09-.3.17-.45.22-.39.12-.9.11-.96.09-.05-.04-.11-.1-.1-.14.03-.07.23-.19.59-.34.19-.08.47-.3.74-.51h.02c.2-.17.43-.34.53-.38.22-.09.72-.1.99-.07.39.03,2.6.62,3.71.99,1,.33,3.89.55,4.69.61-.25,1.27-.62,2.46-1.09,3.56-.67-.19-3.11-1.25-3.71-1.7-.12-.09-.25-.19-.38-.31-.51-.43-1.05-.94-1.37-1.24ZM23.25,28.15c-.77-.06-3.7-.29-4.65-.6-1.14-.37-3.37-.96-3.78-1-.24-.02-.67-.02-.97.05v-2.16h9.71c0,.06,0,.13,0,.19,0,1.21-.12,2.39-.32,3.51ZM19.1,5.16h-.01s-.02-.02-.02-.02l.03.02ZM14.64,2.28h0s-.03,0-.03,0h.04ZM9.57,6.42h0s-.01.04-.01.04v-.04ZM9.4,6.94s0,0,0,0v-.03s0,.04,0,.04ZM6.92,12s.04-.09.06-.13c.01-.03.03-.05.04-.08.15-.07,2.9-1.44,2.9-1.44l.05-.02-.03-.09s-.02-.07-.03-.1l-.02-.09h-.09s-.02,0-.03,0c-.1,0-.2.03-.31.06-.09.03-.19.06-.32.11-.05.02-.1.04-.17.07-.05.02-.1.04-.15.06-.24.1-.48.17-.71.21-.23.04-.49.05-.74.02-.08,0-.16-.02-.24-.03-.16-.02-.3-.04-.43-.03-.03,0-.05,0-.07,0h-.02s-.05.01-.07.02c-.05.01-.1.03-.16.05-.1.04-.21.09-.32.14-.21.1-.43.2-.67.25-.24.05-.48.05-.72,0-.01,0-.02,0-.02-.02,0,0,0-.02,0-.03,0-.02.02-.04.04-.03.23.03.46.01.68-.05.22-.06.43-.18.62-.28l.08-.04c.18-.1.36-.19.6-.23.13-.02.25-.02.37,0,.05,0,.09,0,.14,0h.02c.07,0,.13.01.19.01.23.01.45,0,.66-.06.2-.05.41-.12.62-.23.04-.02.08-.04.12-.06h.03c.06-.04.12-.07.18-.1.13-.06.24-.1.34-.14.13-.05.25-.08.37-.1l.1-.02v-.1s-.01-.04-.01-.04v-.1s-4.79-.23-4.79-.23l4.74-.28h.05s.01-.1.01-.1c0-.04.01-.08.02-.12v-.04s-.03-.05-.03-.05l-.02-.02h-.02s-.06-.04-.11-.05c-.1-.03-.2-.05-.31-.05-.09,0-.2-.01-.33-.01-.05,0-.1,0-.15,0h-.03c-.05,0-.11,0-.17,0-.26,0-.51-.01-.74-.06-.23-.04-.47-.13-.7-.25-.07-.03-.13-.07-.19-.1h-.02c-.14-.09-.27-.16-.39-.19-.02,0-.05-.01-.07-.02h-.03s-.05-.01-.07-.02c-.05,0-.1,0-.17,0-.12,0-.24,0-.34.02-.23.02-.48.03-.72,0-.24-.04-.47-.12-.67-.25,0,0-.01-.01-.02-.02,0,0,0-.02,0-.03,0-.02.03-.02.05-.01.21.11.42.17.65.2.23.02.47,0,.68-.04h.09c.2-.04.41-.06.64-.01.13.03.24.08.35.13l.14.07c.06.03.12.05.17.08.22.09.43.15.64.18.2.03.43.03.67,0,.05,0,.1,0,.15-.01h.02c.06,0,.12-.01.18-.02.14,0,.26,0,.37,0l.57.02-4.39-2.09,4.55,1.6.05.02.14-.25-.05-.06s-.04-.05-.08-.07c-.08-.06-.17-.12-.26-.17-.08-.04-.18-.09-.3-.14-.05-.02-.1-.04-.16-.06h-.02s-.09-.04-.14-.06c-.24-.09-.46-.21-.65-.34-.19-.13-.38-.3-.54-.5-.05-.06-.1-.13-.15-.18-.1-.13-.19-.24-.29-.33-.02-.02-.04-.03-.06-.04h-.02s-.04-.04-.06-.05c-.05-.03-.11-.05-.15-.07-.11-.04-.22-.09-.33-.12-.22-.07-.45-.16-.66-.28-.2-.13-.38-.3-.52-.49-.01-.02,0-.04,0-.05.02-.01.04,0,.05,0,.15.18.32.33.52.44.21.11.43.17.65.23l.09.02c.19.05.4.11.6.25.11.08.19.17.27.25l.09.1c.05.06.1.11.15.16.16.17.33.31.52.42.18.11.38.2.61.27.04.01.09.03.14.04h.02c.06.02.12.04.18.06.14.05.24.09.34.14.12.06.23.12.34.19,0,0,.02.01.03.02l.09.07.14-.17-3.32-3.52,3.64,3.12.04.04.21-.17-.03-.08s-.02-.06-.04-.08c-.05-.09-.11-.18-.18-.26-.06-.08-.13-.16-.22-.25-.04-.04-.08-.09-.13-.13l-.02-.02s-.06-.06-.1-.1c-.19-.18-.34-.37-.47-.57-.13-.2-.23-.43-.31-.67-.02-.08-.05-.16-.07-.23-.04-.15-.08-.3-.14-.41-.01-.02-.02-.04-.04-.06v-.02s-.04-.04-.05-.06c-.04-.05-.08-.09-.11-.13-.08-.08-.17-.16-.25-.24-.17-.15-.35-.32-.49-.52-.14-.2-.24-.42-.29-.66,0,0,0-.02,0-.03,0,0,.02-.02.02-.02.02,0,.04,0,.04.03.06.22.17.43.31.6.15.18.33.33.5.46l.07.06c.16.13.32.26.45.46.07.11.11.23.15.34l.04.12v.02c.03.06.05.13.07.19.08.22.18.41.31.59.12.17.28.33.46.48.03.03.07.06.12.1h.01c.04.05.09.09.14.13.11.1.19.18.26.26.09.1.17.2.24.31l.07.12.2-.11-1.67-4.52,2.12,4.27.02.05.1-.03s.06-.02.09-.03l.08-.02v-.09s0-.04,0-.05c0-.1-.03-.21-.06-.31-.03-.1-.06-.2-.11-.32-.02-.05-.04-.1-.06-.15v-.03s-.05-.09-.07-.14c-.1-.24-.17-.48-.21-.71-.04-.23-.05-.49-.02-.74,0-.08.02-.16.03-.23.02-.16.04-.31.03-.44,0-.03,0-.05,0-.07v-.02s-.01-.05-.02-.07c-.01-.05-.03-.1-.05-.16-.04-.11-.09-.21-.14-.32-.1-.21-.2-.43-.25-.67-.05-.23-.05-.48,0-.72,0-.01,0-.02.02-.02,0,0,.02,0,.03,0,.02,0,.03.02.03.04-.03.23-.01.46.05.68.06.22.18.43.28.62l.04.08c.1.18.19.36.23.6.02.13.02.25,0,.37,0,.05,0,.09,0,.14,0,.07-.01.15-.01.21-.01.23,0,.45.06.66.05.2.12.41.23.62.02.04.04.07.06.11v.03c.04.06.07.12.1.18.06.13.1.24.14.34.05.13.08.25.1.38l.02.11h.09s.03-.01.03-.01h.1s.23-4.8.23-4.8l.28,4.74v.05s.1,0,.1,0c.04,0,.09,0,.13.02h.08s.04-.06.04-.06c.02-.04.03-.07.04-.11.03-.1.04-.2.05-.31,0-.09.01-.2.01-.33,0-.06,0-.11,0-.19,0-.05,0-.1,0-.16,0-.26.01-.51.06-.74.05-.23.13-.47.25-.7.04-.07.08-.14.11-.21.08-.14.15-.27.18-.39,0-.02.01-.05.02-.07v-.03s.01-.04.02-.07c0-.05,0-.1,0-.17,0-.12,0-.24-.02-.35-.02-.23-.03-.47,0-.72.04-.24.12-.47.25-.67,0,0,.01-.01.02-.02.01,0,.02,0,.03,0,.02.01.02.03.01.05-.11.2-.17.42-.2.65-.02.23,0,.46.04.68v.09c.04.2.06.41.01.64-.03.13-.07.24-.13.35-.02.04-.04.08-.06.13v.03c-.04.05-.06.11-.08.16-.09.21-.15.42-.18.64-.03.21-.03.43,0,.67v.16c.02.07.03.14.03.2,0,.15.01.26,0,.37l-.02.58,2.09-4.39-1.59,4.52-.02.05.09.05s.07.04.11.06l.07.04.06-.06s.03-.04.05-.05c.06-.08.12-.17.17-.26.04-.08.09-.18.14-.3.02-.05.04-.1.06-.16l.02-.05s.03-.07.05-.11c.09-.24.21-.46.34-.65.13-.2.3-.38.5-.54.06-.05.12-.1.18-.15.12-.09.24-.19.32-.29.02-.02.03-.04.04-.06v-.02s.04-.04.05-.06c.03-.05.05-.1.07-.15.05-.11.09-.22.12-.32.07-.22.16-.45.28-.66.13-.2.3-.38.49-.52,0,0,.02-.01.03,0,0,0,.02,0,.02.02.01.02,0,.04,0,.05-.18.15-.33.32-.44.52-.11.2-.17.43-.23.64l-.02.09c-.06.2-.11.4-.25.6-.07.11-.17.19-.25.27l-.1.09s-.11.09-.16.14c-.17.16-.31.33-.42.52-.11.18-.2.38-.27.61-.01.04-.03.08-.04.13l-.02.05c-.02.05-.03.1-.05.15-.05.14-.09.25-.14.34-.06.12-.12.23-.2.35l-.07.09.18.14,3.5-3.3-3.09,3.61-.04.04.06.07s.05.06.07.08l.06.07.08-.04s.02-.01.03-.01c.09-.05.18-.11.26-.18.08-.06.15-.13.25-.22.04-.03.07-.07.1-.1l.03-.03s.07-.08.12-.12c.18-.19.37-.35.57-.47.2-.13.43-.23.67-.31.08-.02.16-.05.23-.07.15-.04.3-.08.41-.14.02,0,.04-.02.06-.04h.01s.04-.04.06-.05c.04-.03.08-.07.13-.11.08-.08.17-.17.24-.25.16-.18.32-.35.52-.49.19-.14.42-.24.66-.29,0,0,.02,0,.03,0,0,0,.01.01.02.02,0,.02,0,.04-.03.04-.22.06-.43.17-.61.31-.18.15-.33.33-.46.5l-.06.07c-.13.16-.26.32-.46.45-.11.07-.23.11-.34.15l-.13.04c-.07.02-.14.05-.2.07-.22.08-.41.18-.59.31-.17.12-.33.28-.48.46-.03.03-.06.07-.09.1l-.03.04s-.07.08-.11.12c-.1.11-.18.19-.26.26-.09.09-.19.16-.29.23l-.09.06.05.1v.02s.06.09.06.09l4.48-1.66-4.23,2.1-.05.02.03.09s.02.08.03.12l.03.09h.09c.1-.02.2-.04.29-.07.09-.02.19-.06.32-.11.06-.02.11-.04.17-.07h.02s.08-.04.13-.06c.24-.1.48-.17.71-.21.23-.04.49-.05.74-.02.08,0,.15.02.24.03.16.02.3.04.43.03.03,0,.05,0,.07,0h.02s.05-.01.07-.02c.05-.01.1-.03.16-.05.11-.04.22-.09.32-.14.22-.1.44-.2.67-.25.23-.05.48-.05.72,0,.01,0,.02,0,.02.02s0,.02,0,.03c0,.02-.02.04-.04.03-.23-.03-.46-.01-.68.05-.22.06-.43.17-.62.28l-.08.04c-.18.1-.36.19-.6.23-.13.02-.26.01-.37,0h-.14c-.07-.02-.14-.02-.21-.02-.23-.01-.45,0-.66.06-.2.05-.41.12-.62.23-.04.02-.09.04-.15.07l-.04.02s-.09.05-.14.07c-.13.06-.24.1-.34.14-.11.04-.22.07-.32.09l-.1.02v.1s0,0,0,0l.02.1,4.79.32-4.73.19h-.06s0,.1,0,.1c0,.06-.01.12-.02.18v.09s.07.03.07.03c.01,0,.03,0,.04.01.1.03.2.05.31.05.09,0,.2.01.33.01.06,0,.12,0,.18,0h.02s.09,0,.15,0c.26-.01.51,0,.74.06.23.05.47.13.7.25.07.03.13.07.21.11.14.08.27.15.4.18.03,0,.05.01.07.02h.02s.05.01.08.02c.05,0,.11,0,.16,0h.02c.12,0,.24,0,.34-.01.23-.02.48-.03.72,0,.24.04.47.12.67.25,0,0,.01.01.02.02,0,0,0,.02,0,.03,0,.02-.03.02-.05.01-.2-.11-.42-.17-.65-.2-.23-.02-.46,0-.68.04h-.09c-.2.04-.41.06-.64.01-.13-.03-.24-.08-.35-.13-.04-.02-.08-.04-.12-.06-.06-.03-.13-.06-.19-.09-.21-.09-.42-.15-.64-.18-.21-.03-.43-.03-.67,0-.04,0-.08,0-.12.01h-.04c-.06,0-.13.02-.19.02-.15,0-.26.01-.37,0l-.58-.02,2.92,1.39.06.03c.03.06.06.12.09.18,0,0,0,.02.01.03l-3.71-1.3.03.02c-.9-.36-1.84-.56-2.82-.56-1.08,0-2.12.23-3.1.67h0s-3.47,1.28-3.47,1.28ZM11.61,5.81h.01s0,.03,0,.03c0-.01-.01-.02-.02-.03ZM14.63,5.14h0s-.03,0-.03,0h.03ZM17.52,10.42h0s0,0,0,0c0,0,.01,0,.02,0ZM13.49,10.33c5.42,0,9.85,6.1,10.07,13.72h-9.7v-3.17h.04c.35-.02.71-.07,1.06-.14.57-.11,1.15-.28,1.77-.53.16-.07.27-.19.32-.36.05-.16.06-.34.04-.57-.04-.37-.14-.74-.32-1.08l-.03-.05c-.45-.88-1.26-2.43-1.67-2.92,0-.01-.97-1.17-2.03-.98-.3.03-.61.11-.95.26-.58.25-1.14.6-1.84,1.14-.35.28-.51.83-.36,1.28.08.24.22.39.42.45.16.05.33.01.51-.1h.02s.01-.02.01-.02c0,0,0,.02-.02.02,0,0-.01.02-.02.03l-.15.26c-.14.24-.27.47-.4.72-.05.09-.09.2-.13.33-.06.22-.08.46-.05.78.02.21.04.39.1.58.08.22.2.35.38.41h.03s.04.02.06.03c.66.24,1.34.39,2.01.46.12.01.25.02.39.03v3.17H3.42c.22-7.61,4.64-13.72,10.07-13.72ZM3.41,24.44h9.67v2.14c-.31-.03-.63-.05-.79-.04-.41.04-2.63.63-3.78,1-1.03.34-4.33.58-4.79.61-.2-1.13-.32-2.3-.32-3.52,0-.07,0-.13,0-.19ZM13.49,38.94c-3.51,0-6.6-2.55-8.41-6.42.53-.23,2.31-1.06,3.29-1.62.48-.27,1.26-.68,1.62-.81,0,.05-.01.1,0,.14.02.16.09.3.22.38.11.07.25.09.39.06.02.12.07.22.15.3.12.12.29.17.46.16.08,0,.17-.03.25-.07.02.08.06.16.12.22.1.11.26.15.42.14.1,0,.2-.04.31-.1.02.04.04.08.06.11.15.19.46.21.73.05v4.39c0,.21.17.38.38.38s.39-.17.39-.38v-4.39c.28.12.56.07.72-.11.08-.1.13-.22.13-.33.03.02.05.04.05.04.43.27.76.15.91-.04.08-.1.12-.22.11-.36.39.19.68.08.82-.09.07-.08.1-.18.11-.29.29.12.56.04.7-.11.05-.05.08-.12.11-.18.1.09.2.17.3.26.14.12.27.22.4.32.56.42,2.84,1.51,3.74,1.81-1.8,3.93-4.92,6.54-8.46,6.54Z"/>
        <g>
          <path class="st0" d="M3.4,15.18c-.07-.33-.15-.8.02-1.17.16-.35.63-.78.97-1.1.03-.02.05-.05.08-.07v.08c0,.3-.03.68-.06,1.01l-.04.22c-.02.1-.05.17-.08.25-.18.4-.45.55-.78.73,0,0-.09.05-.09.05Z"/>
          <path class="st0" d="M4.55,14.06c.31-.09.67-.16.96-.21.03,0,.07-.01.1-.02l-.05.07c-.26.39-.62.93-.95,1.14-.34.22-.63.22-.97.2.32-.18.6-.35.79-.77.05-.12.09-.25.12-.41Z"/>
        </g>
      </g>
    </g>
  </g>
</svg>