<?xml version="1.0" encoding="utf-8"?>
<!-- Generator: Adobe Illustrator 24.0.2, SVG Export Plug-In . SVG Version: 6.00 Build 0)  -->
<svg version="1.1" id="Layer_1" xmlns="http://www.w3.org/2000/svg" xmlns:xlink="http://www.w3.org/1999/xlink" x="0px" y="0px"
	 viewBox="0 0 135.2 46.9" style="enable-background:new 0 0 135.2 46.9;" xml:space="preserve">
<style type="text/css">
	.st0{fill:#FFFFFF;}
</style>
<g>
	<g>
		<g>
			<g>
				<path class="st0" d="M15.8,6.1L15.8,6.1L15.8,6.1C16.2,6,16.6,6,17,6c1.1,0,1.2,0.4,1.3,0.4c0,0,0,0.1,0.1,0.1c0,0,0,0,0.1,0
					c0,0,0.1,0,0.1,0c0,0,0-0.1,0-0.1c0,0-0.3-0.7-1.4-0.8c0,0-0.6-0.1-1.2,0c-0.2,0-0.2,0.4-0.2,0.4c0,0,0,0.1,0,0.1
					C15.7,6.1,15.8,6.1,15.8,6.1"/>
				<path class="st0" d="M14,6.5L14,6.5c-0.3-0.1-0.8-0.1-0.8-0.1c-0.9,0-1.2,0.6-1.2,0.6c0,0.1,0,0.1,0,0.1c0,0,0.1,0,0.1,0
					c0.2,0,0.2-0.1,0.2-0.1c0,0,0.1-0.2,0.5-0.3c0,0,0,0,0,0c0,0,0,0,0,0c0,0.1,0,0.1,0,0.2c0,0.3,0.2,0.5,0.5,0.5
					c0.3,0,0.5-0.2,0.5-0.5c0-0.1,0-0.1,0-0.2c0,0,0,0,0,0c0,0,0,0,0,0C13.8,6.9,13.9,7,14,7.2c0,0.1,0.1,0.1,0.3,0.1
					c0,0,0.1,0,0.1,0c0,0,0-0.1,0-0.1C14.3,6.7,14,6.5,14,6.5"/>
				<path class="st0" d="M15.8,7.3c0.2,0,0.2,0,0.3-0.1c0.1-0.2,0.2-0.3,0.4-0.3c0,0,0,0,0,0c0,0,0,0,0,0c0,0.1,0,0.1,0,0.2
					c0,0.3,0.2,0.5,0.5,0.5c0.3,0,0.5-0.2,0.5-0.5c0-0.1,0-0.1,0-0.2c0,0,0,0,0,0c0,0,0,0,0,0c0.4,0.1,0.5,0.3,0.5,0.3
					c0,0,0.1,0.1,0.2,0.1c0,0,0.1,0,0.1,0c0,0,0-0.1,0-0.1c0,0-0.3-0.6-1.2-0.6c-0.1,0-0.6,0-0.8,0.1c0,0-0.3,0.2-0.4,0.6
					c0,0,0,0,0,0.1C15.7,7.3,15.7,7.3,15.8,7.3"/>
				<path class="st0" d="M11.6,6.5L11.6,6.5C11.6,6.5,11.6,6.5,11.6,6.5C11.7,6.5,11.7,6.5,11.6,6.5c0.2,0,0.2-0.1,0.2-0.1
					c0,0,0.3-0.6,2.4-0.3c0,0,0.1,0,0.1,0c0,0,0-0.1,0-0.1c0,0-0.1-0.4-0.2-0.4c-0.2,0-0.5-0.1-0.7-0.1c-0.3,0-0.5,0-0.5,0
					c-1.1,0.1-1.4,0.8-1.4,0.8C11.6,6.4,11.5,6.4,11.6,6.5C11.6,6.4,11.6,6.5,11.6,6.5"/>
				<path class="st0" d="M29.6,29.6c0-0.1,0-0.2-0.1-0.2c-0.1,0-0.1-0.1-0.2-0.1c0.1-0.1,0.1-0.2,0.1-0.3c0.2-0.5,0.3-1.1,0.3-1.7
					c0-0.1,0-0.2-0.1-0.2c-0.1,0-0.1,0-0.2,0c0-0.1,0.1-0.2,0.1-0.3c0.1-0.5,0.2-1.1,0.1-1.7c0-0.1-0.1-0.2-0.1-0.2
					c-0.1,0-0.1,0-0.2,0c0-0.1,0.1-0.3,0.1-0.4c0.1-0.5,0.1-1.1-0.1-1.7c0-0.1-0.1-0.1-0.1-0.2c0,0-0.1,0-0.1,0c0-0.1,0-0.2,0-0.3
					c0.1-0.5,0-1.1-0.1-1.7c0-0.1-0.1-0.1-0.2-0.2c-0.1,0-0.2,0-0.2,0c0,0,0,0,0,0c0-0.1,0-0.3,0-0.4c0-0.5-0.1-1.1-0.4-1.7
					c0-0.1-0.1-0.1-0.2-0.1c-0.1,0-0.1,0-0.2,0c0-0.1,0-0.3,0-0.4c-0.1-0.5-0.3-1.1-0.5-1.6c0-0.1-0.1-0.1-0.2-0.1
					c-0.1,0-0.1,0-0.2,0.1c0-0.1,0-0.2-0.1-0.4c-0.1-0.5-0.4-1-0.7-1.6c0-0.1-0.1-0.1-0.2-0.1c-0.1,0-0.2,0-0.2,0.1c0,0,0,0,0,0
					c0-0.1-0.1-0.3-0.2-0.4c-0.2-0.5-0.5-1-1-1.4c-0.1-0.1-0.1-0.1-0.2-0.1c-0.1,0-0.1,0.1-0.2,0.1c-0.1-0.1-0.1-0.3-0.2-0.4
					c-0.3-0.4-0.7-0.9-1.2-1.2c-0.1,0-0.1-0.1-0.2,0c-0.1,0-0.1,0.1-0.1,0.1c-0.3-0.4-0.7-0.7-1.3-0.9c0.1,0,0.1,0,0.2,0
					c0.7,0,1.2-0.1,1.2-0.1c0.2-0.1,0.3-0.2,0.2-0.4c0-0.2-0.2-0.3-0.3-0.3c-0.7,0-1-0.2-1.4-0.4c0,0-0.1,0-0.1-0.1l1.6-0.2
					c0.2,0,0.3-0.2,0.3-0.4c0-0.2-0.1-0.3-0.3-0.4l-1.6-0.2c0.2-0.1,0.3-0.1,0.5-0.2c0.7-0.2,1.1-0.6,1.1-0.6
					c0.1-0.1,0.2-0.3,0.1-0.5C22.7,6,22.5,6,22.3,6c-0.7,0.3-1,0.2-1.4,0.2c0,0-0.1,0-0.1,0l1.4-0.9c0.2-0.1,0.2-0.3,0.1-0.4
					c-0.1-0.2-0.2-0.3-0.4-0.2l-1.5,0.4c0.1-0.1,0.3-0.2,0.4-0.3c0.5-0.5,0.8-0.9,0.8-0.9c0.1-0.2,0-0.3-0.1-0.5
					c-0.1-0.1-0.3-0.1-0.5,0c-0.6,0.5-0.9,0.6-1.2,0.7c0,0-0.1,0-0.1,0l1-1.3c0.1-0.1,0.1-0.3,0-0.5c-0.1-0.1-0.3-0.1-0.5,0l-1.3,1
					c0.1-0.2,0.2-0.3,0.2-0.5c0.3-0.6,0.4-1.1,0.4-1.2c0-0.2-0.1-0.3-0.3-0.4c-0.2,0-0.3,0-0.4,0.2c-0.3,0.7-0.6,0.9-0.9,1.1
					c0,0-0.1,0-0.1,0.1L18.3,1c0-0.2,0-0.4-0.2-0.4c-0.2-0.1-0.4,0-0.4,0.1l-0.8,1.4c0-0.2,0-0.4,0-0.5c0-0.7-0.1-1.2-0.1-1.2
					c-0.1-0.2-0.2-0.3-0.4-0.2c-0.2,0-0.3,0.2-0.3,0.3c0,0.7-0.2,1-0.4,1.4c0,0,0,0.1,0,0.1l-0.2-1.6C15.4,0.1,15.2,0,15,0
					c-0.2,0-0.3,0.1-0.4,0.3l-0.2,1.6c0-0.2-0.1-0.3-0.2-0.5c-0.2-0.7-0.6-1.1-0.6-1.1c-0.1-0.1-0.3-0.2-0.5-0.1
					c-0.2,0.1-0.2,0.3-0.2,0.4c0.3,0.7,0.2,1,0.2,1.4c0,0,0,0.1,0,0.1l-0.9-1.4c-0.1-0.2-0.3-0.2-0.4-0.1c-0.2,0.1-0.3,0.2-0.2,0.4
					l0.4,1.5c-0.1-0.1-0.2-0.3-0.3-0.4c-0.5-0.5-0.9-0.8-0.9-0.8c-0.2-0.1-0.3,0-0.4,0.1c-0.1,0.1-0.1,0.3,0,0.5
					c0.5,0.6,0.6,0.9,0.7,1.2c0,0,0,0.1,0,0.1l-1.3-1c-0.1-0.1-0.3-0.1-0.5,0c-0.1,0.1-0.1,0.3,0,0.5L10.3,4C10.2,4,10,3.9,9.9,3.8
					C9.2,3.5,8.7,3.4,8.7,3.4c-0.2,0-0.3,0.1-0.4,0.3c0,0.2,0,0.3,0.2,0.4C9.2,4.4,9.4,4.7,9.6,5c0,0,0,0.1,0.1,0.1L8.1,4.7
					c-0.2,0-0.3,0-0.4,0.2c-0.1,0.2,0,0.4,0.1,0.4l1.4,0.8c-0.2,0-0.4,0-0.5,0C8,6.1,7.5,6.2,7.5,6.2C7.3,6.3,7.2,6.4,7.2,6.6
					c0,0.2,0.2,0.3,0.3,0.3c0.7,0,1,0.2,1.4,0.4c0,0,0.1,0,0.1,0L7.4,7.6C7.2,7.6,7.1,7.8,7.1,8c0,0.2,0.1,0.3,0.3,0.4L9,8.5
					C8.8,8.6,8.6,8.6,8.5,8.7C7.8,8.9,7.4,9.3,7.4,9.3C7.2,9.4,7.2,9.6,7.3,9.7c0.1,0.2,0.3,0.2,0.4,0.2c0.4-0.1,0.6-0.2,0.9-0.2
					c-0.5,0.4-0.7,0.6-0.7,0.7c-0.1,0.1-0.1,0.2-0.2,0.3c0-0.1-0.1-0.1-0.1-0.1c-0.1,0-0.2,0-0.2,0c-0.5,0.4-0.9,0.8-1.2,1.3
					C6,12,6,12.2,5.9,12.3c0-0.1-0.1-0.1-0.2-0.1c-0.1,0-0.2,0-0.2,0.1c-0.4,0.5-0.8,0.9-1,1.4c-0.1,0.1-0.1,0.3-0.2,0.4
					c0,0-0.1-0.1-0.2-0.1c-0.1,0-0.2,0-0.2,0.1c-0.4,0.5-0.6,1-0.8,1.5c0,0.1-0.1,0.3-0.1,0.4c0,0,0,0,0,0C3.1,16,3,15.9,2.9,15.9
					c-0.1,0-0.2,0.1-0.2,0.1c-0.3,0.6-0.5,1.1-0.6,1.6c0,0.1,0,0.3,0,0.4h0C2.1,18.1,2,18,1.9,18.1c-0.1,0-0.1,0.1-0.2,0.2
					c-0.2,0.6-0.3,1.2-0.3,1.7c0,0.1,0,0.3,0,0.4c-0.1,0-0.1-0.1-0.2,0c-0.1,0-0.1,0.1-0.2,0.2c-0.1,0.6-0.2,1.2-0.1,1.7
					c0,0.1,0,0.2,0,0.3c0,0-0.1,0-0.1,0c-0.1,0-0.1,0.1-0.1,0.2c-0.1,0.6-0.1,1.2-0.1,1.7c0,0.1,0,0.3,0.1,0.4c0,0-0.1,0-0.1,0
					c-0.1,0-0.1,0.1-0.1,0.2c-0.1,0.6-0.1,1.2,0.1,1.7c0,0.1,0.1,0.2,0.1,0.3c-0.1,0-0.1,0-0.2,0c-0.1,0-0.1,0.1-0.1,0.2
					c0,0.6,0.1,1.2,0.2,1.7c0.1,0.2,0.1,0.3,0.2,0.4c0,0-0.1,0-0.1,0c-0.1,0-0.2,0-0.2,0.1c-0.1,0.1-0.1,0.1-0.1,0.2
					c0.1,0.6,0.3,1.2,0.5,1.6C1,31.4,1,31.5,1.1,31.6c0,0-0.1,0-0.1,0.1c-0.1,0.1-0.1,0.1-0.1,0.2c0.1,0.6,0.4,1.1,0.6,1.6
					c0.1,0.1,0.1,0.2,0.2,0.3c-0.1,0-0.1,0-0.2,0.1c0,0.1-0.1,0.2,0,0.2c0.2,0.6,0.5,1.1,0.8,1.5c0.1,0.1,0.2,0.2,0.2,0.3
					c-0.1,0-0.1,0.1-0.2,0.1c0,0.1,0,0.2,0,0.2c0.3,0.6,0.6,1,1,1.4c0.1,0.1,0.2,0.2,0.3,0.2c-0.1,0-0.1,0.1-0.1,0.1
					c0,0.1,0,0.2,0,0.2c0.3,0.5,0.7,1,1.1,1.3c0.1,0.1,0.3,0.2,0.4,0.3c0,0-0.1,0-0.1,0C5,39.8,5,39.9,4.9,40c0,0.1,0,0.2,0.1,0.2
					c0.4,0.5,0.9,0.8,1.3,1.1c0.4,0.2,0.7,0.3,1.1,0.4c0.3,0.1,0.6,0.1,0.9,0c0.8,0.6,1.6,1,2.5,1.4c0.7,0.3,1.4,0.5,2.2,0.7
					c0.1,0,0.2,0,0.3,0.1l0.2,0c0.2,0.1,0.3,0.1,0.4,0.1c0,0.1,0,0.2,0,0.2c0,0.1,0,0.2,0,0.3c-0.3,0.3-1.2,1.1-2.5,1.2l-0.1,0
					l0,0.1c0.1,0.1,0.2,0.2,0.4,0.4l0,0l0,0c1.2-0.2,2-0.8,2.4-1.2c0,0,0.1,0.1,0.1,0.1c-0.1,0.3-0.4,1.1-1.8,1.5l-0.1,0l0.1,0.1
					c0.2,0.1,0.5,0.2,0.8,0.2l0,0l0,0c1-0.5,1.4-1.2,1.5-1.5c0.1,0,0.3,0,0.4,0c0.1,0.4,0.5,1.1,1.5,1.5l0,0l0,0
					c0.3,0,0.5-0.1,0.8-0.2l0.1-0.1l-0.1,0c-1.3-0.4-1.7-1.1-1.8-1.5c0,0,0.1-0.1,0.1-0.1c0.4,0.4,1.2,1,2.4,1.2l0,0l0,0
					c0.2-0.2,0.3-0.3,0.4-0.4l0-0.1l-0.1,0c-1.3-0.2-2.1-0.9-2.5-1.2c0-0.1,0-0.2,0-0.3c0-0.1,0-0.2,0-0.2c0.1,0,0.3-0.1,0.4-0.1
					l0.3,0c0.3-0.1,0.7-0.1,1-0.2c0.7-0.2,1.5-0.5,2.1-0.8c1-0.5,1.6-1,1.8-1.1c0.3,0,0.6,0,0.9,0c0.4-0.1,0.7-0.2,1.1-0.4
					c0.4-0.3,0.9-0.6,1.3-1.1c0.1-0.1,0.1-0.1,0.1-0.2c0-0.1-0.1-0.1-0.2-0.2c0,0,0,0-0.1,0c0.1-0.1,0.3-0.2,0.4-0.3
					c0.4-0.3,0.8-0.8,1.1-1.3c0-0.1,0.1-0.2,0-0.2c0-0.1-0.1-0.1-0.1-0.1c0.1-0.1,0.2-0.2,0.3-0.2c0.4-0.4,0.7-0.8,1-1.4
					c0-0.1,0-0.2,0-0.2s-0.1-0.1-0.2-0.1c0.1-0.1,0.2-0.2,0.3-0.3c0.3-0.4,0.6-0.9,0.8-1.5c0-0.1,0-0.2,0-0.2c0-0.1-0.1-0.1-0.2-0.1
					c0,0,0,0,0,0l0,0c0.1-0.1,0.2-0.2,0.2-0.3c0.3-0.4,0.5-1,0.7-1.6c0-0.1,0-0.2-0.1-0.2c-0.1-0.1-0.1-0.1-0.2-0.1
					c0.1-0.1,0.1-0.2,0.2-0.4C29.3,30.7,29.5,30.2,29.6,29.6 M29.3,27.6L29.3,27.6C29.3,27.6,29.3,27.6,29.3,27.6
					c0,0.5-0.1,0.8-0.2,1.2c-0.1,0.4-0.3,0.7-0.5,0.9c-0.3,0.3-0.5,0.5-0.6,0.5c0,0,0,0,0,0c0,0,0,0,0,0c-0.3-0.5-0.5-1.1-0.5-1.7
					c0-0.2,0-0.4,0.1-0.6c0,0,0,0,0,0c0,0,0,0,0,0c0.3,0.4,0.5,0.9,0.5,0.9c0,0.1,0.1,0.1,0.2,0.1c0,0,0,0,0,0c0.1,0,0.1,0,0.2-0.1
					C28.6,28.2,29,27.8,29.3,27.6C29.3,27.6,29.3,27.6,29.3,27.6 M29.2,25.3C29.2,25.3,29.3,25.3,29.2,25.3
					C29.3,25.3,29.3,25.4,29.2,25.3c0,0.4,0,0.9-0.1,1.2c-0.1,0.4-0.2,0.7-0.4,1c-0.2,0.3-0.5,0.5-0.6,0.6c0,0,0,0,0,0c0,0,0,0,0,0
					c-0.6-0.7-0.7-1.7-0.6-2.3c0,0,0,0,0,0c0,0,0,0,0,0c0.3,0.4,0.5,0.8,0.6,0.8c0,0.1,0.1,0.1,0.2,0.1c0.1,0,0.1,0,0.2-0.1
					C28.6,26,29,25.6,29.2,25.3 M29,23.1L29,23.1C29,23.1,29,23.1,29,23.1C29,23.1,29,23.1,29,23.1c0.1,0.4,0.1,0.8,0,1.2
					c-0.1,0.4-0.2,0.7-0.3,1c-0.2,0.4-0.4,0.6-0.5,0.6c0,0,0,0,0,0c0,0,0,0,0,0c-0.6-0.5-0.8-1.6-0.8-2.2c0,0,0,0,0,0c0,0,0,0,0,0
					c0.4,0.3,0.6,0.7,0.6,0.7c0,0.1,0.1,0.1,0.2,0.1c0.1,0,0.1-0.1,0.1-0.1C28.4,23.8,28.8,23.3,29,23.1 M28.6,20.9L28.6,20.9
					C28.6,20.9,28.7,20.9,28.6,20.9C28.7,20.9,28.7,20.9,28.6,20.9c0.1,0.4,0.1,0.8,0.1,1.2c0,0.4-0.1,0.7-0.3,1
					c-0.2,0.4-0.4,0.6-0.5,0.7c0,0,0,0,0,0c0,0,0,0,0,0c-0.5-0.4-0.7-1.1-0.9-1.5C27,22.1,27,21.8,27,21.6c0,0,0,0,0,0c0,0,0,0,0,0
					c0.4,0.3,0.7,0.7,0.7,0.7c0,0.1,0.1,0.1,0.2,0.1c0.1,0,0.1-0.1,0.1-0.1C28.1,21.6,28.4,21.2,28.6,20.9 M16.9,32.7
					c0,0.1,0.1,0.1,0.1,0.2c0.7,0.4,1.4,1.1,1.6,1.4c0,0,0,0,0,0c0,0.1-0.1,0.1-0.1,0.2c-0.1,0.1-0.3,0.2-0.5,0.2c0,0,0,0,0,0
					c0,0,0,0,0,0c-0.1-0.2-0.2-0.4-0.4-0.6c-0.3-0.3-0.8-0.7-0.8-0.7c-0.1-0.1-0.3-0.1-0.4,0.1c-0.1,0.1-0.1,0.3,0.1,0.4
					c0.1,0.1,0.5,0.4,0.7,0.6c0.2,0.3,0.3,0.4,0.3,0.5c0,0,0,0,0,0c0,0.1-0.1,0.1-0.2,0.2c-0.1,0.1-0.3,0.2-0.5,0.1c0,0,0,0,0,0
					c-0.1-0.2-0.2-0.5-0.6-0.9c-0.1-0.1-0.3-0.1-0.4,0c-0.1,0-0.1,0.1-0.1,0.2c0,0.1,0,0.1,0.1,0.2c0.2,0.3,0.4,0.5,0.4,0.7
					c0,0,0,0,0,0c-0.1,0-0.1,0.1-0.2,0.1c-0.2,0.1-0.4,0.1-0.6,0.1c0,0,0,0,0,0c0,0,0,0,0,0c0.1-0.1,0.1-0.3,0.2-0.4
					c0-0.2,0-0.4-0.3-0.7c-0.1-0.1-0.4-0.3-0.7-0.2c0,0,0,0,0,0c0,0,0,0,0,0c0-0.2-0.1-0.4-0.3-0.5c-0.3-0.2-0.6-0.3-0.9-0.2
					c0,0,0,0,0,0l0,0c0,0,0,0,0,0c0-0.1-0.2-0.3-0.5-0.5c-0.3-0.1-0.5-0.1-0.8-0.1c0,0,0,0,0,0c-0.2-0.2-0.6-0.3-0.7-0.3
					c-0.4-0.1-0.9,0.1-1.3,0.5c0,0,0,0,0,0c-1.8,1-4.1,2-5,2.4c0,0,0,0,0,0c0,0,0,0,0,0c-0.5-0.9-0.9-1.9-1.2-3
					c-0.1-0.3-0.2-0.6-0.3-0.9c0,0,0,0,0,0c0,0,0,0,0,0c2.6-0.3,4.7-0.6,6.3-0.9c1.6-0.3,2.6-0.6,3.1-1l0,0c0.6-0.4,1-0.6,1.6-0.6
					c0.2,0,0.4,0,0.5,0.1c0,0,0,0,0,0c0,0,0,0,0,0c-0.2,0.1-0.3,0.1-0.4,0.2c-0.2,0.2-0.4,0.3-0.5,0.4c-0.1,0.1-0.2,0.2-0.4,0.3
					c-0.1,0.1-0.3,0.2-0.4,0.2c-0.4,0.2-0.6,0.3-0.7,0.5l0,0l0,0c-0.1,0.3-0.1,0.5,0.1,0.7c0.3,0.4,0.7,0.3,1.1,0.3
					c0.4,0,0.9-0.2,1.2-0.4c0.1-0.1,0.2-0.2,0.3-0.2c0.2-0.1,0.3-0.2,0.4-0.2c0,0,0,0,0,0c0.3-0.1,0.7-0.1,1.1,0.1
					c0.4,0.1,0.8,0.4,1.1,0.6c0.8,0.5,1.4,1.3,1.6,1.5c0,0,0,0,0,0c0,0.1-0.1,0.2-0.2,0.3c-0.1,0.1-0.3,0.1-0.5,0.1c0,0,0,0,0,0
					c-0.3-0.3-0.9-1.2-1.8-1.6c-0.1-0.1-0.3,0-0.4,0.1C16.9,32.6,16.9,32.6,16.9,32.7 M14.9,35.5C14.9,35.5,14.9,35.5,14.9,35.5
					L14.9,35.5c-0.1,0.1-0.5,0.3-0.8,0.3c0,0-0.1,0-0.1,0c-0.1,0-0.1,0-0.2-0.1c0,0,0,0,0,0c0.1-0.3,0.4-0.5,0.7-0.7
					c0.4-0.2,0.5-0.1,0.6-0.1c0.1,0.1,0.1,0.2,0.1,0.2C15.2,35.2,15,35.4,14.9,35.5L14.9,35.5L14.9,35.5z M11.8,34
					c0.4-0.4,0.7-0.5,0.9-0.3c0.1,0,0.2,0.1,0.2,0.2c0,0,0,0.1,0,0.1c0,0,0,0,0,0c-0.1,0-0.1,0.1-0.2,0.1c-0.4,0.3-0.6,0.6-0.7,0.9
					c0,0,0,0,0,0c0,0,0,0,0,0c-0.1,0-0.1,0-0.2,0c-0.3-0.1-0.3-0.3-0.4-0.3C11.5,34.3,11.6,34.2,11.8,34 M11.4,33.6
					C11.2,33.7,11,34,11,34.3c0,0,0,0,0,0l0,0c-0.1,0-0.1,0-0.2,0c-0.2,0-0.3-0.1-0.4-0.2c0,0-0.1-0.1,0.1-0.3
					c0.2-0.3,0.6-0.5,0.9-0.4c0,0,0,0,0,0c0,0,0.1,0,0.2,0c0,0,0,0,0,0c0,0,0,0,0,0C11.6,33.4,11.5,33.5,11.4,33.6 M13.1,34.5
					c0.5-0.3,0.8-0.5,1-0.2c0.1,0.1,0.1,0.1,0.1,0.2c0,0.1-0.1,0.2-0.2,0.3c-0.3,0.2-0.5,0.5-0.6,0.7c0,0,0,0,0,0
					c-0.1,0-0.2,0-0.3,0c-0.1,0-0.3,0-0.4-0.1c0,0-0.1-0.1-0.1-0.2C12.5,34.9,12.9,34.6,13.1,34.5 M18.5,10.6
					C18.5,10.6,18.5,10.6,18.5,10.6C18.5,10.5,18.5,10.5,18.5,10.6c0.2-0.1,0.5-0.2,0.7-0.2c0.6,0,1.2,0.2,1.6,0.6c0,0,0,0,0,0
					c0,0,0,0,0,0c-0.1,0-0.3,0.1-0.6,0.1c0,0-0.1,0-0.1,0C19.6,11.2,19,11,18.5,10.6 M19.3,11.5h-8.5c1.4-0.7,2.8-1,4.2-1
					C16.5,10.5,17.9,10.8,19.3,11.5 M20.3,9.7c-0.2,0.1-0.5,0.2-0.8,0.2c-0.2,0-0.4,0.1-0.6,0.1c-0.5,0-0.8-0.1-1.2-0.3c0,0,0,0,0,0
					c0,0,0,0,0,0c0.1-0.1,0.4-0.2,0.7-0.3c0.3-0.1,0.7-0.1,1,0C19.7,9.4,20,9.5,20.3,9.7C20.4,9.7,20.4,9.7,20.3,9.7
					C20.4,9.7,20.4,9.7,20.3,9.7 M18.3,9c-0.2,0.1-0.6,0.2-1.1,0.3c-0.1,0-0.1,0.1-0.2,0.1c0,0.1,0,0.1,0.1,0.2c0,0,0.4,0.3,0.7,0.7
					c0,0,0,0,0,0c0,0,0,0,0,0c-0.5,0-1.5-0.2-2.2-1c0,0,0,0,0,0c0.1-0.1,0.3-0.3,0.6-0.4C16.8,8.8,17.5,8.8,18.3,9
					C18.3,9,18.3,9,18.3,9C18.3,9,18.3,9,18.3,9 M16,8.6c-0.2,0.1-0.5,0.4-1.1,0.5c-0.1,0-0.1,0.1-0.1,0.2c0,0.1,0,0.1,0.1,0.2
					c0,0,0.5,0.2,0.8,0.5c0,0,0,0,0,0c0,0,0,0,0,0c-0.2,0-0.3,0-0.5,0c-0.5,0-1.3-0.1-1.9-0.5c0,0,0,0,0,0c0.1-0.1,0.2-0.3,0.5-0.5
					C14.4,8.7,15.1,8.5,16,8.6C16,8.6,16,8.6,16,8.6C16,8.6,16,8.6,16,8.6 M13.6,8.7c-0.1,0.2-0.4,0.5-1,0.7c-0.1,0-0.1,0.1-0.1,0.2
					c0,0.1,0.1,0.1,0.1,0.2c0,0,0.5,0.1,0.9,0.3c0,0,0,0,0,0c0,0,0,0,0,0c-0.2,0.1-0.4,0.1-0.6,0.2c-0.2,0-0.4,0.1-0.6,0.1
					c-0.4,0-0.8-0.1-1.1-0.2c0,0,0,0,0,0c0.1-0.1,0.2-0.4,0.4-0.6C12,9.1,12.7,8.8,13.6,8.7C13.6,8.6,13.6,8.6,13.6,8.7
					C13.6,8.7,13.6,8.7,13.6,8.7 M11.4,9.1L11.4,9.1c-0.1,0.3-0.3,0.6-0.8,1.1c-0.1,0-0.1,0.1,0,0.2c0,0.1,0.1,0.1,0.2,0.1h0
					c0,0,0.2,0,0.5,0c0.2,0,0.4,0.1,0.5,0.1c0,0,0,0,0,0c0,0,0,0,0,0c-0.2,0.1-0.4,0.2-0.6,0.3c-0.4,0.1-0.8,0.2-1.1,0.2
					c-0.2,0-0.5,0-0.7-0.1c0,0,0,0,0,0C9.3,10.6,9.7,9.6,11.4,9.1C11.3,9,11.4,9,11.4,9.1C11.4,9.1,11.4,9.1,11.4,9.1 M20.3,12.1
					c0.5,0.3,0.9,0.6,1.3,1H8.5c0.4-0.4,0.9-0.7,1.3-1H20.3z M22.2,13.6c0.3,0.3,0.6,0.7,0.9,1h-6.4c-0.9-0.6-1.8-0.6-1.9-0.6
					c-0.1,0-1,0-1.8,0.6H6.9c0.3-0.4,0.6-0.7,0.9-1H22.2z M12.9,21.1c-0.5,0-1,0.1-1.6,0.3c0,0,0,0,0,0c0,0,0,0,0,0c0,0,0-0.1,0-0.1
					c0.3-1.5,0.9-2.5,1.3-3.1c0.3-0.4,0.6-0.7,0.8-0.9c0,0,0.1-0.1,0.1-0.1c0.1-0.1,0.1-0.3,0-0.4c-0.1-0.1-0.3-0.2-0.4-0.1
					c0,0-0.1,0-0.1,0.1C12.8,17,12.6,17,12.5,17c-0.1-0.1-0.2-0.2-0.1-0.4c0.1-0.3,0.4-0.8,0.6-0.9c0,0,0,0,0,0
					c0.7-0.9,1.9-0.9,1.9-0.9c0,0,0.4,0,0.9,0.1c0.6,0.2,1.1,0.6,1.5,1.3c0.5,0.9,0.8,1.8,1.1,2.8c0,0,0,0,0,0c0,0,0,0,0,0
					c-0.7-0.2-1.2-0.7-1.2-0.7c-0.1-0.1-0.3-0.1-0.4,0c-0.1,0.1-0.1,0.3,0,0.4c0,0,0.8,0.7,1.8,0.9c0,0,0,0,0,0
					c0.1,0.3,0.1,0.7,0.2,1.2c0,0,0,0,0,0c0,0,0,0,0,0c-0.3-0.2-0.7-0.3-1-0.4c-0.2-0.1-0.4-0.1-0.6-0.2c-0.7-0.3-1.2-0.7-1.2-0.7
					c-0.1-0.1-0.3-0.1-0.4,0.1c-0.1,0.1-0.1,0.3,0.1,0.4c0,0,0.6,0.5,1.4,0.8c0.2,0.1,0.4,0.1,0.6,0.2c0.8,0.2,1.3,0.4,1.3,0.9v0
					c0,0.1-0.1,0.1-0.1,0.2c-0.2,0.3-0.8,0.3-1,0.3c0,0-0.9,0-0.9,0c-0.2,0-1,0-1.7-0.5C14.1,21.4,13.5,21.1,12.9,21.1 M14.6,22.4
					C14.6,22.4,14.6,22.4,14.6,22.4l-2.5,0c-0.3,0-0.4-0.1-0.6-0.2c0,0-0.1-0.1-0.1-0.1c0,0,0,0,0,0C12.6,21.6,13.1,21.5,14.6,22.4
					C14.6,22.4,14.6,22.4,14.6,22.4 M15.4,24.7H27c0,0.4,0.1,0.7,0.1,1.1H15.4V24.7z M15.4,24.1v-1h11.4c0.1,0.3,0.1,0.7,0.1,1H15.4
					z M19,22.5c0.1-0.1,0.2-0.3,0.3-0.4c0,0,0,0,0-0.1c0-0.2,0.1-0.3,0-0.5h7.1c0.1,0.3,0.2,0.7,0.2,1H19z M19.3,21
					c0-0.3-0.1-0.7-0.2-1H26c0,0.1,0.1,0.2,0.1,0.3c0.1,0.2,0.2,0.5,0.2,0.8H19.3z M19,19.4c-0.1-0.3-0.2-0.7-0.3-1h6.7
					c0.1,0.3,0.3,0.7,0.4,1H19z M18.6,17.8c-0.1-0.3-0.2-0.7-0.4-1h6.5c0.2,0.3,0.4,0.7,0.5,1H18.6z M17.9,16.2
					c-0.1-0.1-0.1-0.3-0.2-0.4c-0.1-0.2-0.3-0.4-0.4-0.6h6.3c0.2,0.3,0.5,0.7,0.7,1H17.9z M12.4,15.2c-0.1,0.1-0.5,0.6-0.6,1h-6
					c0.2-0.3,0.4-0.7,0.7-1H12.4z M11.7,16.8c0,0.3,0.2,0.6,0.5,0.7c0.1,0,0.1,0.1,0.2,0.1c0,0,0,0,0,0c0,0,0,0,0,0
					c-0.1,0.1-0.1,0.1-0.2,0.2H4.9c0.2-0.3,0.3-0.7,0.5-1H11.7z M11.8,18.4c-0.2,0.3-0.3,0.6-0.5,1H4.2c0.1-0.3,0.3-0.7,0.4-1H11.8z
					 M11.1,20c-0.1,0.3-0.2,0.6-0.3,1H3.7c0.1-0.3,0.1-0.5,0.2-0.8C4,20.1,4,20,4,20H11.1z M10.7,21.5c0,0.1,0,0.3,0,0.4
					c0,0,0,0,0,0.1c0,0.2,0.1,0.4,0.2,0.5H3.4c0.1-0.3,0.1-0.7,0.2-1H10.7z M14.7,23.1v1H3.1c0-0.3,0.1-0.7,0.1-1H14.7z M14.7,24.7
					v1.1H3c0-0.4,0-0.7,0.1-1.1H14.7z M14.7,26.4v2.3c0,0,0,0,0,0c0,0,0,0,0,0c0,0,0,0-0.1,0c-0.6,0-1.2,0.3-1.8,0.7
					c-0.9,0.6-4,1.2-9.2,1.8c0,0,0,0,0,0C3.2,29.7,3,28.1,3,26.5c0,0,0,0,0-0.1H14.7z M18.4,31.5c-0.6-0.4-1.6-1.1-2.6-0.8
					c-0.2,0-0.4,0.2-0.6,0.3c-0.1,0.1-0.2,0.1-0.3,0.2c-0.3,0.2-0.7,0.3-1,0.3c-0.3,0-0.5,0-0.6-0.1c-0.1-0.1-0.1-0.1-0.1-0.2
					c0,0,0,0,0,0c0.1-0.1,0.3-0.2,0.5-0.3c0.2-0.1,0.3-0.2,0.5-0.3c0.2-0.1,0.3-0.2,0.5-0.3c0.1-0.1,0.3-0.2,0.5-0.4
					c0.3-0.2,0.7-0.2,1.2-0.2c0.1,0,0.2,0,0.2,0c0.1,0,0.1,0,0.2,0c0.6,0,1.1,0.2,1.8,0.4c0.2,0.1,0.5,0.2,0.7,0.3c0,0,0,0,0,0
					c0,0,1,0.3,2.4,0.7c1.2,0.3,3,0.7,4.6,0.8c0,0,0,0,0,0c0,0,0,0,0,0c-0.1,0.3-0.2,0.6-0.2,0.8c-0.3,1.1-0.8,2.1-1.3,3.1
					c0,0,0,0,0,0c0,0,0,0,0,0c-0.8-0.3-2.8-1.2-4.2-2.2c-0.3-0.2-0.5-0.4-0.5-0.5c0,0,0,0,0,0c0,0,0,0,0,0l0,0c0,0,0-0.1,0-0.1
					C19.8,32.7,19.2,32.1,18.4,31.5 M19.5,29.9c-0.3-0.1-0.5-0.2-0.7-0.3c-0.8-0.3-1.3-0.5-2-0.5c0,0-0.1,0-0.1,0c0,0,0,0,0,0
					c-0.4-0.2-0.7-0.3-1.2-0.4c0,0,0,0,0,0v-2.4h11.6c0,0,0,0,0,0.1c0,1.7-0.2,3.3-0.6,4.9c0,0,0,0,0,0l0,0
					C23.3,31.1,19.6,30,19.5,29.9 M27.9,18.7C28,18.7,28,18.7,27.9,18.7C28,18.7,28,18.7,27.9,18.7c0.2,0.4,0.2,0.8,0.3,1.2
					c0,0.4,0,0.7-0.1,1c-0.1,0.4-0.3,0.6-0.4,0.7c0,0,0,0,0,0c0,0,0,0,0,0c-0.5-0.3-0.8-0.8-1.1-1.4c-0.1-0.2-0.1-0.4-0.2-0.6
					c0,0,0,0,0,0c0,0,0,0,0,0c0.4,0.3,0.8,0.6,0.8,0.6c0,0.1,0.1,0.1,0.2,0c0.1,0,0.1-0.1,0.1-0.2C27.5,19.5,27.8,19,27.9,18.7
					 M26.6,18.2c0.1,0,0.1-0.1,0.1-0.2c0-0.7,0.2-1.2,0.3-1.5c0,0,0,0,0,0c0,0,0,0,0,0c0.2,0.4,0.3,0.8,0.3,1.2c0.1,0.4,0,0.7,0,1.1
					c-0.1,0.4-0.2,0.7-0.3,0.8c0,0,0,0,0,0c0,0,0,0,0,0c-0.5-0.2-0.9-0.7-1.2-1.3c-0.1-0.2-0.2-0.4-0.2-0.6c0,0,0,0,0,0c0,0,0,0,0,0
					c0.4,0.2,0.8,0.5,0.8,0.5C26.5,18.3,26.6,18.3,26.6,18.2L26.6,18.2 M25.7,16.3c0.1,0,0.1-0.1,0.1-0.2c-0.1-0.7,0-1.2,0.1-1.5
					c0,0,0,0,0,0h0c0,0,0,0,0,0c0.2,0.4,0.4,0.7,0.5,1.1c0.1,0.4,0.1,0.7,0.1,1.1c0,0.4-0.2,0.7-0.2,0.8c0,0,0,0,0,0c0,0,0,0,0,0
					c-0.6-0.2-1-0.6-1.4-1.1c-0.1-0.2-0.2-0.4-0.3-0.6c0,0,0,0,0,0c0,0,0,0,0,0c0.5,0.1,0.9,0.5,0.9,0.5
					C25.6,16.3,25.7,16.3,25.7,16.3 M24.3,14.5c0.1,0,0.1,0,0.2,0c0.1,0,0.1-0.1,0.1-0.2c-0.2-0.6-0.2-1.1-0.1-1.5c0,0,0,0,0,0
					c0,0,0,0,0,0c0.3,0.3,0.5,0.7,0.6,1c0.2,0.3,0.2,0.7,0.3,1c0,0.4,0,0.7-0.1,0.8c0,0,0,0,0,0h0c-0.5-0.1-1.1-0.4-1.5-0.9
					c-0.2-0.2-0.3-0.3-0.4-0.5c0,0,0,0,0,0c0,0,0,0,0,0C23.9,14.2,24.3,14.5,24.3,14.5 M22.9,12.9c0.1,0,0.1,0,0.2,0
					c0-0.1,0.1-0.1,0-0.2c-0.3-0.6-0.4-1.1-0.3-1.5c0,0,0,0,0,0c0,0,0,0,0,0c0.3,0.3,0.6,0.6,0.8,0.9c0.2,0.3,0.3,0.6,0.4,1
					c0.1,0.4,0.1,0.7,0.1,0.8c0,0,0,0,0,0c0,0,0,0,0,0c-0.6,0-1.2-0.3-1.6-0.6c-0.2-0.1-0.4-0.3-0.5-0.5c0,0,0,0,0,0c0,0,0,0,0,0
					C22.4,12.7,22.9,12.9,22.9,12.9 M22.4,11.5c0.1,0.4,0.2,0.7,0.2,0.9c0,0,0,0,0,0c0,0-0.1,0-0.1,0c-0.8,0-1.7-0.5-2.1-0.8
					c0,0,0,0,0,0c0,0,0,0,0,0c0.5-0.1,0.9,0,1,0c0.1,0,0.2,0,0.2-0.1c0-0.1,0-0.1,0-0.2c-0.3-0.4-0.5-0.8-0.6-1.1c0,0,0,0,0,0
					c0,0,0,0,0,0C21.6,10.4,22.1,10.8,22.4,11.5 M8.1,9.3C8.1,9.3,8.1,9.3,8.1,9.3C8.1,9.3,8.1,9.3,8.1,9.3c0.1-0.1,0.3-0.2,0.5-0.2
					C9,8.9,9.5,8.8,9.7,8.8c0.5-0.1,0.8-0.3,0.8-0.3c0,0,0,0,0-0.1c0,0,0,0-0.1-0.1L7.9,8c0,0,0,0,0,0c0,0,0,0,0,0l2.6-0.4
					c0,0,0.1,0,0.1-0.1s0-0.1-0.1-0.1c0,0-0.5-0.1-1-0.3C9.4,7.1,9.2,7,9.1,6.9c-0.3-0.2-0.5-0.3-1-0.4c0,0,0,0,0,0c0,0,0,0,0,0
					c0.2,0,0.4,0,0.5,0c0.5,0,0.9,0.1,1.1,0.1c0.5,0.1,0.9,0,0.9,0c0,0,0,0,0.1-0.1c0,0,0-0.1,0-0.1L8.5,5.2c0,0,0,0,0,0
					c0,0,0,0,0,0L11,5.8c0,0,0.1,0,0.1,0c0,0,0-0.1,0-0.1c0,0-0.4-0.3-0.8-0.7C10.1,5,10.1,4.8,10,4.7C9.8,4.5,9.6,4.2,9.2,4
					c0,0,0,0,0,0c0,0,0,0,0,0C9.4,4,9.5,4.1,9.7,4.2c0.4,0.2,0.8,0.4,1,0.6c0.4,0.3,0.8,0.4,0.8,0.4c0,0,0.1,0,0.1,0
					c0,0,0-0.1,0-0.1L10,2.9c0,0,0,0,0,0c0,0,0,0,0,0l2.1,1.5c0,0,0.1,0,0.1,0c0,0,0-0.1,0-0.1c0,0-0.3-0.4-0.5-0.9
					c-0.1-0.2-0.1-0.3-0.1-0.4c-0.1-0.3-0.2-0.6-0.4-1c0,0,0,0,0,0c0,0,0,0,0,0c0.1,0.1,0.3,0.2,0.4,0.4c0.3,0.4,0.6,0.7,0.7,0.9
					C12.5,3.7,12.8,4,12.9,4c0,0,0.1,0,0.1,0c0,0,0,0,0-0.1l-0.6-2.5c0,0,0,0,0,0c0,0,0,0,0,0l1.3,2.2c0,0,0.1,0,0.1,0
					c0,0,0,0,0-0.1c0,0-0.1-0.5-0.1-1c0-0.2,0-0.3,0-0.4c0-0.3,0.1-0.6,0-1.1c0,0,0,0,0,0c0,0,0,0,0,0c0.1,0.2,0.1,0.3,0.2,0.5
					c0.2,0.5,0.3,0.9,0.3,1.1c0.1,0.5,0.3,0.8,0.3,0.8c0,0,0,0,0.1,0c0,0,0,0,0.1-0.1L15,0.8c0,0,0,0,0,0c0,0,0,0,0,0l0.4,2.6
					c0,0,0,0.1,0.1,0.1c0,0,0.1,0,0.1-0.1c0,0,0.1-0.5,0.3-1C15.9,2.3,16,2.1,16,2c0.2-0.3,0.3-0.5,0.4-1c0,0,0,0,0,0c0,0,0,0,0,0
					c0,0.2,0,0.4,0,0.5c0,0.5-0.1,0.9-0.1,1.1c-0.1,0.5,0,0.9,0,0.9c0,0,0,0,0.1,0.1c0,0,0.1,0,0.1,0l1.3-2.2c0,0,0,0,0,0
					c0,0,0,0,0,0l-0.6,2.5c0,0,0,0.1,0,0.1c0,0,0.1,0,0.1,0c0,0,0.3-0.4,0.7-0.8C18,3,18.1,2.9,18.2,2.9c0.3-0.2,0.5-0.4,0.7-0.8
					c0,0,0,0,0,0c0,0,0,0,0,0c-0.1,0.2-0.1,0.3-0.2,0.5c-0.2,0.4-0.4,0.8-0.6,1C18,4,17.9,4.4,17.9,4.4c0,0,0,0.1,0,0.1
					c0,0,0.1,0,0.1,0L20,2.9c0,0,0,0,0,0c0,0,0,0,0,0L18.5,5c0,0,0,0.1,0,0.1c0,0,0.1,0,0.1,0c0,0,0.4-0.3,0.9-0.5
					c0.2-0.1,0.3-0.1,0.4-0.1c0.3-0.1,0.6-0.2,1-0.4c0,0,0,0,0,0c0,0,0,0,0,0c-0.1,0.1-0.2,0.3-0.4,0.4c-0.4,0.3-0.7,0.6-0.9,0.7
					C19.2,5.4,19,5.7,19,5.8c0,0,0,0.1,0,0.1c0,0,0,0,0.1,0l2.5-0.6c0,0,0,0,0,0c0,0,0,0,0,0l-2.2,1.3c0,0,0,0.1,0,0.1
					c0,0,0,0,0.1,0c0,0,0.5-0.1,1-0.1c0.2,0,0.3,0,0.4,0c0.3,0,0.6,0.1,1.1,0c0,0,0,0,0,0c0,0,0,0,0,0c-0.2,0.1-0.3,0.2-0.5,0.2
					C21,7,20.6,7.1,20.4,7.1c-0.5,0.1-0.8,0.3-0.8,0.3c0,0,0,0,0,0.1c0,0,0,0,0.1,0.1l2.6,0.4c0,0,0,0,0,0c0,0,0,0,0,0l-2.6,0.4
					c0,0-0.1,0-0.1,0.1c0,0,0,0.1,0.1,0.1c0,0,0.5,0.1,1,0.3c0.1,0.1,0.3,0.1,0.4,0.2c0.3,0.2,0.5,0.3,1,0.4c0,0,0,0,0,0
					c0,0,0,0,0,0c-0.1,0-0.2,0-0.3,0c-0.1,0-0.2,0-0.2,0c-0.5,0-0.9-0.1-1.1-0.1c0,0,0,0-0.1,0c0,0,0,0,0,0C19.8,9.1,19.4,9,19,9
					c0,0,0,0,0,0c0,0,0,0,0,0c0,0,0,0,0,0c0,0,0,0,0-0.1c0-0.1-0.1-0.1-0.1-0.1c-0.5-0.2-0.9-0.3-1.3-0.3c0,0,0,0-0.1,0h0
					c0,0,0,0,0,0c0,0,0,0-0.1,0l0,0c0,0,0,0,0,0c0,0-0.1,0-0.1,0c0,0,0,0,0,0c-0.2,0-0.4,0-0.6,0c0,0,0,0,0,0c0,0,0,0,0,0
					c0,0,0,0,0,0c0,0,0-0.1,0-0.1c0,0,0,0,0,0c0-0.1-0.1-0.1-0.1-0.1c0,0-0.1,0-0.1,0c0,0,0,0,0,0l0,0c0,0-0.1,0-0.1,0c0,0,0,0,0,0
					c0,0,0,0-0.1,0c-0.5,0-0.9,0-1.3,0.1c-0.1,0-0.2,0-0.3,0.1c0,0,0,0,0,0c0,0,0,0-0.1,0l0,0c0,0,0,0-0.1,0l0,0
					c-0.1,0-0.1,0-0.1,0.1c0,0,0,0,0,0c0,0,0,0,0,0l0,0v0c0,0,0,0,0,0l0,0c0-0.1,0-0.1,0-0.2h0c0,0,0,0,0,0l0,0c0,0-0.1,0-0.1,0
					c-0.6,0.1-1.2,0.2-1.6,0.4c-0.2,0.1-0.3,0.1-0.4,0.2c0,0,0,0,0,0c0,0,0,0,0,0c0,0,0,0,0-0.1v0v0c0-0.1,0-0.1-0.1-0.2l0,0
					c0,0,0,0,0,0l0,0c0,0,0,0,0,0l0,0c0,0-0.1,0-0.1,0C11,8.8,10.5,9,10,9.3c0,0,0,0,0,0l0,0c0,0,0,0,0,0c-0.1,0-0.2,0-0.4,0
					c-0.1,0-0.4,0-0.4,0C8.9,9.2,8.6,9.2,8.1,9.3 M9.1,9.8L9.1,9.8C9.1,9.8,9.1,9.8,9.1,9.8C9.1,9.8,9.1,9.8,9.1,9.8
					c0,0.4-0.1,0.9-0.5,1.4c0,0.1,0,0.1,0,0.2c0,0.1,0.1,0.1,0.2,0.1c0,0,0.5-0.1,1-0.1c0,0,0,0,0,0c0,0,0,0,0,0
					c-0.4,0.3-1.2,0.9-2.1,0.9c0,0-0.1,0-0.1,0c0,0,0,0,0,0C7.6,12,7.7,10.9,9.1,9.8 M6.1,13.1c0.1-0.3,0.2-0.7,0.4-1
					c0.2-0.3,0.5-0.6,0.8-0.9c0,0,0,0,0,0c0,0,0,0,0,0c0,0.3,0,0.9-0.3,1.5c0,0.1,0,0.1,0,0.2c0,0.1,0.1,0.1,0.2,0.1
					c0,0,0.5-0.2,0.9-0.2c0,0,0,0,0,0c0,0,0,0,0,0C8,13,7.8,13.1,7.6,13.3c-0.4,0.3-0.9,0.6-1.5,0.6c0,0,0,0-0.1,0c0,0,0,0,0,0
					C6,13.8,6,13.5,6.1,13.1 M5.6,12.8L5.6,12.8C5.6,12.8,5.6,12.8,5.6,12.8C5.6,12.8,5.6,12.8,5.6,12.8c0.1,0.3,0.1,0.9-0.1,1.5
					c0,0.1,0,0.2,0.1,0.2c0.1,0,0.1,0,0.2,0c0,0,0.4-0.3,0.9-0.3c0,0,0,0,0,0c0,0,0,0,0,0c-0.3,0.5-1,1.3-1.9,1.4h0c0,0,0,0,0,0
					C4.6,15.3,4.4,14.2,5.6,12.8 M3.6,15.7c0.1-0.4,0.3-0.7,0.5-1.1c0,0,0,0,0,0c0,0,0,0,0,0c0.1,0.3,0.2,0.9,0.1,1.5
					c0,0.1,0,0.2,0.1,0.2c0.1,0,0.2,0,0.2,0c0,0,0.4-0.4,0.9-0.4c0,0,0,0,0,0c0,0,0,0,0,0c-0.1,0.1-0.2,0.4-0.4,0.6
					c-0.4,0.6-0.9,0.9-1.4,1.1c0,0,0,0,0,0c0,0,0,0,0,0c0-0.1-0.2-0.4-0.2-0.8C3.5,16.4,3.5,16.1,3.6,15.7 M2.6,17.7
					c0.1-0.4,0.2-0.8,0.4-1.2c0,0,0,0,0,0c0,0,0,0,0,0c0.2,0.3,0.3,0.8,0.3,1.5c0,0.1,0,0.1,0.1,0.2c0.1,0,0.1,0,0.2,0
					c0,0,0.4-0.4,0.9-0.6c0,0,0,0,0,0c0,0,0,0,0,0c0,0.2-0.1,0.4-0.2,0.5c-0.3,0.6-0.7,1-1.3,1.3c0,0,0,0,0,0c0,0,0,0,0,0
					c-0.1-0.1-0.2-0.4-0.3-0.7C2.5,18.5,2.5,18.1,2.6,17.7 M2,18.7C2,18.7,2,18.7,2,18.7C2,18.7,2,18.7,2,18.7
					c0.2,0.3,0.5,0.8,0.5,1.4c0,0.1,0.1,0.1,0.1,0.2c0.1,0,0.1,0,0.2-0.1c0,0,0.3-0.4,0.8-0.7c0,0,0,0,0,0c0,0,0,0,0,0
					c0,0.2-0.1,0.4-0.1,0.6c-0.2,0.6-0.6,1.1-1.2,1.5c0,0,0,0,0,0c0,0,0,0,0,0c-0.1-0.1-0.3-0.3-0.4-0.7c-0.1-0.3-0.2-0.7-0.2-1
					C1.8,19.5,1.9,19.1,2,18.7 M1.4,20.9L1.4,20.9C1.4,20.9,1.4,20.9,1.4,20.9C1.4,20.9,1.4,20.9,1.4,20.9c0.3,0.3,0.6,0.7,0.7,1.3
					c0,0.1,0.1,0.1,0.1,0.1c0.1,0,0.1,0,0.2-0.1c0,0,0.3-0.4,0.7-0.7c0,0,0,0,0,0c0,0,0,0,0,0c0,0.2,0,0.4-0.1,0.6
					c-0.1,0.6-0.5,1.2-0.9,1.6c0,0,0,0,0,0s0,0,0,0c-0.1-0.1-0.3-0.3-0.5-0.7c-0.2-0.3-0.2-0.6-0.3-1C1.3,21.7,1.3,21.3,1.4,20.9
					 M1,23.1C1,23.1,1,23.1,1,23.1C1.1,23.1,1.1,23.1,1,23.1c0.3,0.2,0.6,0.7,0.8,1.3c0,0.1,0.1,0.1,0.2,0.1c0.1,0,0.1,0,0.2-0.1
					c0,0,0.2-0.4,0.6-0.8c0,0,0,0,0,0c0,0,0,0,0,0c0,0.2,0,0.4-0.1,0.7c-0.1,0.7-0.4,1.2-0.8,1.6c0,0,0,0,0,0c0,0,0,0,0,0
					c-0.1-0.1-0.3-0.3-0.5-0.6c-0.2-0.3-0.3-0.6-0.3-1C1,23.9,1,23.5,1,23.1 M0.9,25.4L0.9,25.4C0.9,25.4,0.9,25.4,0.9,25.4
					C0.9,25.4,0.9,25.4,0.9,25.4c0.1,0,0.1,0.1,0.2,0.1c0.2,0.2,0.5,0.6,0.7,1.1c0,0.1,0.1,0.1,0.2,0.1c0,0,0,0,0,0
					C2,26.8,2,26.7,2,26.6c0,0,0.1-0.5,0.5-0.8c0,0,0,0,0,0c0,0,0,0,0,0c0,0.3,0.1,0.7,0,1.1c-0.1,0.5-0.3,0.9-0.6,1.3c0,0,0,0,0,0
					c0,0,0,0,0,0C1.5,27.9,0.7,27.2,0.9,25.4 M0.8,27.6C0.8,27.6,0.8,27.6,0.8,27.6c0.1,0,0.1,0.1,0.2,0.1c0.2,0.2,0.5,0.5,0.8,1.1
					c0,0.1,0.1,0.1,0.2,0.1l0,0v0c0.1,0,0.1,0,0.2-0.1c0,0,0.2-0.5,0.5-0.9c0,0,0,0,0,0c0,0,0,0,0,0c0.1,0.5,0.2,1.4-0.5,2.4
					c0,0,0,0,0,0c0,0,0,0,0,0C1.7,30.1,0.8,29.4,0.8,27.6C0.8,27.6,0.8,27.6,0.8,27.6 M0.9,30L0.9,30C0.9,30,0.9,29.9,0.9,30
					C0.9,29.9,0.9,29.9,0.9,30c0.3,0.1,0.8,0.4,1.2,1C2.1,31,2.1,31,2.2,31c0.1,0,0.1-0.1,0.1-0.1c0,0,0,0,0,0c0,0,0.1-0.5,0.4-1
					c0,0,0,0,0,0h0c0,0,0,0,0,0c0.1,0.2,0.2,0.4,0.2,0.6c0.1,0.6,0,1.3-0.3,1.8c0,0,0,0,0,0c0,0,0,0,0,0c-0.1,0-0.4-0.2-0.7-0.4
					c-0.3-0.2-0.5-0.5-0.7-0.8C1.1,30.8,1,30.4,0.9,30 M1.4,32.1L1.4,32.1C1.4,32.1,1.4,32.1,1.4,32.1C1.4,32.1,1.4,32.1,1.4,32.1
					c0.1,0,0.2,0,0.2,0.1c0.3,0.1,0.7,0.4,1,0.8c0,0.1,0.1,0.1,0.2,0.1c0.1,0,0.1-0.1,0.1-0.1c0,0,0.1-0.5,0.3-1c0,0,0,0,0,0
					s0,0,0,0c0.2,0.5,0.5,1.4,0.1,2.4c0,0,0,0,0,0c0,0,0,0,0,0C2.9,34.3,1.9,33.8,1.4,32.1 M2.7,35.3c-0.2-0.3-0.4-0.6-0.6-1
					c0,0,0,0,0,0c0,0,0,0,0,0c0.1,0,0.1,0,0.2,0.1c0.3,0.1,0.7,0.3,1.1,0.7c0.1,0.1,0.1,0.1,0.2,0c0.1,0,0.1-0.1,0.1-0.2
					c0,0,0-0.5,0.2-1c0,0,0,0,0,0c0,0,0,0,0,0c0.1,0.2,0.2,0.4,0.3,0.6c0.2,0.6,0.3,1.2,0.1,1.8c0,0,0,0,0,0l0,0
					c-0.1,0-0.4-0.1-0.8-0.3C3.2,35.9,2.9,35.6,2.7,35.3 M3,36.4C3,36.4,3,36.3,3,36.4C3,36.3,3,36.3,3,36.4c0.4,0,0.9,0.2,1.4,0.6
					c0.1,0,0.1,0.1,0.2,0c0.1,0,0.1-0.1,0.1-0.2c0,0-0.1-0.5,0-1c0,0,0,0,0,0c0,0,0,0,0,0C4.9,36,5,36.2,5.1,36.4
					c0.2,0.4,0.4,1.1,0.3,1.7c0,0,0,0,0,0c-0.1,0-0.4,0-0.8-0.2c-0.3-0.1-0.6-0.3-0.9-0.6C3.5,37.1,3.2,36.7,3,36.4 M5,39.2
					c-0.3-0.2-0.6-0.5-0.8-0.9c0,0,0,0,0,0c0,0,0,0,0,0c0.3,0,0.9,0.1,1.4,0.5c0.1,0,0.1,0,0.2,0c0.1,0,0.1-0.1,0.1-0.2
					c0,0-0.1-0.5-0.1-1c0,0,0,0,0,0c0,0,0,0,0,0c0.4,0.4,0.9,1.3,0.9,2.2c0,0,0,0,0,0c0,0-0.1,0-0.1,0c-0.2,0-0.4,0-0.7-0.1
					C5.6,39.6,5.3,39.4,5,39.2 M8.2,41.3c0,0-0.2,0-0.3,0c-0.1,0-0.3,0-0.4,0c-0.6-0.1-1.3-0.5-1.9-1.1c0,0,0,0,0,0c0,0,0,0,0,0
					c0.3,0,0.9,0,1.5,0.2c0.1,0,0.1,0,0.2,0c0.1-0.1,0.1-0.1,0-0.2c0,0-0.2-0.5-0.2-1c0,0,0,0,0,0c0,0,0,0,0,0
					C7.6,39.5,8.3,40.3,8.2,41.3C8.2,41.3,8.2,41.3,8.2,41.3 M12.5,43.2c-0.5-0.1-1-0.3-1.5-0.5c-0.8-0.4-1.6-0.8-2.4-1.3
					c0,0,0,0,0,0c0-0.3,0-0.6-0.1-0.9c0,0,0,0,0,0c0,0,0,0,0,0c0.6,0.5,1.1,0.9,1.7,1.2c0.7,0.4,1.3,0.7,2,0.9l0,0l0.2,0.1
					C12.3,42.7,12.4,43,12.5,43.2L12.5,43.2z M13.6,42.6c-0.1,0.2-0.1,0.5,0.1,0.8c0,0,0,0,0,0c0,0,0,0,0,0c0,0,0,0,0,0
					c-0.3-0.1-0.5-0.2-0.7-0.4c-0.1-0.1-0.2-0.3-0.1-0.5c0-0.1,0.1-0.3,0.2-0.3c0.2-0.1,0.5-0.2,1-0.1c0,0,0,0,0,0s0,0,0,0
					C13.8,42.2,13.7,42.4,13.6,42.6 M15,44.9c-0.3,0-0.6-0.3-0.6-0.6c0-0.3,0.3-0.6,0.6-0.6c0.3,0,0.6,0.3,0.6,0.6
					C15.6,44.6,15.4,44.9,15,44.9 M15.8,43.4C15.8,43.5,15.8,43.5,15.8,43.4c-0.2-0.2-0.5-0.3-0.7-0.3c-0.3,0-0.5,0.1-0.7,0.3
					c0,0,0,0,0,0c0,0,0,0,0,0c-0.2-0.2-0.3-0.4-0.2-0.7c0.2-0.5,1-0.5,1-0.5l0,0c0.1,0,0.2,0,0.4,0.1c0.3,0.1,0.5,0.3,0.6,0.5
					C16.1,43,15.9,43.3,15.8,43.4 M17.1,43c-0.1,0.2-0.4,0.3-0.7,0.4c0,0,0,0,0,0c0,0,0,0,0,0c0,0,0,0,0,0c0.1-0.3,0.1-0.5,0.1-0.8
					c-0.1-0.2-0.2-0.4-0.4-0.5c0,0,0,0,0,0c0,0,0,0,0,0c0.3,0,0.8,0,1,0.1c0.1,0.1,0.2,0.2,0.2,0.3C17.3,42.7,17.2,42.8,17.1,43
					 M21.5,41.3C21.5,41.3,21.5,41.3,21.5,41.3c-0.2,0.1-0.8,0.6-1.8,1.1c-0.7,0.3-1.4,0.6-2.1,0.8l-0.1,0c0.1-0.2,0.2-0.4,0.2-0.7
					l0.2-0.1v0c0.7-0.2,1.4-0.5,2-0.9c0.6-0.3,1.2-0.8,1.7-1.2c0,0,0,0,0,0c0,0,0,0,0,0C21.5,40.7,21.5,41,21.5,41.3 M19.7,41.2
					c-0.7,0.4-1.3,0.7-2,0.9l-0.1,0c-0.1-0.1-0.2-0.2-0.3-0.3c-0.7-0.4-1.9-0.1-2.3,0c0,0,0,0,0,0c-0.4-0.1-1.6-0.4-2.3,0
					c-0.1,0.1-0.2,0.2-0.3,0.3l-0.1,0c-0.7-0.2-1.3-0.5-2-0.8c-1.4-0.8-2.7-2-3.8-3.4c-0.4-0.5-0.7-1.1-1.1-1.6c0,0,0,0,0,0
					c0,0,0,0,0,0c0.8-0.3,2.7-1.2,4.4-2.1c0,0,0,0,0,0c0,0,0,0,0,0c0,0.1,0,0.1,0.1,0.2c0.1,0.3,0.5,0.4,0.8,0.5c0.1,0,0.2,0,0.3,0
					c0,0,0,0,0,0c0.1,0.3,0.3,0.5,0.7,0.6c0.1,0,0.2,0.1,0.4,0.1c0,0,0,0,0,0c0.1,0.2,0.2,0.3,0.3,0.4c0.3,0.2,0.8,0.2,1,0.1
					c0,0,0,0,0,0c0.1,0.2,0.3,0.3,0.5,0.3c0.2,0,0.5,0,0.7-0.1c0,0,0,0,0,0c0,0,0,0,0,0v3c0,0.2,0.2,0.4,0.4,0.4
					c0.2,0,0.4-0.2,0.4-0.4v-3.1c0,0,0,0,0,0c0,0,0,0,0,0c0.4,0.1,0.7,0,0.9-0.1c0.2-0.1,0.3-0.2,0.4-0.2c0,0,0,0,0,0
					c0.4,0.1,0.7,0,1-0.3c0.1-0.1,0.1-0.2,0.2-0.3c0,0,0,0,0,0l0,0c0,0,0.1,0,0.1,0c0.5,0,0.8-0.2,0.9-0.4c0.1-0.1,0.1-0.2,0.2-0.3
					c0,0,0,0,0,0c0.3,0,0.6-0.1,0.8-0.3c0.1-0.1,0.2-0.2,0.2-0.3c0,0,0,0,0,0c0,0,0,0,0,0c1.4,1.1,3.5,2,4.4,2.4c0,0,0,0,0,0
					c0,0,0,0,0,0c-0.3,0.5-0.7,1-1,1.5C22.4,39.3,21.1,40.4,19.7,41.2 M24.5,40.2L24.5,40.2c-0.8,0.8-1.5,1-1.9,1.1
					c-0.2,0-0.3,0-0.4,0c-0.1,0-0.2,0-0.3,0c0,0,0,0,0,0c0-0.6,0.2-1.1,0.6-1.7c0.1-0.2,0.3-0.3,0.5-0.5c0,0,0,0,0,0c0,0,0,0,0,0
					c-0.1,0.5-0.2,0.9-0.2,0.9c0,0.1,0,0.1,0,0.2c0,0.1,0.1,0.1,0.2,0C23.6,40.1,24.2,40.1,24.5,40.2C24.5,40.1,24.5,40.1,24.5,40.2
					C24.5,40.2,24.5,40.2,24.5,40.2 M25.9,38.3c-0.3,0.3-0.5,0.6-0.8,0.9c-0.3,0.2-0.6,0.4-0.9,0.5c-0.3,0.1-0.6,0.1-0.7,0.1
					c0,0-0.1,0-0.1,0c0,0,0,0,0,0c0-0.6,0.1-1.1,0.5-1.7c0.1-0.2,0.2-0.4,0.4-0.5c0,0,0,0,0,0c0,0,0,0,0,0c0,0.5,0,0.9-0.1,1
					c0,0.1,0,0.1,0.1,0.2c0.1,0,0.1,0,0.2,0C25,38.4,25.6,38.3,25.9,38.3C25.9,38.3,25.9,38.3,25.9,38.3
					C25.9,38.3,25.9,38.3,25.9,38.3 M27.1,36.4c-0.2,0.4-0.5,0.7-0.7,1c-0.3,0.3-0.6,0.5-0.9,0.6c-0.4,0.2-0.7,0.2-0.8,0.2
					c0,0,0,0,0,0c-0.1-0.5,0-1.1,0.3-1.7c0.1-0.2,0.2-0.4,0.3-0.6c0,0,0,0,0,0c0,0,0,0,0,0c0.1,0.5,0.1,1,0.1,1c0,0.1,0,0.1,0.1,0.2
					c0.1,0,0.1,0,0.2,0C26.2,36.5,26.7,36.4,27.1,36.4C27.1,36.3,27.1,36.3,27.1,36.4C27.1,36.3,27.1,36.4,27.1,36.4 M28,34.2
					L28,34.2c-0.2,0.4-0.4,0.8-0.6,1.1c-0.2,0.3-0.5,0.5-0.8,0.7c-0.3,0.2-0.6,0.3-0.8,0.3l0,0c0,0,0,0,0,0
					c-0.2-0.6-0.1-1.2,0.1-1.8c0.1-0.2,0.2-0.4,0.3-0.6c0,0,0,0,0,0c0,0,0,0,0,0c0.1,0.5,0.2,1,0.2,1c0,0.1,0,0.1,0.1,0.2
					c0.1,0,0.1,0,0.2,0v0c0.4-0.5,0.8-0.7,1.1-0.8C27.8,34.3,27.9,34.2,28,34.2C28,34.2,28,34.2,28,34.2C28,34.2,28,34.2,28,34.2
					 M28.7,32.1L28.7,32.1c-0.1,0.4-0.3,0.8-0.5,1.1c-0.2,0.3-0.5,0.6-0.7,0.8c-0.3,0.2-0.6,0.3-0.7,0.4c0,0,0,0,0,0c0,0,0,0,0,0
					c-0.3-0.6-0.2-1.3-0.1-1.8c0-0.2,0.1-0.4,0.2-0.6c0,0,0,0,0,0c0,0,0,0,0,0c0.2,0.5,0.3,1,0.3,1c0,0.1,0.1,0.1,0.1,0.1
					c0.1,0,0.1,0,0.2-0.1C27.8,32.5,28.3,32.2,28.7,32.1C28.6,32.1,28.7,32.1,28.7,32.1C28.7,32.1,28.7,32.1,28.7,32.1 M28.7,31
					c-0.2,0.3-0.4,0.6-0.6,0.9c-0.3,0.3-0.5,0.4-0.7,0.4c0,0,0,0,0,0c0,0,0,0,0,0c-0.3-0.5-0.4-1.1-0.3-1.8c0-0.2,0.1-0.4,0.1-0.6
					c0,0,0,0,0,0c0,0,0,0,0,0c0.3,0.4,0.4,1,0.4,1c0,0.1,0.1,0.1,0.1,0.1c0.1,0,0.1,0,0.2-0.1c0.4-0.6,0.8-0.9,1.1-1.1c0,0,0,0,0,0
					c0,0,0,0,0,0C29,30.3,28.9,30.7,28.7,31"/>
			</g>
		</g>
	</g>
	<g>
		<path class="st0" d="M46,36.4l-0.8-2.5c0-0.1-0.1-0.1-0.2-0.1h-3.4c-0.1,0-0.2,0.1-0.2,0.1l-0.8,2.5c0,0.1-0.1,0.1-0.2,0.1h-1.3
			c-0.1,0-0.2-0.1-0.2-0.3l3.1-9.2c0-0.1,0.1-0.1,0.2-0.1h2.2c0.1,0,0.2,0.1,0.2,0.1l3.1,9.2c0,0.1-0.1,0.3-0.2,0.3h-1.3
			C46.1,36.5,46,36.5,46,36.4z M42.1,32.4h2.3c0.1,0,0.2-0.1,0.2-0.3l-1.1-3.5c-0.1-0.2-0.3-0.2-0.4,0l-1.1,3.5
			C41.9,32.3,42,32.4,42.1,32.4z"/>
		<path class="st0" d="M48.9,29.5h1c0.1,0,0.2,0.1,0.2,0.2l0.1,0.7h0.1c0.2-0.3,0.5-0.6,0.8-0.8c0.3-0.2,0.7-0.3,1.1-0.3
			c0.1,0,0.3,0,0.4,0c0.1,0,0.2,0.1,0.2,0.2v1.1c0,0.1-0.1,0.2-0.2,0.2c-0.1,0-0.3,0-0.4,0c-0.3,0-0.7,0.1-1,0.2
			c-0.3,0.1-0.5,0.3-0.7,0.5c0,0,0,0.1,0,0.1v4.5c0,0.1-0.1,0.2-0.2,0.2h-1.3c-0.1,0-0.2-0.1-0.2-0.2v-6.7
			C48.7,29.6,48.8,29.5,48.9,29.5z"/>
		<path class="st0" d="M54.9,39.5c-0.3,0-0.7-0.1-1-0.2c-0.1,0-0.2-0.1-0.2-0.2v-0.9c0-0.1,0.1-0.2,0.3-0.2c0.7,0.2,1.3,0.3,1.9,0.3
			c0.5,0,0.9-0.1,1.2-0.2c0.3-0.1,0.5-0.3,0.7-0.6c0.1-0.3,0.2-0.6,0.2-1.1v-0.6h-0.1c-0.2,0.3-0.5,0.5-0.8,0.6
			c-0.3,0.1-0.7,0.2-1.1,0.2c-0.5,0-1-0.1-1.4-0.4c-0.4-0.2-0.7-0.6-1-1.1c-0.2-0.5-0.4-1.2-0.4-1.9c0-1.2,0.3-2.2,1-2.8
			c0.6-0.6,1.6-1,2.9-1c0.4,0,0.9,0,1.3,0.1c0.4,0.1,0.7,0.1,1.1,0.2c0.1,0,0.1,0.1,0.1,0.2V36c0,0.8-0.1,1.5-0.4,2
			c-0.3,0.5-0.7,0.9-1.2,1.1c-0.5,0.2-1.2,0.4-2,0.4C55.7,39.5,55.3,39.5,54.9,39.5z M57.4,35.1c0.2-0.1,0.4-0.2,0.5-0.4
			c0,0,0.1-0.1,0.1-0.1V31c0-0.1-0.1-0.2-0.2-0.2c-0.3-0.1-0.5-0.1-0.8-0.1c-0.7,0-1.2,0.2-1.5,0.6c-0.3,0.4-0.5,1-0.5,1.8
			c0,0.8,0.1,1.4,0.4,1.7c0.3,0.3,0.7,0.5,1.2,0.5C56.9,35.2,57.2,35.2,57.4,35.1z"/>
		<path class="st0" d="M66.9,33.5H63c-0.1,0-0.2,0.1-0.2,0.2c0,0.4,0.1,0.6,0.2,0.9c0.2,0.3,0.4,0.5,0.7,0.6
			c0.3,0.1,0.7,0.2,1.3,0.2c0.5,0,1-0.1,1.5-0.2c0.1,0,0.3,0.1,0.3,0.2v0.9c0,0.1-0.1,0.2-0.2,0.2c-0.6,0.1-1.2,0.2-1.8,0.2
			c-0.8,0-1.5-0.1-2.1-0.4c-0.5-0.3-0.9-0.7-1.2-1.2c-0.3-0.5-0.4-1.2-0.4-2.1c0-0.8,0.1-1.5,0.4-2c0.2-0.5,0.6-1,1.1-1.2
			c0.5-0.3,1-0.4,1.7-0.4c1,0,1.7,0.3,2.2,0.9c0.5,0.6,0.8,1.5,0.8,2.8v0.3C67.1,33.4,67,33.5,66.9,33.5z M63.1,30.9
			c-0.2,0.3-0.3,0.7-0.4,1.3c0,0.1,0.1,0.2,0.2,0.2h2.4c0.1,0,0.2-0.1,0.2-0.2c0-0.6-0.1-1.1-0.4-1.3c-0.2-0.3-0.6-0.5-1-0.5
			C63.7,30.5,63.4,30.6,63.1,30.9z"/>
		<path class="st0" d="M68.6,29.5h1c0.1,0,0.2,0.1,0.2,0.2l0.1,0.6H70c0.3-0.3,0.6-0.5,0.9-0.6c0.4-0.1,0.8-0.2,1.2-0.2
			c0.7,0,1.3,0.2,1.7,0.6c0.4,0.4,0.6,1.1,0.6,2v4.3c0,0.1-0.1,0.2-0.2,0.2H73c-0.1,0-0.2-0.1-0.2-0.2v-4.2c0-0.5-0.1-0.8-0.3-1
			c-0.2-0.2-0.5-0.3-0.9-0.3c-0.3,0-0.6,0.1-0.8,0.2c-0.3,0.1-0.5,0.3-0.6,0.5c0,0,0,0.1,0,0.1v4.7c0,0.1-0.1,0.2-0.2,0.2h-1.3
			c-0.1,0-0.2-0.1-0.2-0.2v-6.7C68.4,29.6,68.5,29.5,68.6,29.5z"/>
		<path class="st0" d="M80.3,35.4v0.9c0,0.1-0.1,0.2-0.2,0.2c-0.4,0.1-0.7,0.1-1.1,0.1c-1.7,0-2.5-0.8-2.5-2.5V31
			c0-0.1-0.1-0.2-0.2-0.2h-0.8c-0.1,0-0.2-0.1-0.2-0.2v-0.9c0-0.1,0.1-0.2,0.2-0.2h0.8c0.1,0,0.2-0.1,0.2-0.2l0.3-2.2
			c0-0.1,0.1-0.2,0.2-0.2h1c0.1,0,0.2,0.1,0.2,0.2v2.1c0,0.1,0.1,0.2,0.2,0.2h1.6c0.1,0,0.2,0.1,0.2,0.2v0.9c0,0.1-0.1,0.2-0.2,0.2
			h-1.6c-0.1,0-0.2,0.1-0.2,0.2v2.8c0,0.3,0,0.6,0.1,0.8c0.1,0.2,0.2,0.3,0.4,0.4c0.2,0.1,0.4,0.1,0.7,0.1c0.2,0,0.3,0,0.5,0
			C80.2,35.2,80.3,35.3,80.3,35.4z"/>
		<path class="st0" d="M81.6,28c-0.2-0.2-0.3-0.4-0.3-0.7s0.1-0.5,0.3-0.7c0.2-0.2,0.4-0.2,0.8-0.2c0.4,0,0.6,0.1,0.8,0.2
			c0.2,0.2,0.3,0.4,0.3,0.7s-0.1,0.5-0.3,0.7c-0.2,0.2-0.4,0.2-0.8,0.2C82,28.3,81.8,28.2,81.6,28z M81.5,36.3v-6.7
			c0-0.1,0.1-0.2,0.2-0.2H83c0.1,0,0.2,0.1,0.2,0.2v6.7c0,0.1-0.1,0.2-0.2,0.2h-1.3C81.6,36.5,81.5,36.5,81.5,36.3z"/>
		<path class="st0" d="M84.8,29.5h1c0.1,0,0.2,0.1,0.2,0.2l0.1,0.6h0.1c0.3-0.3,0.6-0.5,0.9-0.6c0.4-0.1,0.8-0.2,1.2-0.2
			c0.7,0,1.3,0.2,1.7,0.6c0.4,0.4,0.6,1.1,0.6,2v4.3c0,0.1-0.1,0.2-0.2,0.2h-1.3c-0.1,0-0.2-0.1-0.2-0.2v-4.2c0-0.5-0.1-0.8-0.3-1
			c-0.2-0.2-0.5-0.3-0.9-0.3c-0.3,0-0.6,0.1-0.8,0.2c-0.3,0.1-0.5,0.3-0.6,0.5c0,0,0,0.1,0,0.1v4.7c0,0.1-0.1,0.2-0.2,0.2h-1.3
			c-0.1,0-0.2-0.1-0.2-0.2v-6.7C84.6,29.6,84.7,29.5,84.8,29.5z"/>
		<path class="st0" d="M96.5,29.6c0.4,0.2,0.8,0.5,1,0.9c0.2,0.4,0.3,1,0.3,1.7v4.2c0,0.1-0.1,0.2-0.2,0.2h-1
			c-0.1,0-0.2-0.1-0.2-0.2l-0.1-0.6h-0.1c-0.2,0.3-0.5,0.5-0.8,0.6c-0.3,0.1-0.7,0.2-1.1,0.2c-0.5,0-0.9-0.1-1.2-0.2
			c-0.3-0.2-0.6-0.4-0.8-0.7c-0.2-0.3-0.3-0.7-0.3-1.1c0-0.7,0.2-1.2,0.7-1.5c0.4-0.4,1.2-0.6,2.1-0.7l1.3-0.1v-0.3
			c0-0.4-0.1-0.6-0.2-0.8c-0.1-0.2-0.3-0.4-0.5-0.4c-0.2-0.1-0.6-0.1-1-0.1c-0.3,0-0.6,0-0.9,0.1c-0.2,0-0.5,0.1-0.7,0.1
			c-0.1,0-0.3-0.1-0.3-0.2v-0.9c0-0.1,0.1-0.2,0.1-0.2c0.3-0.1,0.6-0.1,0.9-0.2c0.4-0.1,0.8-0.1,1.1-0.1
			C95.4,29.4,96,29.5,96.5,29.6z M95.5,35.3c0.2-0.1,0.4-0.2,0.6-0.4c0,0,0.1-0.1,0.1-0.1v-1.2c0-0.1-0.1-0.2-0.2-0.2L95,33.5
			c-0.4,0-0.8,0.2-1,0.3c-0.2,0.2-0.3,0.4-0.3,0.7c0,0.3,0.1,0.5,0.3,0.7c0.2,0.2,0.5,0.2,0.8,0.2C95,35.5,95.3,35.4,95.5,35.3z"/>
	</g>
	<g>
		<g>
			<path class="st0" d="M45.3,14.5h1.5v7h-1.2v-5.3l-1.9,4.3h-1.1l-1.9-4.2v5.2h-1.2v-7h1.5l2.1,4.7L45.3,14.5z"/>
			<path class="st0" d="M48.2,15.3C48.1,15.2,48,15,48,14.8s0.1-0.4,0.2-0.5c0.1-0.1,0.3-0.2,0.6-0.2c0.3,0,0.5,0.1,0.6,0.2
				c0.1,0.1,0.2,0.3,0.2,0.5s-0.1,0.4-0.2,0.5c-0.1,0.1-0.3,0.2-0.6,0.2C48.5,15.4,48.3,15.4,48.2,15.3z M48.2,21.5v-5.2h1.2v5.2
				H48.2z"/>
			<path class="st0" d="M50.7,16.3h1l0.1,0.5h0.1c0.2-0.2,0.4-0.4,0.7-0.5c0.3-0.1,0.6-0.2,0.9-0.2c0.5,0,1,0.2,1.3,0.5
				c0.3,0.3,0.5,0.8,0.5,1.5v3.3h-1.2v-3.2c0-0.3-0.1-0.6-0.2-0.7c-0.1-0.1-0.4-0.2-0.6-0.2c-0.2,0-0.4,0-0.6,0.1
				c-0.2,0.1-0.4,0.2-0.5,0.4v3.7h-1.2V16.3z"/>
			<path class="st0" d="M56.4,15.3c-0.1-0.1-0.2-0.3-0.2-0.5s0.1-0.4,0.2-0.5c0.1-0.1,0.3-0.2,0.6-0.2c0.3,0,0.5,0.1,0.6,0.2
				c0.1,0.1,0.2,0.3,0.2,0.5s-0.1,0.4-0.2,0.5c-0.1,0.1-0.3,0.2-0.6,0.2C56.7,15.4,56.5,15.4,56.4,15.3z M56.3,21.5v-5.2h1.2v5.2
				H56.3z"/>
			<path class="st0" d="M58.7,21.4v-0.9c0.5,0.2,1,0.2,1.6,0.2c0.4,0,0.6-0.1,0.8-0.2c0.2-0.1,0.3-0.3,0.3-0.5c0-0.2,0-0.3-0.1-0.4
				c-0.1-0.1-0.2-0.2-0.5-0.2l-0.8-0.1c-0.5-0.1-0.8-0.3-1-0.5c-0.2-0.2-0.3-0.6-0.3-1c0-0.3,0.1-0.6,0.3-0.8
				c0.2-0.2,0.4-0.4,0.8-0.6c0.3-0.1,0.8-0.2,1.3-0.2c0.5,0,0.9,0.1,1.3,0.2v0.9c-0.4-0.1-0.8-0.2-1.3-0.2c-0.8,0-1.2,0.2-1.2,0.6
				c0,0.2,0,0.3,0.1,0.4c0.1,0.1,0.2,0.2,0.4,0.2l0.8,0.1c0.5,0.1,0.8,0.3,1,0.5c0.2,0.2,0.3,0.6,0.3,1c0,0.3-0.1,0.6-0.3,0.9
				c-0.2,0.2-0.4,0.4-0.8,0.6c-0.3,0.1-0.7,0.2-1.2,0.2C59.6,21.6,59.1,21.5,58.7,21.4z"/>
			<path class="st0" d="M66.4,20.5v1c-0.3,0.1-0.6,0.1-0.9,0.1c-1.2,0-1.8-0.6-1.8-1.9v-2.4h-0.9v-1h0.9l0.2-1.8h1v1.8h1.4v1h-1.4
				v2.2c0,0.3,0,0.5,0.1,0.6c0.1,0.1,0.2,0.3,0.3,0.3c0.1,0.1,0.3,0.1,0.5,0.1C65.9,20.6,66.1,20.6,66.4,20.5z"/>
			<path class="st0" d="M71.3,19.3h-3.2c0,0.3,0.1,0.6,0.2,0.8c0.1,0.2,0.3,0.3,0.5,0.4c0.2,0.1,0.5,0.1,0.9,0.1
				c0.4,0,0.8-0.1,1.3-0.2v0.9c-0.5,0.1-1,0.2-1.5,0.2c-0.6,0-1.1-0.1-1.5-0.3c-0.4-0.2-0.7-0.5-0.9-0.9c-0.2-0.4-0.3-0.9-0.3-1.5
				c0-0.6,0.1-1.1,0.3-1.5c0.2-0.4,0.4-0.7,0.8-0.9c0.3-0.2,0.8-0.3,1.2-0.3c0.7,0,1.2,0.2,1.6,0.7c0.4,0.5,0.6,1.1,0.6,2V19.3z
				 M68.3,17.4c-0.2,0.2-0.3,0.6-0.3,1.1h2c0-0.5-0.1-0.9-0.3-1.1c-0.2-0.2-0.4-0.3-0.7-0.3C68.8,17.1,68.5,17.2,68.3,17.4z"/>
			<path class="st0" d="M72.2,16.3h1l0.1,0.7h0.1c0.2-0.2,0.4-0.4,0.6-0.6c0.2-0.1,0.5-0.2,0.8-0.2c0.1,0,0.3,0,0.4,0v1.1
				c-0.1,0-0.3,0-0.5,0c-0.2,0-0.5,0.1-0.7,0.2c-0.2,0.1-0.4,0.2-0.6,0.4v3.5h-1.2V16.3z"/>
			<path class="st0" d="M76,15.3c-0.1-0.1-0.2-0.3-0.2-0.5s0.1-0.4,0.2-0.5c0.1-0.1,0.3-0.2,0.6-0.2c0.3,0,0.5,0.1,0.6,0.2
				c0.1,0.1,0.2,0.3,0.2,0.5s-0.1,0.4-0.2,0.5c-0.1,0.1-0.3,0.2-0.6,0.2C76.3,15.4,76.1,15.4,76,15.3z M76,21.5v-5.2h1.3v5.2H76z"/>
			<path class="st0" d="M78.8,20.9c-0.4-0.4-0.6-1.1-0.6-2c0-0.9,0.2-1.6,0.6-2c0.4-0.4,1-0.7,1.8-0.7c0.8,0,1.4,0.2,1.8,0.7
				c0.4,0.4,0.6,1.1,0.6,2c0,0.6-0.1,1.1-0.3,1.5c-0.2,0.4-0.5,0.7-0.8,0.9c-0.4,0.2-0.8,0.3-1.3,0.3C79.9,21.6,79.3,21.4,78.8,20.9
				z M81.5,20.3c0.2-0.3,0.3-0.7,0.3-1.3c0-0.6-0.1-1.1-0.3-1.3c-0.2-0.3-0.5-0.4-0.9-0.4c-0.4,0-0.7,0.1-0.9,0.4
				c-0.2,0.3-0.3,0.7-0.3,1.3c0,0.4,0,0.8,0.1,1c0.1,0.3,0.2,0.4,0.4,0.5c0.2,0.1,0.4,0.2,0.6,0.2C81,20.7,81.3,20.5,81.5,20.3z"/>
			<path class="st0" d="M87.2,21.3c-0.3-0.2-0.6-0.5-0.8-0.8c-0.2-0.4-0.3-0.9-0.3-1.5c0-0.9,0.2-1.6,0.7-2.1c0.5-0.5,1.1-0.7,2-0.7
				c0.2,0,0.4,0,0.7,0.1v-2.5h1.2v7.7h-1.1L89.7,21h-0.1c-0.2,0.2-0.4,0.4-0.6,0.5c-0.2,0.1-0.5,0.2-0.8,0.2
				C87.8,21.6,87.5,21.5,87.2,21.3z M89.1,20.5c0.2-0.1,0.3-0.2,0.4-0.3v-2.8c-0.2,0-0.4-0.1-0.7-0.1c-0.5,0-0.9,0.1-1.1,0.4
				c-0.2,0.3-0.4,0.7-0.4,1.3c0,0.6,0.1,1,0.3,1.3c0.2,0.2,0.5,0.4,0.9,0.4C88.8,20.6,89,20.5,89.1,20.5z"/>
			<path class="st0" d="M96.3,19.3h-3.2c0,0.3,0.1,0.6,0.2,0.8c0.1,0.2,0.3,0.3,0.5,0.4c0.2,0.1,0.5,0.1,0.9,0.1
				c0.4,0,0.8-0.1,1.3-0.2v0.9c-0.5,0.1-1,0.2-1.5,0.2c-0.6,0-1.1-0.1-1.5-0.3c-0.4-0.2-0.7-0.5-0.9-0.9c-0.2-0.4-0.3-0.9-0.3-1.5
				c0-0.6,0.1-1.1,0.3-1.5c0.2-0.4,0.4-0.7,0.8-0.9c0.3-0.2,0.8-0.3,1.2-0.3c0.7,0,1.2,0.2,1.6,0.7c0.4,0.5,0.6,1.1,0.6,2V19.3z
				 M93.3,17.4c-0.2,0.2-0.3,0.6-0.3,1.1h2c0-0.5-0.1-0.9-0.3-1.1c-0.2-0.2-0.4-0.3-0.7-0.3C93.8,17.1,93.5,17.2,93.3,17.4z"/>
			<path class="st0" d="M97.2,21.5v-7.7h1.2v7.7H97.2z"/>
			<path class="st0" d="M102.1,21.5v-7h1.3v7H102.1z"/>
			<path class="st0" d="M104.7,16.3h1l0.1,0.5h0.1c0.2-0.2,0.4-0.4,0.7-0.5c0.3-0.1,0.6-0.2,0.9-0.2c0.5,0,1,0.2,1.3,0.5
				c0.3,0.3,0.5,0.8,0.5,1.5v3.3h-1.2v-3.2c0-0.3-0.1-0.6-0.2-0.7c-0.1-0.1-0.4-0.2-0.6-0.2c-0.2,0-0.4,0-0.6,0.1
				c-0.2,0.1-0.4,0.2-0.5,0.4v3.7h-1.2V16.3z"/>
			<path class="st0" d="M113.5,20.5v1c-0.3,0.1-0.6,0.1-0.9,0.1c-1.2,0-1.8-0.6-1.8-1.9v-2.4h-0.9v-1h0.9l0.2-1.8h1v1.8h1.5v1H112
				v2.2c0,0.3,0,0.5,0.1,0.6c0.1,0.1,0.2,0.3,0.3,0.3c0.1,0.1,0.3,0.1,0.5,0.1C113,20.6,113.2,20.6,113.5,20.5z"/>
			<path class="st0" d="M118.4,19.3h-3.2c0,0.3,0.1,0.6,0.2,0.8c0.1,0.2,0.3,0.3,0.5,0.4c0.2,0.1,0.5,0.1,0.9,0.1
				c0.4,0,0.8-0.1,1.3-0.2v0.9c-0.5,0.1-1,0.2-1.5,0.2c-0.6,0-1.1-0.1-1.5-0.3c-0.4-0.2-0.7-0.5-0.9-0.9c-0.2-0.4-0.3-0.9-0.3-1.5
				c0-0.6,0.1-1.1,0.3-1.5c0.2-0.4,0.4-0.7,0.8-0.9c0.3-0.2,0.8-0.3,1.2-0.3c0.7,0,1.2,0.2,1.6,0.7c0.4,0.5,0.6,1.1,0.6,2V19.3z
				 M115.4,17.4c-0.2,0.2-0.3,0.6-0.3,1.1h2c0-0.5-0.1-0.9-0.3-1.1c-0.2-0.2-0.4-0.3-0.7-0.3C115.9,17.1,115.6,17.2,115.4,17.4z"/>
			<path class="st0" d="M119.3,16.3h1l0.1,0.7h0.1c0.2-0.2,0.4-0.4,0.6-0.6c0.2-0.1,0.5-0.2,0.8-0.2c0.1,0,0.3,0,0.4,0v1.1
				c-0.1,0-0.3,0-0.5,0c-0.2,0-0.5,0.1-0.7,0.2c-0.2,0.1-0.4,0.2-0.6,0.4v3.5h-1.2V16.3z"/>
			<path class="st0" d="M123.1,15.3c-0.1-0.1-0.2-0.3-0.2-0.5s0.1-0.4,0.2-0.5c0.1-0.1,0.3-0.2,0.6-0.2c0.3,0,0.5,0.1,0.6,0.2
				c0.1,0.1,0.2,0.3,0.2,0.5s-0.1,0.4-0.2,0.5c-0.1,0.1-0.3,0.2-0.6,0.2C123.4,15.4,123.2,15.4,123.1,15.3z M123,21.5v-5.2h1.2v5.2
				H123z"/>
			<path class="st0" d="M125.9,20.9c-0.4-0.4-0.6-1.1-0.6-2c0-0.9,0.2-1.6,0.6-2c0.4-0.4,1-0.7,1.8-0.7c0.8,0,1.4,0.2,1.8,0.7
				c0.4,0.4,0.6,1.1,0.6,2c0,0.6-0.1,1.1-0.3,1.5c-0.2,0.4-0.5,0.7-0.8,0.9c-0.4,0.2-0.8,0.3-1.3,0.3
				C126.9,21.6,126.3,21.4,125.9,20.9z M128.6,20.3c0.2-0.3,0.3-0.7,0.3-1.3c0-0.6-0.1-1.1-0.3-1.3c-0.2-0.3-0.5-0.4-0.9-0.4
				c-0.4,0-0.7,0.1-0.9,0.4c-0.2,0.3-0.3,0.7-0.3,1.3c0,0.4,0,0.8,0.1,1c0.1,0.3,0.2,0.4,0.4,0.5c0.2,0.1,0.4,0.2,0.6,0.2
				C128.1,20.7,128.4,20.5,128.6,20.3z"/>
			<path class="st0" d="M131.1,16.3h1l0.1,0.7h0.1c0.2-0.2,0.4-0.4,0.6-0.6c0.2-0.1,0.5-0.2,0.8-0.2c0.1,0,0.3,0,0.4,0v1.1
				c-0.1,0-0.3,0-0.5,0c-0.2,0-0.5,0.1-0.7,0.2c-0.2,0.1-0.4,0.2-0.6,0.4v3.5h-1.2V16.3z"/>
		</g>
	</g>
</g>
</svg>
