<?xml version="1.0" encoding="utf-8"?>
<!-- Generator: Adobe Illustrator 24.0.2, SVG Export Plug-In . SVG Version: 6.00 Build 0)  -->
<svg version="1.1" id="Capa_1" xmlns="http://www.w3.org/2000/svg" xmlns:xlink="http://www.w3.org/1999/xlink" x="0px" y="0px"
	 viewBox="0 0 391.24 141.12" style="enable-background:new 0 0 391.24 141.12;" xml:space="preserve">
<style type="text/css">
	.st0{fill:#13B4E9;}
	.st1{fill:#FFFFFF;}
	.st2{fill:#231F20;}
	.st3{fill:#FDC514;}
	.st4{fill:#5AAB47;}
	.st5{fill:#E84429;}
	.st6{fill:#F9BC81;}
	.st7{fill:#020303;}
</style>
<path class="st0" d="M46.62,68.69h-7.46c-1.63,0-2.52-0.68-2.99-1.24c-0.4-0.49-0.66-1.11-0.78-1.84c-0.01-0.06-0.02-0.11-0.02-0.17
	c-0.09-0.68-0.05-1.44,0.11-2.25c0.97-4.88,2.93-8.17,4.54-10.19c-0.18-0.06-0.35-0.13-0.52-0.22c-1.03-0.58-1.53-1.77-1.3-3.1
	c0.28-1.62,1.81-3.26,2.08-3.54c2.57-3,6.39-3.17,6.86-3.17c0.57-0.04,5.59-0.26,8.3,5.02c3.24,6.3,4,11.5,4.62,15.69l0.03,0.2
	c0.11,0.73,0.06,1.34-0.07,1.84c-0.01,0.06-0.03,0.11-0.05,0.17c-0.18,0.58-0.48,1.01-0.76,1.31c-0.67,0.73-1.66,1.2-2.93,1.4
	c-0.54,0.09-1.01,0.1-1.32,0.1c-0.15,0-0.25,0-0.3-0.01h-2.15h-0.04h-0.05h-3.57v10.55h33.3c0-6.17-0.92-12.16-2.73-17.8
	c-1.74-5.43-4.24-10.31-7.42-14.5c-3.17-4.17-6.85-7.45-10.95-9.73c-4.22-2.35-8.71-3.55-13.33-3.55c-4.62,0-9.1,1.2-13.33,3.55
	c-4.1,2.28-7.78,5.56-10.94,9.73c-3.18,4.19-5.67,9.06-7.42,14.5c-1.81,5.64-2.72,11.62-2.72,17.8h33.29V68.69z"/>
<path class="st1" d="M13.33,79.23c0,4.69,0.53,9.27,1.58,13.67c14.89-1.69,23.78-3.45,26.42-5.21c1.85-1.31,3.35-2.07,5.3-2.01
	v-6.45H13.33z"/>
<path class="st1" d="M48.86,85.94c1.34,0.24,2.3,0.61,3.4,1.15c0.11,0,0.22-0.01,0.33-0.01c1.91-0.09,3.53,0.5,5.78,1.31
	c0.61,0.22,1.31,0.47,2.07,0.73c0.32,0.1,11.04,3.46,20.1,3.98c1.08-4.46,1.62-9.1,1.62-13.86h-33.3V85.94z"/>
<polyline class="st2" points="45.54,27.84 45.54,27.84 45.54,27.84 "/>
<polyline class="st2" points="38.6,28.86 38.6,28.86 38.6,28.87 38.6,28.86 "/>
<path class="st1" d="M62.42,100.48c-0.14,0.29-0.33,0.59-0.61,0.86c-0.56,0.54-1.31,0.83-2.24,0.87c-0.12,0.26-0.3,0.57-0.56,0.87
	c-0.51,0.58-1.41,1.21-2.91,1.14c-0.14,0.24-0.33,0.52-0.59,0.79c-0.74,0.76-1.74,1.05-2.83,0.86c-0.26,0.21-0.64,0.46-1.15,0.67
	c-0.63,0.25-1.54,0.44-2.67,0.21v8.83c0,0.62-0.5,1.12-1.12,1.12c-0.62,0-1.12-0.5-1.12-1.12v-8.46c-0.44,0.16-0.93,0.28-1.44,0.28
	c-0.2,0-0.39-0.02-0.59-0.06c-0.62-0.12-1.16-0.45-1.58-0.97c-0.75,0.12-2.05,0.21-2.98-0.43c-0.38-0.26-0.66-0.62-0.83-1.04
	c-0.3-0.03-0.67-0.1-1.05-0.22c-0.98-0.31-1.65-0.88-1.96-1.64c-0.23-0.01-0.49-0.03-0.77-0.07c-0.81-0.12-1.85-0.47-2.26-1.41
	c-0.09-0.2-0.15-0.41-0.17-0.62c-4.74,2.44-10.16,4.88-12.59,5.96c0.94,1.62,1.96,3.16,3.07,4.62c3.17,4.17,6.85,7.44,10.94,9.73
	c1.91,1.07,3.88,1.89,5.89,2.48c0.2-0.38,0.49-0.7,0.87-0.95c1.91-1.25,5.54-0.34,6.57-0.04c1.03-0.29,4.66-1.2,6.57,0.04
	c0.38,0.25,0.67,0.57,0.87,0.95c2.01-0.59,3.97-1.41,5.89-2.48c4.1-2.28,7.78-5.56,10.95-9.73c1.04-1.37,2.01-2.82,2.9-4.34
	C72.22,106.08,66.26,103.45,62.42,100.48"/>
<path class="st0" d="M50.8,130.71c0.06-0.24,0.1-0.5,0.1-0.76c0-0.24-0.03-0.48-0.08-0.7c1.12-0.22,2.94-0.76,3.95-2
	c0.59-0.72,0.83-1.56,0.73-2.51c-0.09-0.83-0.5-1.51-1.18-1.95c-1.91-1.25-5.54-0.34-6.57-0.04c-1.03-0.3-4.66-1.2-6.57,0.04
	c-0.68,0.44-1.08,1.12-1.18,1.95c-0.11,0.95,0.14,1.79,0.73,2.51c1.02,1.24,2.85,1.78,3.97,2c-0.05,0.22-0.08,0.46-0.08,0.7
	c0,0.26,0.03,0.51,0.09,0.74c-0.81,0.8-3.44,3.11-7.25,3.53v0c0.11,0.2,0.45,0.74,1.11,1.33c3.38-0.63,5.77-2.49,6.86-3.5
	c0.11,0.12,0.23,0.23,0.35,0.33c-0.24,0.93-1.25,3.32-5.37,4.36c0.68,0.31,1.5,0.57,2.48,0.71c2.86-1.3,3.89-3.28,4.25-4.43
	c0.2,0.04,0.41,0.06,0.62,0.06c0.2,0,0.4-0.02,0.59-0.06c0.36,1.15,1.38,3.13,4.24,4.43c0.98-0.14,1.8-0.4,2.48-0.71
	c-4.1-1.03-5.12-3.4-5.37-4.34c0.13-0.1,0.25-0.21,0.36-0.34c1.1,1.01,3.48,2.86,6.85,3.49c0.66-0.59,1-1.14,1.11-1.33
	C54.25,133.8,51.63,131.52,50.8,130.71"/>
<path class="st1" d="M53.5,124.03c0.31,0.2,0.47,0.48,0.52,0.87c0.06,0.54-0.07,1-0.4,1.4c-0.44,0.54-1.18,0.91-1.91,1.17
	c0.36-0.75,0.41-1.5,0.15-2.21c-0.26-0.71-0.7-1.21-1.19-1.57C51.79,123.57,52.89,123.63,53.5,124.03"/>
<path class="st1" d="M45.02,125.77c0.55-1.49,2.64-1.51,2.72-1.51c0,0,0.56,0,1.19,0.2c0.79,0.25,1.3,0.69,1.53,1.31
	c0.25,0.67-0.22,1.37-0.63,1.82c-0.55-0.49-1.28-0.79-2.08-0.79c-0.8,0-1.54,0.3-2.09,0.8C45.25,127.16,44.77,126.46,45.02,125.77"
	/>
<path class="st1" d="M43.78,127.47c-0.73-0.25-1.47-0.63-1.91-1.17c-0.33-0.4-0.46-0.86-0.4-1.41c0.04-0.39,0.21-0.67,0.51-0.87
	c0.44-0.28,1.12-0.39,1.88-0.39c0.31,0,0.63,0.02,0.96,0.05c-0.49,0.36-0.92,0.87-1.19,1.57C43.33,126.08,43.47,126.84,43.78,127.47
	"/>
<path class="st1" d="M46.1,129.94c0-0.91,0.74-1.66,1.66-1.66c0.91,0,1.66,0.74,1.66,1.66c0,0.91-0.74,1.66-1.66,1.66
	C46.84,131.6,46.1,130.86,46.1,129.94"/>
<path class="st1" d="M56.92,135.55c-3.37-0.63-5.76-2.48-6.85-3.49c-0.11,0.12-0.23,0.23-0.36,0.34c0.25,0.95,1.26,3.31,5.36,4.34
	C55.86,136.38,56.47,135.95,56.92,135.55"/>
<path class="st1" d="M45.43,132.05c-1.09,1.01-3.49,2.87-6.87,3.5c0.45,0.41,1.06,0.83,1.85,1.19c4.12-1.04,5.13-3.43,5.37-4.36
	C45.66,132.28,45.54,132.17,45.43,132.05"/>
<path class="st2" d="M89.4,88.1c0.03-0.24-0.06-0.48-0.25-0.63c-0.14-0.12-0.32-0.18-0.5-0.17c0.14-0.3,0.28-0.61,0.39-0.93
	c0.52-1.41,0.79-3.04,0.81-4.84c0-0.24-0.12-0.47-0.32-0.6c-0.15-0.1-0.32-0.14-0.49-0.12c0.11-0.3,0.2-0.6,0.28-0.92
	c0.38-1.46,0.49-3.11,0.33-4.9c-0.02-0.24-0.16-0.45-0.37-0.57c-0.16-0.08-0.34-0.11-0.51-0.07c0.09-0.35,0.17-0.71,0.23-1.08
	c0.23-1.49,0.18-3.14-0.15-4.91c-0.05-0.24-0.21-0.43-0.43-0.53c-0.12-0.05-0.25-0.07-0.38-0.05c0.05-0.25,0.08-0.51,0.11-0.76
	c0.16-1.5,0.03-3.15-0.38-4.9c-0.06-0.24-0.22-0.42-0.45-0.51c-0.23-0.08-0.48-0.05-0.67,0.1l0,0c0.03-0.39,0.04-0.79,0.03-1.19
	c-0.05-1.51-0.4-3.12-1.06-4.8c-0.09-0.22-0.28-0.39-0.52-0.44c-0.19-0.04-0.39,0-0.55,0.11c-0.01-0.36-0.04-0.73-0.09-1.1
	c-0.2-1.49-0.72-3.06-1.55-4.67c-0.11-0.21-0.32-0.36-0.56-0.38c-0.19-0.02-0.39,0.04-0.54,0.16c-0.05-0.34-0.12-0.67-0.21-1.01
	c-0.38-1.46-1.08-2.96-2.09-4.46c-0.14-0.2-0.36-0.31-0.6-0.31c-0.23,0-0.45,0.12-0.58,0.31c-0.12-0.39-0.27-0.79-0.44-1.17
	c-0.61-1.38-1.54-2.75-2.78-4.07c-0.17-0.18-0.43-0.26-0.67-0.21c-0.17,0.04-0.33,0.14-0.43,0.28c-0.19-0.39-0.4-0.78-0.64-1.15
	c-0.81-1.26-1.93-2.45-3.33-3.54c-0.19-0.15-0.44-0.19-0.67-0.11c-0.18,0.06-0.33,0.19-0.41,0.36c-0.93-1.24-2.24-2.17-3.91-2.77
	c0.29,0.03,0.59,0.05,0.9,0.07c1.98,0.12,3.37-0.3,3.43-0.32c0.42-0.13,0.69-0.54,0.63-0.98c-0.05-0.44-0.41-0.77-0.85-0.79
	c-2.16-0.1-2.97-0.55-4-1.11c-0.2-0.11-0.4-0.22-0.61-0.33l5.07-0.76c0.44-0.07,0.77-0.45,0.77-0.9c0-0.45-0.33-0.83-0.77-0.89
	l-5.03-0.72c0.58-0.16,1.26-0.35,1.96-0.6c1.87-0.65,3-1.57,3.05-1.61c0.34-0.28,0.43-0.76,0.21-1.14c-0.22-0.38-0.68-0.55-1.09-0.4
	c-2.03,0.73-2.95,0.63-4.12,0.51c-0.22-0.02-0.45-0.05-0.68-0.07l4.38-2.63c0.38-0.23,0.54-0.71,0.37-1.12
	c-0.17-0.41-0.62-0.64-1.06-0.53l-4.94,1.26c0.48-0.37,1.04-0.82,1.59-1.31c1.48-1.32,2.17-2.6,2.2-2.65
	c0.21-0.39,0.1-0.87-0.24-1.14c-0.35-0.27-0.84-0.25-1.16,0.05c-1.6,1.46-2.48,1.72-3.61,2.05c-0.21,0.06-0.42,0.12-0.65,0.2
	l3.04-4.1c0.27-0.36,0.23-0.86-0.09-1.18c-0.32-0.32-0.82-0.35-1.18-0.08l-4.1,3.06c0.3-0.53,0.65-1.16,0.97-1.83
	c0.86-1.78,1.01-3.23,1.01-3.29c0.04-0.44-0.24-0.84-0.66-0.96c-0.42-0.12-0.87,0.09-1.06,0.49c-0.92,1.96-1.64,2.54-2.55,3.28
	c-0.17,0.14-0.34,0.27-0.51,0.42l1.24-4.93c0.11-0.44-0.12-0.88-0.53-1.06s-0.89-0.01-1.12,0.37l-2.63,4.41
	c0.08-0.61,0.16-1.33,0.2-2.08c0.11-1.98-0.31-3.37-0.33-3.43c-0.13-0.42-0.54-0.69-0.98-0.63c-0.44,0.06-0.77,0.42-0.79,0.86
	c-0.1,2.16-0.54,2.97-1.09,4c-0.1,0.19-0.2,0.38-0.31,0.58l-0.73-5.03c-0.07-0.44-0.45-0.77-0.89-0.77h0
	c-0.45,0-0.83,0.33-0.89,0.78l-0.71,5c-0.15-0.58-0.35-1.25-0.59-1.93c-0.65-1.87-1.56-3-1.6-3.05c-0.28-0.34-0.76-0.43-1.14-0.21
	c-0.38,0.22-0.55,0.68-0.4,1.09c0.73,2.03,0.63,2.95,0.51,4.12c-0.02,0.22-0.05,0.45-0.07,0.7l-2.65-4.4
	c-0.23-0.38-0.71-0.54-1.12-0.37c-0.41,0.17-0.64,0.62-0.53,1.06l1.26,4.91c-0.37-0.48-0.81-1.02-1.29-1.57
	c-1.31-1.48-2.6-2.17-2.65-2.2c-0.39-0.21-0.87-0.1-1.14,0.24c-0.27,0.35-0.25,0.84,0.05,1.16c1.46,1.6,1.72,2.49,2.05,3.61
	c0.06,0.21,0.13,0.43,0.2,0.66l-4.12-3.05c-0.36-0.27-0.86-0.23-1.18,0.09c-0.32,0.32-0.35,0.82-0.08,1.18l3.05,4.07
	c-0.52-0.3-1.14-0.64-1.81-0.96c-1.78-0.86-3.23-1.01-3.29-1.02c-0.44-0.04-0.84,0.24-0.96,0.66s0.09,0.87,0.49,1.06
	c1.96,0.92,2.54,1.64,3.27,2.55c0.14,0.17,0.28,0.34,0.43,0.52l-4.96-1.24c-0.44-0.11-0.88,0.12-1.06,0.53
	c-0.17,0.41-0.01,0.89,0.38,1.12l4.4,2.61c-0.6-0.08-1.31-0.16-2.06-0.2c-1.98-0.11-3.37,0.31-3.43,0.32
	c-0.42,0.13-0.69,0.54-0.63,0.98c0.05,0.44,0.41,0.77,0.85,0.79c2.16,0.1,2.97,0.54,4,1.1c0.19,0.1,0.38,0.21,0.59,0.31l-5.05,0.74
	c-0.44,0.07-0.77,0.45-0.77,0.9c0,0.45,0.33,0.83,0.77,0.89l5.08,0.74c-0.59,0.16-1.28,0.36-1.99,0.61c-1.87,0.65-3,1.58-3.04,1.61
	c-0.34,0.28-0.43,0.76-0.21,1.14c0.22,0.38,0.68,0.55,1.09,0.4c1.18-0.43,1.98-0.57,2.68-0.6c-1.09,0.95-1.87,1.71-2.26,2.2
	c-0.2,0.26-0.39,0.52-0.57,0.79c-0.09-0.14-0.22-0.25-0.38-0.3c-0.23-0.08-0.48-0.04-0.67,0.11c-1.43,1.11-2.58,2.31-3.4,3.58
	c-0.24,0.37-0.45,0.75-0.64,1.13c-0.11-0.16-0.28-0.28-0.48-0.31c-0.24-0.04-0.48,0.04-0.64,0.21c-1.24,1.32-2.17,2.69-2.78,4.07
	c-0.16,0.37-0.3,0.74-0.42,1.12c-0.12-0.12-0.28-0.19-0.46-0.2c-0.24-0.01-0.47,0.1-0.61,0.29c-1.07,1.45-1.83,2.92-2.27,4.36
	c-0.12,0.38-0.21,0.76-0.28,1.14c-0.15-0.17-0.37-0.26-0.61-0.24c-0.24,0.02-0.45,0.17-0.56,0.38c-0.84,1.59-1.38,3.16-1.59,4.65
	c-0.05,0.37-0.09,0.74-0.1,1.11c-0.17-0.14-0.39-0.19-0.61-0.14c-0.23,0.05-0.42,0.22-0.51,0.45c-0.63,1.69-0.96,3.31-0.99,4.81
	c-0.01,0.37,0.01,0.73,0.04,1.09c-0.18-0.11-0.4-0.13-0.6-0.06c-0.23,0.08-0.4,0.27-0.45,0.51c-0.42,1.75-0.55,3.4-0.38,4.9
	c0.03,0.28,0.07,0.56,0.12,0.84c-0.1-0.01-0.21,0.01-0.31,0.05c-0.22,0.09-0.38,0.29-0.43,0.53c-0.33,1.77-0.39,3.42-0.15,4.91
	c0.06,0.38,0.14,0.76,0.24,1.12c-0.1,0-0.2,0.03-0.29,0.07c-0.22,0.11-0.36,0.31-0.39,0.55c-0.22,1.79-0.17,3.44,0.16,4.91
	c0.07,0.32,0.16,0.64,0.25,0.94c-0.16-0.02-0.33,0.01-0.47,0.1c-0.21,0.13-0.33,0.35-0.33,0.59c-0.03,1.8,0.2,3.44,0.68,4.87
	c0.14,0.41,0.3,0.82,0.49,1.2c-0.05-0.01-0.08-0.02-0.09-0.03c-0.23-0.06-0.48,0-0.66,0.16c-0.18,0.16-0.26,0.4-0.23,0.64
	c0.28,1.78,0.79,3.35,1.51,4.68c0.14,0.26,0.29,0.5,0.44,0.74c-0.13,0.03-0.24,0.1-0.33,0.2c-0.17,0.17-0.23,0.42-0.18,0.66
	c0.41,1.75,1.04,3.28,1.86,4.55c0.2,0.3,0.4,0.59,0.62,0.86c-0.19,0.02-0.37,0.12-0.49,0.28c-0.15,0.19-0.18,0.45-0.1,0.67
	c0.62,1.69,1.41,3.14,2.38,4.31c0.21,0.25,0.43,0.5,0.66,0.73c-0.17,0.05-0.32,0.17-0.41,0.32c-0.12,0.21-0.13,0.47-0.02,0.68
	c0.81,1.61,1.78,2.96,2.87,4.01c0.23,0.22,0.47,0.43,0.72,0.63c-0.16,0.07-0.29,0.2-0.37,0.36c-0.1,0.22-0.08,0.48,0.05,0.68
	c0.98,1.52,2.08,2.76,3.27,3.69c0.36,0.28,0.73,0.54,1.12,0.76c-0.08,0.03-0.14,0.04-0.15,0.05c-0.23,0.08-0.4,0.27-0.46,0.51
	c-0.06,0.24,0.01,0.48,0.18,0.66c1.24,1.3,2.53,2.32,3.81,3.05c1.05,0.59,2.1,1,3.14,1.19c0.9,0.17,1.8,0.17,2.53,0.03
	c0.05-0.01,0.1-0.02,0.14-0.03c2.23,1.56,4.58,2.88,7,3.9c2.03,0.86,4.12,1.52,6.2,1.96c0.44,0.09,0.85,0.17,1.25,0.24
	c-0.87-0.32-1.77-0.81-2.38-1.56c-0.11-0.13-0.2-0.27-0.28-0.41c-1.44-0.39-2.87-0.88-4.27-1.48c-2.32-0.98-4.57-2.23-6.71-3.73
	c0.01-0.04,0.02-0.07,0.02-0.08c0.03-0.72-0.05-1.45-0.24-2.17c1.54,1.24,2.91,2.25,4.41,3.09c2.05,1.14,4.16,2.02,6.32,2.63
	c0-0.12,0.01-0.25,0.02-0.38c0.04-0.37,0.15-0.7,0.31-1c-2.01-0.59-3.97-1.41-5.89-2.48c-4.1-2.28-7.78-5.56-10.95-9.73
	c-1.11-1.46-2.13-3-3.07-4.62c2.43-1.08,7.85-3.52,12.59-5.96c0.03,0.21,0.08,0.41,0.17,0.62c0.41,0.94,1.46,1.29,2.26,1.41
	c0.28,0.04,0.54,0.06,0.77,0.07c0.31,0.76,0.98,1.33,1.96,1.64c0.38,0.12,0.76,0.19,1.05,0.22c0.17,0.43,0.45,0.78,0.83,1.04
	c0.93,0.63,2.23,0.55,2.98,0.43c0.42,0.51,0.96,0.84,1.58,0.96c0.2,0.04,0.39,0.06,0.59,0.06c0.51,0,1-0.12,1.44-0.28v8.46
	c0,0.62,0.5,1.12,1.12,1.12c0.62,0,1.12-0.5,1.12-1.12v-8.83c1.13,0.23,2.04,0.03,2.67-0.21c0.51-0.2,0.9-0.46,1.15-0.67
	c1.09,0.19,2.09-0.1,2.83-0.86c0.26-0.26,0.45-0.55,0.59-0.79c1.51,0.07,2.41-0.56,2.92-1.14c0.26-0.3,0.44-0.61,0.55-0.87
	c0.93-0.04,1.68-0.33,2.24-0.87c0.28-0.27,0.48-0.57,0.61-0.86c3.83,2.97,9.8,5.6,12.49,6.71c-0.89,1.52-1.86,2.96-2.9,4.34
	c-3.17,4.17-6.85,7.44-10.95,9.73c-1.91,1.07-3.88,1.89-5.89,2.48c0.16,0.3,0.26,0.63,0.31,1c0.01,0.13,0.02,0.25,0.02,0.38
	c2.17-0.62,4.28-1.5,6.32-2.64c1.6-0.89,3.08-2.02,4.46-3.12c-0.2,0.73-0.29,1.46-0.25,2.19c0,0.04,0.01,0.07,0.01,0.11
	c-0.66,0.5-2.39,1.75-4.92,2.99c-1.9,0.93-3.88,1.67-5.87,2.2c-0.08,0.02-0.17,0.04-0.25,0.06c-0.07,0.12-0.15,0.23-0.24,0.34
	c-0.62,0.76-1.55,1.25-2.43,1.58c1.1-0.17,2.2-0.4,3.3-0.69c2.08-0.56,4.14-1.33,6.13-2.31c2.67-1.31,4.46-2.61,5.14-3.13
	c0.04,0.01,0.07,0.03,0.11,0.04c0.75,0.15,1.65,0.14,2.55-0.03c1.03-0.19,2.09-0.59,3.14-1.19c1.29-0.73,2.57-1.75,3.81-3.05
	c0.17-0.17,0.24-0.42,0.18-0.66c-0.06-0.24-0.23-0.43-0.46-0.51c-0.02,0-0.05-0.02-0.11-0.03c0.39-0.23,0.77-0.49,1.14-0.77
	c1.2-0.93,2.3-2.17,3.28-3.69c0.13-0.2,0.15-0.46,0.05-0.68c-0.07-0.16-0.21-0.29-0.36-0.36c0.24-0.2,0.48-0.41,0.72-0.63
	c1.09-1.05,2.06-2.4,2.87-4.01c0.11-0.22,0.1-0.47-0.02-0.68c-0.11-0.19-0.3-0.31-0.52-0.35c0.25-0.25,0.49-0.52,0.72-0.79
	c0.96-1.17,1.76-2.62,2.38-4.31c0.08-0.21,0.05-0.45-0.08-0.64c-0.13-0.19-0.34-0.31-0.56-0.32h0c0.21-0.26,0.41-0.53,0.6-0.82
	c0.84-1.26,1.49-2.78,1.93-4.52c0.06-0.24,0-0.48-0.17-0.66c-0.15-0.16-0.36-0.24-0.58-0.23c0.2-0.31,0.38-0.63,0.55-0.97
	C88.73,91.48,89.18,89.89,89.4,88.1 M88.56,82.5c0.01,0.01,0.02,0.02,0.02,0.03c-0.09,1.23-0.32,2.35-0.68,3.35
	c-0.36,1-0.86,1.89-1.49,2.62c-0.73,0.86-1.49,1.32-1.78,1.48c-0.01,0-0.01,0-0.01,0c-0.02,0-0.03,0-0.03-0.01
	c-0.99-1.34-1.47-2.99-1.44-4.9c0.01-0.61,0.08-1.23,0.2-1.84c0-0.01,0.01-0.03,0.03-0.03c0.01,0,0.03,0,0.04,0.01
	c0.88,1.08,1.37,2.51,1.38,2.53c0.07,0.21,0.26,0.35,0.47,0.36c0.21,0.01,0.42-0.1,0.51-0.3c0.82-1.7,1.94-2.74,2.75-3.3
	C88.53,82.5,88.54,82.5,88.56,82.5 M88.42,76.1c0.01-0.01,0.03-0.01,0.04-0.01c0.01,0.01,0.02,0.02,0.02,0.03
	c0.03,1.23-0.08,2.38-0.34,3.4c-0.26,1.03-0.67,1.96-1.22,2.75c-0.64,0.93-1.35,1.46-1.62,1.64c-0.01,0-0.01,0.01-0.02,0.01
	c0,0-0.02,0-0.03-0.01c-1.74-1.97-1.91-4.9-1.85-6.46c0-0.02,0.01-0.03,0.02-0.03c0.02,0,0.03,0,0.04,0.01
	c0.94,1.02,1.57,2.27,1.57,2.28c0.1,0.19,0.29,0.31,0.51,0.3c0.21-0.01,0.4-0.15,0.47-0.35C86.66,77.88,87.68,76.74,88.42,76.1
	 M87.73,69.59c0.01-0.01,0.03-0.01,0.04-0.01c0.01,0,0.02,0.02,0.03,0.03c0.15,1.22,0.15,2.37-0.01,3.42
	c-0.16,1.06-0.48,2.02-0.94,2.86c-0.56,1-1.22,1.6-1.48,1.81c-0.01,0.01-0.02,0.01-0.02,0.01c-0.02,0-0.02,0-0.03-0.01
	c-1.72-1.43-2.24-4.51-2.4-6.23c0-0.01,0.01-0.03,0.02-0.04c0.01-0.01,0.03,0,0.04,0.01c1.01,0.91,1.73,2.06,1.74,2.07
	c0.11,0.18,0.32,0.28,0.53,0.24c0.21-0.03,0.38-0.19,0.43-0.39C86.15,71.54,87.05,70.31,87.73,69.59 M86.71,63.42
	c0.01-0.01,0.02-0.02,0.04-0.01c0.01,0,0.02,0.01,0.03,0.03c0.21,1.21,0.26,2.36,0.15,3.41c-0.11,1.06-0.38,2.04-0.81,2.9
	c-0.5,1.01-1.12,1.64-1.37,1.86c-0.01,0.01-0.02,0.01-0.03,0.01c0,0-0.02,0-0.02-0.01c-1.45-1.22-2.14-3.03-2.46-4.32
	c-0.14-0.58-0.25-1.19-0.31-1.81c0-0.02,0.01-0.03,0.02-0.04c0.01-0.01,0.03-0.01,0.04,0c1.08,0.87,1.88,2.03,1.89,2.04
	c0.12,0.18,0.34,0.26,0.55,0.22c0.21-0.04,0.37-0.21,0.41-0.41C85.22,65.43,86.06,64.16,86.71,63.42 M37.34,63.81
	c0.01-0.08,0.03-0.17,0.04-0.25c0.85-4.25,2.51-7.16,3.76-8.84c0.94-1.26,1.79-2.05,2.21-2.41c0.14-0.1,0.27-0.21,0.4-0.32
	c0.41-0.35,0.47-0.96,0.14-1.39c-0.33-0.43-0.94-0.52-1.38-0.21c-0.04,0.03-0.19,0.14-0.43,0.33c-0.94,0.66-1.49,0.45-1.63,0.37
	c-0.31-0.17-0.44-0.58-0.35-1.09c0.16-0.92,1.19-2.14,1.58-2.54c0.02-0.02,0.03-0.04,0.05-0.06c2.09-2.46,5.42-2.52,5.45-2.52
	c0.03,0,0.06,0,0.1,0c0.01,0,1.05-0.08,2.34,0.34c1.78,0.59,3.16,1.81,4.1,3.63c1.31,2.55,2.31,5.13,3.04,7.87
	c-1.85-0.66-3.33-1.86-3.34-1.88C52.99,54.5,52.35,54.57,52,55c-0.17,0.21-0.25,0.47-0.23,0.74c0.03,0.27,0.16,0.51,0.36,0.69
	c0.1,0.08,2.39,1.96,5.18,2.58c0.2,0.93,0.38,1.91,0.56,3.05c-0.89-0.45-1.94-0.73-2.79-0.96c-0.59-0.16-1.14-0.3-1.57-0.47
	c-1.9-0.76-3.52-2.03-3.53-2.04c-0.44-0.35-1.08-0.27-1.42,0.17c-0.35,0.44-0.27,1.08,0.17,1.42c0.07,0.06,1.86,1.46,4.04,2.33
	c0.55,0.22,1.16,0.38,1.81,0.55c2.41,0.64,3.5,1.13,3.55,2.32c-0.07,0.19-0.17,0.35-0.3,0.5c-0.77,0.83-2.46,0.92-3.04,0.88
	c-0.02,0-0.05,0-0.07,0h-2.27c-0.44-0.01-2.76-0.1-4.76-1.39C42.54,62.05,40.21,62.57,37.34,63.81 M46.07,66.75h-6.91
	c-0.71,0-1.19-0.17-1.49-0.53c-0.06-0.07-0.12-0.16-0.17-0.26C40.4,64.64,41.93,64.18,46.07,66.75 M48.86,79.23V68.69h3.57h0.05
	h0.03h2.15c0.05,0,0.16,0.01,0.31,0.01c0.3,0,0.78-0.02,1.31-0.1c1.28-0.21,2.26-0.68,2.94-1.4c0.28-0.3,0.57-0.73,0.76-1.31
	c0.02-0.05,0.04-0.11,0.05-0.17c0.13-0.51,0.18-1.11,0.07-1.84l-0.03-0.2c-0.62-4.18-1.38-9.38-4.62-15.69
	c-2.71-5.28-7.74-5.06-8.3-5.02c-0.47,0.01-4.29,0.17-6.86,3.17c-0.27,0.28-1.81,1.92-2.08,3.54c-0.23,1.33,0.27,2.51,1.3,3.1
	c0.17,0.09,0.34,0.17,0.52,0.23c-1.61,2.01-3.57,5.31-4.54,10.18c-0.16,0.82-0.2,1.58-0.11,2.25c0,0.06,0.01,0.11,0.02,0.17
	c0.12,0.72,0.38,1.35,0.78,1.84c0.47,0.57,1.36,1.24,2.99,1.24h7.46v10.55v6.45c-1.95-0.06-3.45,0.7-5.3,2.01
	c-2.64,1.76-11.53,3.52-26.42,5.21c-1.05-4.4-1.58-8.98-1.58-13.67c0-6.17,0.92-12.16,2.73-17.8c1.74-5.43,4.24-10.31,7.42-14.5
	c3.17-4.17,6.85-7.44,10.95-9.73c4.22-2.35,8.71-3.55,13.33-3.55c4.62,0,9.1,1.19,13.33,3.55c4.1,2.28,7.78,5.56,10.95,9.73
	c3.18,4.19,5.67,9.07,7.42,14.5c1.81,5.64,2.73,11.62,2.73,17.8c0,4.75-0.55,9.4-1.62,13.86c-9.06-0.52-19.77-3.88-20.1-3.98
	c-0.76-0.26-1.46-0.51-2.07-0.73c-2.25-0.81-3.87-1.39-5.78-1.31c-0.11,0-0.22,0.01-0.33,0.01c-1.1-0.54-2.06-0.9-3.4-1.15V79.23z
	 M62.94,31.57c-0.55,0.22-1.4,0.51-2.37,0.69c-0.61,0.11-1.19,0.17-1.74,0.17c-1.3,0-2.42-0.32-3.33-0.96
	c-0.01-0.01-0.02-0.02-0.02-0.03c0-0.01,0.01-0.03,0.02-0.03c0.42-0.24,1.1-0.57,1.96-0.77c0.93-0.22,1.88-0.25,2.83-0.09
	c0.89,0.15,1.78,0.47,2.65,0.96c0.01,0.01,0.02,0.02,0.02,0.03C62.96,31.55,62.95,31.56,62.94,31.57 M64.24,35.24
	c0.01,0.01,0.01,0.02,0.01,0.03c0,0.01-0.01,0.02-0.02,0.03c-0.38,0.13-0.98,0.29-1.71,0.32c-0.09,0-0.17,0-0.25,0
	c-1.54,0-3.05-0.57-4.49-1.68c-0.01-0.01-0.02-0.02-0.01-0.04c0-0.01,0.01-0.03,0.03-0.03c0.65-0.21,1.3-0.33,1.94-0.37
	C61.53,33.4,63.05,33.98,64.24,35.24 M57.11,29.53c-0.61,0.28-1.66,0.66-3.24,0.85c-0.22,0.03-0.4,0.19-0.45,0.4
	c-0.05,0.21,0.03,0.44,0.22,0.57c0.01,0.01,1.23,0.85,2.12,1.97c0.01,0.01,0.01,0.03,0,0.04c-0.01,0.01-0.02,0.02-0.03,0.02h0
	c-1.48-0.05-4.27-0.48-6.26-2.86c-0.01-0.02-0.01-0.04,0-0.05c0.31-0.3,0.87-0.73,1.71-1.04c1.59-0.6,3.64-0.59,5.92,0.03
	c0.01,0,0.03,0.02,0.03,0.03C57.14,29.51,57.13,29.52,57.11,29.53 M50.46,28.44c-0.53,0.41-1.48,1-3.04,1.48
	c-0.22,0.07-0.37,0.27-0.38,0.49c-0.01,0.23,0.13,0.44,0.35,0.52c0.01,0,1.33,0.51,2.4,1.4c0.01,0.01,0.02,0.03,0.01,0.04
	c0,0.01-0.02,0.03-0.03,0.03c-0.37,0.03-0.82,0.06-1.32,0.06c-1.6,0-3.7-0.29-5.33-1.52c-0.01-0.01-0.02-0.03-0.01-0.05
	c0.25-0.36,0.7-0.88,1.46-1.36c1.45-0.91,3.48-1.31,5.87-1.15c0.02,0,0.03,0.01,0.03,0.03C50.48,28.41,50.47,28.43,50.46,28.44
	 M43.62,28.55c-0.39,0.53-1.18,1.32-2.74,2.09c-0.21,0.1-0.32,0.32-0.29,0.55c0.03,0.23,0.21,0.41,0.43,0.45
	c0.01,0,1.41,0.27,2.65,0.89c0.01,0.01,0.02,0.02,0.02,0.04c0,0.02-0.01,0.03-0.03,0.03c-0.58,0.19-1.18,0.34-1.76,0.45
	c-0.53,0.09-1.16,0.17-1.84,0.17c-1.01,0-2.13-0.16-3.19-0.65c-0.02-0.01-0.03-0.03-0.02-0.05c0.16-0.4,0.49-1.01,1.12-1.64
	c1.23-1.22,3.17-2.05,5.61-2.39c0.01,0,0.03,0,0.04,0.02C43.63,28.52,43.63,28.54,43.62,28.55 M34.82,32.75
	c-0.17,0.14-0.23,0.38-0.15,0.59c0.08,0.21,0.28,0.34,0.5,0.34h0c0,0,0.59,0,1.36,0.1c0.52,0.07,1,0.17,1.43,0.3
	c0.01,0,0.03,0.02,0.03,0.03c0,0.02-0.01,0.03-0.02,0.04c-0.55,0.28-1.13,0.52-1.7,0.72c-1.25,0.43-2.32,0.58-3.21,0.58
	c-0.78,0-1.41-0.11-1.89-0.25c-0.02,0-0.03-0.02-0.03-0.04c0.23-1.12,1.27-3.9,6.03-5.52c0.01,0,0.03,0,0.04,0.01
	c0.01,0.01,0.01,0.03,0.01,0.04C36.91,30.41,36.24,31.52,34.82,32.75 M83.43,61.23c0.12-1.88,0.78-3.26,1.32-4.08
	c0.01-0.01,0.02-0.02,0.04-0.02c0.01,0,0.03,0.01,0.03,0.03c0.38,1.17,0.59,2.31,0.62,3.36c0.04,1.07-0.1,2.07-0.4,2.98
	c-0.36,1.07-0.89,1.77-1.1,2.03c-0.01,0.01-0.02,0.01-0.02,0.01c-0.02,0-0.02,0-0.03,0c-1.34-0.84-2.38-2.18-3.09-3.98
	c-0.22-0.55-0.4-1.14-0.53-1.74c0-0.01,0-0.03,0.01-0.04c0.01-0.01,0.03-0.01,0.04,0c1.2,0.72,2.17,1.77,2.18,1.78
	c0.14,0.16,0.37,0.21,0.57,0.14C83.27,61.63,83.41,61.45,83.43,61.23 M81.3,55.33c-0.07-1.88,0.44-3.32,0.89-4.19
	c0.01-0.01,0.02-0.02,0.03-0.02c0.01,0,0.03,0.01,0.03,0.02c0.5,1.13,0.82,2.23,0.97,3.28c0.15,1.06,0.12,2.07-0.09,3
	c-0.24,1.1-0.7,1.85-0.88,2.13c-0.01,0.01-0.02,0.02-0.03,0.02c0,0-0.01,0-0.02,0c-1.43-0.7-2.6-1.93-3.49-3.65
	c-0.27-0.53-0.51-1.09-0.71-1.67c0-0.01,0-0.03,0.01-0.04c0.01-0.01,0.03-0.01,0.04-0.01c1.26,0.59,2.35,1.54,2.36,1.55
	c0.16,0.14,0.39,0.17,0.58,0.08C81.19,55.75,81.31,55.55,81.3,55.33 M78.33,50.33L78.33,50.33c0.19-0.11,0.29-0.33,0.26-0.54
	c-0.3-1.86,0.05-3.34,0.39-4.26c0.01-0.01,0.02-0.02,0.03-0.03c0.02,0,0.03,0.01,0.04,0.02c0.63,1.07,1.08,2.13,1.35,3.15
	c0.27,1.03,0.36,2.04,0.26,2.99c-0.11,1.12-0.48,1.92-0.63,2.21c-0.01,0.01-0.02,0.02-0.03,0.02c0,0-0.01,0-0.01,0
	c-1.61-0.56-2.95-1.65-4-3.26c-0.34-0.51-0.63-1.07-0.87-1.64c-0.01-0.01,0-0.03,0.01-0.04c0.01-0.01,0.02-0.02,0.04-0.01
	c1.38,0.39,2.56,1.33,2.58,1.33C77.9,50.42,78.14,50.44,78.33,50.33 M74.34,45.21c0.19,0.13,0.44,0.13,0.62-0.01
	c0.18-0.13,0.26-0.37,0.19-0.59c-0.52-1.66-0.43-3.21-0.27-4.22c0-0.01,0.01-0.03,0.03-0.03c0.01,0,0.03,0,0.04,0.01
	c0.77,0.94,1.38,1.89,1.8,2.85c0.44,0.98,0.69,1.96,0.74,2.91c0.07,1.08-0.14,1.89-0.26,2.28c0,0.02-0.02,0.03-0.03,0.03H77.2
	c-1.57-0.29-3.04-1.16-4.37-2.57c-0.44-0.47-0.85-0.98-1.22-1.53c-0.01-0.01-0.01-0.03,0-0.04c0.01-0.01,0.02-0.02,0.03-0.02
	C73.14,44.39,74.33,45.21,74.34,45.21 M70.35,40.65c0.21,0.08,0.44,0.03,0.59-0.14c0.15-0.16,0.18-0.41,0.08-0.6
	c-0.87-1.67-1.02-3.18-0.99-4.15c0-0.01,0.01-0.03,0.02-0.03c0.01-0.01,0.03,0,0.04,0.01c0.9,0.8,1.65,1.65,2.22,2.53
	c0.58,0.9,0.99,1.83,1.21,2.77c0.26,1.12,0.19,2.01,0.15,2.34c0,0.02-0.02,0.03-0.04,0.03c-0.03,0-0.06,0-0.09,0
	c-1.78,0-3.41-0.97-4.48-1.79c-0.53-0.41-1.05-0.87-1.54-1.38c-0.01-0.01-0.01-0.03-0.01-0.04c0-0.01,0.02-0.02,0.03-0.02
	c0.07,0,0.13,0,0.2,0C69.1,40.17,70.34,40.65,70.35,40.65 M68.77,36.51c0.42,1.08,0.47,2.09,0.46,2.6c0,0.02-0.02,0.03-0.03,0.04
	c-0.09,0.01-0.19,0.01-0.28,0.01c-2.19,0-4.74-1.47-6.09-2.37c-0.01-0.01-0.02-0.02-0.02-0.04c0-0.01,0.01-0.03,0.03-0.03
	c1.39-0.27,2.71,0.04,2.72,0.04c0.22,0.05,0.45-0.04,0.57-0.23c0.12-0.19,0.11-0.44-0.03-0.62c-0.86-1.08-1.4-2.33-1.7-3.19
	c0-0.01,0-0.03,0.01-0.04c0.01-0.01,0.02-0.01,0.04-0.01C66.6,33.38,68.06,34.68,68.77,36.51 M29.05,30.04
	c0.1-0.04,0.21-0.08,0.31-0.11c1.29-0.45,2.51-0.75,3.13-0.89c1.42-0.32,2.42-0.94,2.47-0.97c0.13-0.08,0.19-0.24,0.16-0.38
	c-0.03-0.15-0.15-0.26-0.31-0.28l-6.31-0.92l6.31-0.93c0.18-0.03,0.31-0.18,0.31-0.36c0-0.18-0.13-0.33-0.31-0.36
	c-0.01,0-1.37-0.21-2.79-0.85c-0.42-0.19-0.79-0.39-1.11-0.56c-0.56-0.3-1.09-0.59-1.81-0.82c0.11,0,0.22,0.01,0.33,0.01
	c1.37,0.08,2.61,0.27,3.23,0.38c1.44,0.25,2.6,0.06,2.65,0.05c0.15-0.03,0.27-0.14,0.3-0.29c0.03-0.15-0.04-0.3-0.17-0.38
	l-5.48-3.25l6.19,1.55c0.17,0.05,0.36-0.05,0.43-0.21c0.07-0.17,0.01-0.36-0.15-0.45c-0.01-0.01-1.18-0.72-2.25-1.86
	c-0.31-0.33-0.56-0.64-0.81-0.94c-0.4-0.49-0.78-0.97-1.36-1.45c0.1,0.04,0.2,0.09,0.3,0.14c1.23,0.6,2.31,1.26,2.84,1.59
	c1.24,0.79,2.38,1.05,2.43,1.06c0.15,0.03,0.3-0.03,0.39-0.16c0.08-0.13,0.08-0.3-0.01-0.42l-3.82-5.1l5.13,3.79
	c0.14,0.11,0.35,0.09,0.47-0.04c0.13-0.13,0.14-0.33,0.03-0.47c-0.08-0.12-0.84-1.18-1.37-2.57c-0.16-0.42-0.27-0.81-0.38-1.19
	c-0.18-0.61-0.35-1.19-0.7-1.86c0.08,0.08,0.15,0.16,0.23,0.25c0.91,1.02,1.65,2.04,2.01,2.56c0.81,1.16,1.73,1.83,1.84,1.91
	c0.12,0.09,0.29,0.09,0.42,0c0.13-0.09,0.18-0.24,0.15-0.39L40.39,8.7l3.29,5.47c0.09,0.15,0.29,0.22,0.45,0.15
	c0.17-0.07,0.26-0.25,0.21-0.42c-0.01-0.06-0.33-1.37-0.28-2.9c0.01-0.45,0.06-0.85,0.1-1.24c0.07-0.63,0.13-1.24,0.07-1.99
	c0.04,0.1,0.08,0.21,0.11,0.31c0.45,1.29,0.74,2.52,0.88,3.13c0.31,1.38,0.9,2.36,0.96,2.47c0.08,0.13,0.24,0.19,0.38,0.16
	c0.15-0.03,0.26-0.15,0.28-0.31l0.88-6.25l0.91,6.26c0.03,0.18,0.18,0.31,0.36,0.31c0.18,0,0.33-0.13,0.36-0.31
	c0.01-0.06,0.21-1.38,0.85-2.79c0.19-0.41,0.38-0.76,0.56-1.11c0.3-0.56,0.59-1.1,0.82-1.81c0,0.11-0.01,0.22-0.01,0.34
	c-0.08,1.36-0.27,2.61-0.38,3.23c-0.25,1.43-0.05,2.6-0.05,2.65c0.03,0.15,0.14,0.27,0.29,0.3c0.15,0.03,0.3-0.04,0.38-0.17
	L55.1,8.7l-1.55,6.18c-0.04,0.17,0.05,0.36,0.21,0.43c0.17,0.07,0.36,0.01,0.45-0.15c0.07-0.12,0.77-1.23,1.85-2.25
	c0.32-0.31,0.63-0.55,0.94-0.81c0.49-0.4,0.97-0.78,1.45-1.36c-0.04,0.1-0.09,0.2-0.14,0.3c-0.59,1.23-1.25,2.31-1.59,2.84
	c-0.78,1.22-1.05,2.38-1.06,2.43c-0.03,0.15,0.03,0.3,0.16,0.39c0.13,0.08,0.29,0.08,0.41-0.01l5.1-3.81l-3.8,5.11
	c-0.11,0.15-0.09,0.34,0.03,0.48c0.13,0.13,0.33,0.14,0.47,0.03c0.01-0.01,1.12-0.82,2.57-1.37c0.42-0.16,0.8-0.27,1.18-0.38
	c0.61-0.18,1.19-0.35,1.86-0.7c-0.08,0.08-0.16,0.15-0.25,0.23c-1.02,0.91-2.04,1.65-2.56,2.01c-1.19,0.83-1.88,1.8-1.91,1.84
	c-0.09,0.13-0.09,0.29,0,0.42c0.09,0.13,0.24,0.18,0.39,0.15l6.17-1.57l-5.46,3.28c-0.15,0.09-0.22,0.29-0.15,0.45
	c0.07,0.17,0.25,0.26,0.43,0.21c0.14-0.03,1.42-0.33,2.9-0.28c0.46,0.01,0.85,0.06,1.24,0.1c0.63,0.07,1.24,0.13,1.99,0.07
	c-0.1,0.04-0.21,0.08-0.31,0.11c-1.3,0.45-2.52,0.74-3.13,0.88c-1.43,0.32-2.43,0.94-2.47,0.96c-0.13,0.08-0.19,0.24-0.16,0.38
	c0.03,0.15,0.15,0.26,0.3,0.28l6.3,0.9l-6.3,0.94c-0.18,0.03-0.31,0.18-0.31,0.36c0,0.18,0.13,0.34,0.31,0.36
	c0.14,0.02,1.43,0.24,2.79,0.86c0.41,0.19,0.76,0.38,1.11,0.57c0.56,0.3,1.09,0.59,1.8,0.82c-0.11,0-0.22-0.01-0.34-0.02
	c-1.37-0.08-2.61-0.28-3.23-0.39l-0.17-0.03c-1.14-0.5-2.31-0.76-3.48-0.77c0-0.01,0-0.02-0.01-0.03c-0.06-0.24-0.23-0.44-0.47-0.52
	c-1.71-0.59-3.32-0.9-4.78-0.91c-0.54,0-1.05,0.03-1.54,0.11c-0.01-0.07-0.03-0.13-0.06-0.19c-0.11-0.21-0.31-0.36-0.55-0.39
	c-1.8-0.24-3.44-0.22-4.87,0.07c-0.57,0.11-1.11,0.27-1.61,0.46c-0.02-0.15-0.08-0.3-0.19-0.42c-0.15-0.16-0.36-0.25-0.59-0.23
	c-1.81,0.15-3.4,0.52-4.74,1.1c-0.36,0.15-0.7,0.33-1.02,0.51c-0.02-0.19-0.11-0.36-0.26-0.48c-0.18-0.15-0.42-0.2-0.65-0.14
	c-1.76,0.48-3.28,1.16-4.51,2.01l-0.07,0.05c-0.34,0.02-0.67,0.03-0.98,0.02c-0.26-0.01-1.14-0.09-1.24-0.1
	C30.41,30.04,29.8,29.98,29.05,30.04 M30.75,31.87c0.01-0.01,0.03-0.01,0.04,0c0.01,0.01,0.02,0.02,0.02,0.03
	c-0.06,0.96-0.35,2.45-1.39,4.05c-0.12,0.18-0.11,0.41,0.01,0.59c0.12,0.18,0.34,0.27,0.55,0.22c0.01,0,1.37-0.27,2.75-0.17
	c0.01,0,0.03,0.01,0.03,0.03c0,0.02,0,0.03-0.01,0.04c-1.19,0.95-3.51,2.5-6.01,2.5c-0.09,0-0.18,0-0.27-0.01
	c-0.02,0-0.03-0.02-0.03-0.03C26.37,37.92,26.66,34.82,30.75,31.87 M22.08,41.06c0.21-0.94,0.61-1.86,1.2-2.76
	c0.58-0.89,1.35-1.76,2.29-2.58c0.01-0.01,0.03-0.01,0.04-0.01c0.01,0,0.02,0.02,0.02,0.03c0.03,0.97-0.11,2.47-0.99,4.16
	c-0.1,0.19-0.07,0.43,0.07,0.59c0.14,0.17,0.37,0.23,0.58,0.16c0.01,0,1.3-0.44,2.67-0.48c0.01,0,0.03,0.01,0.03,0.02
	c0.01,0.01,0,0.03-0.01,0.04c-0.51,0.51-1.04,0.97-1.57,1.38c-1.08,0.83-2.68,1.81-4.21,1.81c-0.06,0-0.12,0-0.18,0
	c-0.02,0-0.03-0.01-0.03-0.03C21.92,43.07,21.83,42.19,22.08,41.06 M20.68,40.33c0.01-0.01,0.03-0.02,0.04-0.01
	c0.01,0,0.03,0.02,0.03,0.03c0.19,0.95,0.28,2.46-0.31,4.27c-0.07,0.22,0,0.46,0.19,0.59c0.18,0.14,0.43,0.14,0.62,0.01
	c0.01-0.01,1.18-0.8,2.66-0.92c0.01,0,0.03,0.01,0.03,0.02c0.01,0.01,0.01,0.03,0,0.04c-0.96,1.35-2.96,3.67-5.54,4.11h0
	c-0.02,0-0.03-0.01-0.04-0.03C17.97,47.29,17.45,44.21,20.68,40.33 M15.12,48.66c0.31-1.01,0.81-2.05,1.48-3.09
	c0.01-0.01,0.02-0.02,0.04-0.02c0.01,0,0.03,0.01,0.03,0.03c0.3,0.92,0.58,2.41,0.21,4.28c-0.05,0.23,0.06,0.46,0.27,0.57
	c0.21,0.11,0.46,0.08,0.63-0.09c0.01-0.01,1.1-1.06,2.6-1.27c0.01,0,0.03,0,0.03,0.02c0.01,0.01,0.01,0.03,0,0.04
	c-0.21,0.42-0.55,1.07-1.04,1.74c-1.14,1.57-2.51,2.59-4.05,3.04l-0.01,0c-0.02,0-0.03-0.01-0.04-0.02
	c-0.14-0.3-0.47-1.11-0.54-2.24C14.67,50.68,14.8,49.68,15.12,48.66 M12.11,54.41c0.16-1.05,0.49-2.15,1-3.27
	c0-0.01,0.02-0.02,0.03-0.02c0.01,0,0.03,0.01,0.03,0.02c0.44,0.87,0.94,2.31,0.85,4.2c-0.01,0.21,0.11,0.41,0.3,0.5
	c0.19,0.09,0.42,0.06,0.58-0.08c0.05-0.04,1.18-1.01,2.5-1.58c0.01,0,0.03,0,0.04,0.01c0.01,0.01,0.02,0.02,0.01,0.04
	c-0.14,0.54-0.33,1.06-0.58,1.56c-0.81,1.65-2.08,2.91-3.8,3.76c0,0-0.01,0-0.01,0c-0.02,0-0.03-0.01-0.04-0.02
	c-0.22-0.34-0.63-1.07-0.86-2.13C11.98,56.47,11.96,55.46,12.11,54.41 M10.49,57.1c0-0.01,0.02-0.03,0.03-0.03
	c0.01,0,0.03,0,0.03,0.02c0.54,0.81,1.22,2.17,1.37,4.06c0.02,0.22,0.16,0.4,0.37,0.46c0.21,0.07,0.43,0,0.57-0.17
	c0.01-0.01,0.96-1.14,2.27-1.89c0.01-0.01,0.03-0.01,0.04,0c0.01,0.01,0.02,0.02,0.02,0.04c-0.06,0.56-0.19,1.13-0.37,1.67
	c-0.59,1.78-1.7,3.19-3.3,4.2c-0.01,0-0.01,0-0.01,0c-0.02,0-0.03,0-0.03-0.01c-0.21-0.25-0.76-0.95-1.13-2.01
	c-0.32-0.9-0.47-1.9-0.45-2.97C9.93,59.42,10.13,58.28,10.49,57.1 M8.65,63.35c0-0.01,0.01-0.03,0.03-0.03c0.01,0,0.03,0,0.04,0.01
	c0.64,0.74,1.49,2.01,1.87,3.86c0.04,0.21,0.21,0.37,0.41,0.41c0.21,0.04,0.42-0.04,0.54-0.22c0.04-0.05,0.86-1.23,1.97-2.1
	c0.01-0.01,0.03-0.01,0.04,0c0.01,0.01,0.02,0.02,0.02,0.03c-0.03,0.56-0.1,1.12-0.23,1.66c-0.41,1.82-1.3,3.34-2.63,4.53
	c-0.01,0.01-0.02,0.01-0.03,0.01c-0.01,0-0.02,0-0.03-0.01c-0.3-0.28-0.88-0.88-1.36-1.85c-0.43-0.86-0.7-1.83-0.81-2.9
	C8.39,65.71,8.44,64.56,8.65,63.35 M7.71,69.62c0-0.01,0.01-0.03,0.03-0.03s0.03,0,0.04,0.01c0.68,0.71,1.58,1.94,2.05,3.77
	c0.06,0.22,0.24,0.38,0.46,0.4c0.22,0.02,0.44-0.1,0.53-0.3c0.01-0.01,0.59-1.23,1.66-2.19c0.01-0.01,0.03-0.01,0.04-0.01
	c0.01,0.01,0.02,0.02,0.02,0.03c0,0.64-0.05,1.27-0.15,1.88c-0.32,1.91-1.06,3.43-2.22,4.5c-0.01,0.01-0.02,0.01-0.03,0.01
	c0,0-0.02,0-0.02-0.01c-0.25-0.21-0.9-0.81-1.45-1.79c-0.47-0.84-0.79-1.8-0.94-2.86C7.56,71.99,7.55,70.84,7.71,69.62 M7.19,76.2
	c0-0.01,0.01-0.03,0.02-0.03c0.01,0,0.03,0,0.04,0.01c0.14,0.13,0.27,0.26,0.4,0.4c0.58,0.62,1.38,1.69,1.88,3.25
	c0.08,0.23,0.3,0.38,0.55,0.37c0.25-0.02,0.45-0.2,0.49-0.44c0-0.01,0.24-1.34,1.36-2.37c0.01-0.01,0.02-0.01,0.04-0.01
	c0.01,0,0.02,0.02,0.03,0.03c0.12,0.74,0.21,1.88,0.01,3.11c-0.25,1.46-0.86,2.68-1.83,3.61c-0.01,0.01-0.02,0.01-0.03,0.01
	c0,0-0.01,0-0.02-0.01C9.13,83.41,6.87,81.22,7.19,76.2 M6.93,82.59c0.01-0.01,0.03,0,0.04,0c0.15,0.11,0.3,0.23,0.44,0.35
	c0.65,0.56,1.55,1.54,2.21,3.03c0.09,0.19,0.28,0.32,0.48,0.32h0.01c0.21,0,0.4-0.13,0.48-0.33c0.01-0.01,0.59-1.41,1.52-2.52
	c0.01-0.01,0.02-0.02,0.04-0.01c0.01,0,0.02,0.01,0.03,0.03c0.29,1.35,0.48,4.01-1.51,6.7c-0.01,0.01-0.02,0.01-0.02,0.01
	c-0.02,0-0.02,0-0.03,0c-1.04-0.61-3.5-2.56-3.72-7.55C6.91,82.61,6.92,82.59,6.93,82.59 M7.26,89.23c0-0.01,0-0.03,0.01-0.04
	c0.01-0.01,0.03-0.01,0.04,0c0.87,0.44,2.14,1.3,3.2,2.88c0.12,0.18,0.33,0.26,0.54,0.23c0.21-0.04,0.37-0.2,0.42-0.41l0.04,0.01
	l-0.04-0.01c0.01-0.06,0.36-1.56,1.09-2.79c0.01-0.01,0.02-0.02,0.02-0.02c0.03,0,0.04,0.01,0.04,0.02c0.26,0.54,0.45,1.11,0.58,1.7
	c0.38,1.81,0.08,3.57-0.89,5.23c-0.01,0.01-0.02,0.02-0.02,0.02c-0.02,0-0.02,0-0.02,0c-0.32-0.12-1.14-0.46-2-1.22
	c-0.72-0.64-1.35-1.44-1.86-2.38C7.92,91.52,7.53,90.43,7.26,89.23 M8.77,95.4c0-0.01,0-0.03,0.01-0.04
	c0.01-0.01,0.03-0.01,0.04-0.01c0.17,0.07,0.34,0.15,0.51,0.24c0.76,0.39,1.89,1.12,2.9,2.41c0.13,0.17,0.35,0.24,0.56,0.19
	c0.21-0.06,0.36-0.23,0.39-0.44c0-0.01,0.22-1.48,0.82-2.75c0.01-0.01,0.02-0.02,0.03-0.02s0.03,0.01,0.03,0.02
	c0.62,1.37,1.49,4.07,0.25,6.82c-0.01,0.01-0.02,0.02-0.03,0.02c0,0-0.01,0-0.01,0C13.1,101.5,10.23,100.21,8.77,95.4 M12.48,104.54
	c-0.67-0.82-1.26-1.81-1.75-2.94c0-0.01,0-0.03,0.01-0.04c0.01-0.01,0.03-0.02,0.04-0.01c0.17,0.05,0.35,0.11,0.53,0.18
	c0.81,0.3,2.01,0.9,3.16,2.06c0.15,0.15,0.38,0.2,0.57,0.12c0.2-0.08,0.33-0.27,0.34-0.48c0-0.01,0.04-1.46,0.48-2.79
	c0-0.01,0.02-0.02,0.03-0.03c0.02,0,0.03,0,0.04,0.02c0.3,0.53,0.56,1.08,0.77,1.64c0.66,1.79,0.76,3.5,0.28,5.07
	c0,0.02-0.02,0.03-0.03,0.03h-0.01c-0.33-0.06-1.2-0.24-2.17-0.82C13.93,106.05,13.16,105.37,12.48,104.54 M13.39,107.47
	c-0.01-0.01-0.01-0.03,0-0.04c0.01-0.01,0.02-0.02,0.04-0.02c0.97,0.16,2.43,0.61,3.93,1.8c0.17,0.14,0.4,0.15,0.59,0.05
	c0.19-0.1,0.3-0.31,0.27-0.53c-0.01-0.06-0.15-1.37,0.14-2.76c0-0.01,0.01-0.03,0.03-0.03c0.01,0,0.03,0,0.04,0.02
	c0.36,0.52,0.67,1.05,0.94,1.59c0.59,1.19,1.23,3.01,0.9,4.89c0,0.02-0.02,0.03-0.04,0.03h0c-0.41-0.02-1.25-0.12-2.25-0.57
	c-0.89-0.39-1.73-0.97-2.5-1.72C14.71,109.45,14.01,108.53,13.39,107.47 M25.66,118.14c-0.01-0.01-0.54-1.29-0.65-2.7
	c0-0.02,0.01-0.03,0.02-0.04c0.01-0.01,0.03,0,0.04,0c1.24,1.04,3.31,3.21,3.18,6.08c0,0.02-0.01,0.03-0.03,0.03
	c-0.15,0.03-0.44,0.07-0.83,0.07c-0.35,0-0.78-0.03-1.27-0.13c-1.79-0.36-3.62-1.41-5.45-3.13c-0.01-0.01-0.01-0.02-0.01-0.04
	c0-0.01,0.02-0.02,0.03-0.03c0.97-0.13,2.51-0.13,4.29,0.57c0.2,0.08,0.42,0.03,0.58-0.12C25.69,118.57,25.74,118.34,25.66,118.14
	 M20.82,114.3c0.19,0.12,0.42,0.11,0.6-0.02c0.18-0.13,0.26-0.35,0.2-0.56c0-0.01-0.33-1.33-0.17-2.74c0-0.01,0.01-0.03,0.03-0.03
	c0.01,0,0.03,0,0.04,0.01c1.02,1.23,2.7,3.67,2.54,6.25c0,0.02-0.02,0.03-0.03,0.03c-0.07,0-0.16,0-0.25,0
	c-0.46,0-1.19-0.06-2.05-0.34c-0.92-0.3-1.82-0.79-2.67-1.45c-0.84-0.66-1.63-1.49-2.36-2.49c-0.01-0.01-0.01-0.03,0-0.04
	c0.01-0.01,0.02-0.02,0.04-0.02C17.7,112.98,19.21,113.28,20.82,114.3 M41.65,100.33c-0.17,0.12-0.34,0.23-0.49,0.34
	c-1.14,0.8-1.85,1.64-2.11,2.52c-0.15-0.03-0.29-0.07-0.42-0.11c-0.87-0.29-0.91-0.73-0.93-0.89c-0.03-0.45,0.21-0.86,0.87-1.49
	c0.78-0.75,1.42-1.11,1.99-1.11c0.2,0,0.39,0.05,0.57,0.14c0.28,0.14,0.45,0.29,0.5,0.44C41.66,100.21,41.66,100.27,41.65,100.33
	 M42.74,104.72c-0.35,0.06-1.29,0.16-1.76-0.16c-0.11-0.08-0.23-0.2-0.27-0.5c-0.08-0.74,0.88-1.53,1.46-1.94
	c0.9-0.63,1.52-0.99,2.03-0.99c0.25,0,0.48,0.09,0.7,0.28c0.18,0.16,0.28,0.3,0.27,0.42c-0.01,0.24-0.31,0.59-0.59,0.8
	C43.7,103.26,43.1,103.94,42.74,104.72 M47.26,104.87c-0.34,0.27-1.51,0.99-2.34,0.83c-0.14-0.03-0.33-0.09-0.54-0.3
	c0.38-0.8,1.23-1.34,2-1.78c1-0.58,1.44-0.24,1.45-0.23c0.29,0.28,0.28,0.45,0.27,0.51c-0.04,0.36-0.54,0.79-0.78,0.94
	C47.31,104.84,47.29,104.85,47.26,104.87 M37.76,99.04c-0.13,0.11-0.27,0.24-0.41,0.38c-0.52,0.5-1.08,1.12-1.31,1.94
	c-0.13-0.01-0.25-0.02-0.37-0.04c-0.57-0.09-0.89-0.27-0.95-0.41c-0.04-0.09-0.15-0.34,0.19-0.78c0.48-0.63,1.54-1.15,2.29-1.15
	c0.07,0,0.14,0,0.2,0.01c0.03,0,0.05,0.01,0.07,0.01C37.53,98.99,37.64,99.01,37.76,99.04 M60.63,100.14
	c-0.26,0.25-0.66,0.38-1.18,0.39c-0.74-1-2.67-3.35-5.12-4.55c-0.21-0.1-0.45-0.12-0.68-0.04c-0.22,0.08-0.41,0.24-0.51,0.45
	c-0.1,0.21-0.12,0.45-0.04,0.68c0.08,0.23,0.24,0.41,0.45,0.51c2.07,1.01,3.79,3.1,4.46,4c-0.07,0.15-0.16,0.28-0.26,0.4
	c-0.33,0.38-0.83,0.57-1.45,0.56c-0.23-0.48-0.62-1.06-1.19-1.71c-0.76-0.87-2.28-1.95-2.34-1.99c-0.19-0.14-0.43-0.19-0.66-0.15
	c-0.24,0.04-0.44,0.17-0.57,0.36c-0.14,0.19-0.19,0.43-0.15,0.66c0.04,0.23,0.17,0.44,0.36,0.57c0.39,0.27,1.52,1.12,2.02,1.7
	c0.59,0.69,0.83,1.1,0.92,1.31c-0.08,0.16-0.21,0.37-0.4,0.56c-0.32,0.31-0.7,0.43-1.18,0.37c-0.23-0.5-0.72-1.45-1.62-2.46
	c-0.33-0.37-0.89-0.4-1.25-0.07c-0.18,0.16-0.28,0.38-0.3,0.61c-0.01,0.24,0.07,0.46,0.22,0.64c0.62,0.69,1,1.34,1.22,1.78
	c-0.15,0.09-0.3,0.17-0.46,0.23c-0.45,0.18-0.93,0.24-1.43,0.18c0.22-0.35,0.36-0.71,0.4-1.07c0.05-0.49-0.04-1.23-0.79-1.96
	c-0.38-0.39-1.14-0.74-2.14-0.58c-0.07-0.54-0.37-1.04-0.86-1.47c-0.81-0.7-1.75-0.89-2.79-0.57c-0.16-0.41-0.53-0.95-1.35-1.36
	c-0.74-0.37-1.56-0.43-2.38-0.17c-0.73-0.61-1.67-0.73-1.95-0.75c-1.18-0.16-2.7,0.4-3.71,1.36c-5.07,2.71-11.59,5.65-14.24,6.82
	c-1.39-2.61-2.58-5.44-3.52-8.39c-0.26-0.81-0.5-1.63-0.73-2.47c7.45-0.85,13.45-1.73,17.82-2.6c4.58-0.92,7.54-1.85,9.05-2.86
	c1.75-1.23,2.94-1.83,4.6-1.69c0.39,0.03,0.75,0.07,1.08,0.12c-0.32,0.13-0.62,0.3-0.91,0.51c-0.7,0.49-1.13,0.84-1.51,1.15
	c-0.38,0.31-0.69,0.56-1.17,0.87c-0.33,0.22-0.79,0.44-1.23,0.65c-1.04,0.51-1.86,0.91-2.12,1.62c-0.28,0.76-0.17,1.43,0.35,2.16
	c0.8,1.11,2.09,1.04,3.12,0.98c1.16-0.07,2.58-0.49,3.61-1.09c0.37-0.22,0.7-0.43,0.99-0.62c0.45-0.29,0.83-0.55,1.1-0.61
	c0.02,0,0.03-0.01,0.05-0.01c0.9-0.25,1.91-0.14,3.1,0.32c1.08,0.42,2.13,1.06,3.11,1.7c2.32,1.51,4.05,3.55,4.56,4.19
	C60.99,99.57,60.89,99.9,60.63,100.14 M63.85,99.45c-0.76-0.54-1.3-1.1-1.55-1.38c0,0-0.01-0.01-0.01-0.01l-0.03-0.03
	c-0.07-0.08-0.11-0.14-0.13-0.16c-0.8-0.96-2.47-2.78-4.7-4.23c-1.64-1.06-4.68-3.04-7.63-2.25c-0.59,0.13-1.1,0.47-1.69,0.86
	c-0.28,0.19-0.57,0.38-0.9,0.56c-0.92,0.53-2.08,0.81-2.82,0.85c-0.84,0.05-1.37,0.05-1.58-0.24c-0.19-0.27-0.18-0.36-0.15-0.45
	c0.19-0.18,0.88-0.52,1.26-0.7c0.49-0.24,0.99-0.48,1.41-0.76c0.56-0.37,0.93-0.67,1.32-0.99c0.36-0.29,0.76-0.62,1.41-1.08
	c0.89-0.62,1.85-0.64,3.32-0.67h0.03c0.22,0,0.45-0.01,0.69-0.02c0.18,0,0.36-0.01,0.55-0.02c1.57-0.07,2.99,0.44,5.13,1.21
	c0.62,0.22,1.33,0.48,2.13,0.75c0.12,0.04,3.01,0.95,6.93,1.88c3.41,0.81,8.44,1.84,13.16,2.15c-0.21,0.76-0.44,1.52-0.67,2.25
	c-0.98,3.06-2.22,5.98-3.68,8.68C73.31,104.71,67.61,102.23,63.85,99.45 M74.86,118.33c-2.27,2.13-4.22,2.88-5.45,3.12
	c-0.49,0.1-0.92,0.13-1.27,0.13c-0.37,0-0.65-0.03-0.83-0.07c-0.02,0-0.03-0.02-0.03-0.03c-0.07-1.62,0.55-3.21,1.84-4.72
	c0.4-0.47,0.86-0.91,1.36-1.33c0.01-0.01,0.03-0.01,0.04,0c0.01,0.01,0.02,0.02,0.02,0.04c-0.15,1.35-0.68,2.65-0.68,2.66
	c-0.08,0.2-0.04,0.42,0.11,0.58c0.15,0.15,0.38,0.2,0.58,0.12c1.77-0.7,3.31-0.69,4.29-0.57c0.01,0,0.03,0.01,0.03,0.03
	C74.87,118.31,74.87,118.32,74.86,118.33 M78.89,112.98c-0.73,0.99-1.52,1.83-2.36,2.48c-0.85,0.67-1.75,1.16-2.67,1.45
	c-0.86,0.28-1.59,0.34-2.05,0.34c-0.1,0-0.18,0-0.25-0.01c-0.02,0-0.03-0.02-0.03-0.03c-0.11-1.57,0.36-3.19,1.41-4.82
	c0.32-0.51,0.7-1,1.11-1.46c0.01-0.01,0.02-0.02,0.04-0.01c0.01,0,0.03,0.02,0.03,0.03c0.13,1.39-0.15,2.78-0.15,2.79
	c-0.04,0.21,0.04,0.42,0.22,0.55c0.18,0.12,0.41,0.13,0.59,0.01c1.6-1.02,3.11-1.31,4.1-1.38c0.01,0,0.03,0.01,0.03,0.02
	C78.9,112.96,78.9,112.97,78.89,112.98 M80.1,110.19c-0.77,0.75-1.61,1.33-2.5,1.72c-1.04,0.46-1.92,0.55-2.26,0.57h0
	c-0.02,0-0.03-0.01-0.04-0.03c-0.28-1.55,0.02-3.21,0.89-4.93c0.27-0.54,0.59-1.06,0.95-1.57c0.01-0.01,0.02-0.02,0.04-0.02
	c0.01,0,0.03,0.01,0.03,0.03c0.27,1.35,0.15,2.78,0.14,2.79c-0.02,0.21,0.09,0.42,0.28,0.52c0.19,0.1,0.42,0.08,0.59-0.05
	c1.48-1.18,2.96-1.63,3.93-1.79c0.01,0,0.03,0,0.04,0.01c0.01,0.01,0.01,0.03,0,0.04C81.57,108.53,80.86,109.45,80.1,110.19
	 M83.05,104.46c-0.68,0.83-1.44,1.5-2.28,2c-0.94,0.55-1.76,0.75-2.17,0.82H78.6c-0.02,0-0.03-0.01-0.04-0.03
	c-0.46-1.58-0.36-3.28,0.29-5.08c0.2-0.54,0.45-1.08,0.73-1.59c0.01-0.01,0.02-0.02,0.04-0.02c0.01,0,0.03,0.01,0.03,0.03
	c0.43,1.34,0.5,2.75,0.5,2.76c0.01,0.21,0.15,0.4,0.35,0.48c0.2,0.07,0.43,0.02,0.58-0.14c1.18-1.28,2.36-1.87,3.15-2.14
	c0.19-0.06,0.38-0.12,0.57-0.16c0.01,0,0.03,0,0.04,0.01c0.01,0.01,0.01,0.03,0.01,0.04C84.34,102.6,83.74,103.62,83.05,104.46
	 M85.31,98.47c-0.59,0.89-1.29,1.64-2.07,2.21c-0.92,0.67-1.76,0.94-2.08,1.03c0,0-0.01,0-0.01,0c0,0-0.03-0.01-0.03-0.02
	c-0.76-1.83-0.54-3.78-0.22-5.1c0.14-0.59,0.34-1.19,0.57-1.78c0-0.01,0.02-0.02,0.03-0.02c0.02,0,0.03,0.01,0.03,0.02
	c0.56,1.3,0.76,2.78,0.77,2.84c0.03,0.21,0.18,0.39,0.38,0.45c0.21,0.06,0.42-0.01,0.56-0.18c1.2-1.47,2.54-2.22,3.45-2.58
	c0.01,0,0.03,0,0.04,0.01c0.01,0.01,0.01,0.03,0.01,0.04C86.38,96.54,85.89,97.58,85.31,98.47 M86.96,92.22
	c-0.48,0.96-1.07,1.78-1.78,2.44c-0.79,0.75-1.55,1.12-1.93,1.27c0,0-0.01,0-0.01,0c-0.02,0-0.03-0.01-0.04-0.02
	c-0.81-1.45-1.11-3.18-0.87-5.13c0.07-0.6,0.19-1.21,0.36-1.8c0-0.01,0.02-0.03,0.03-0.03c0.02,0,0.03,0,0.04,0.02
	c0.73,1.24,1.12,2.77,1.12,2.79c0.05,0.21,0.22,0.36,0.43,0.4c0.21,0.03,0.42-0.06,0.54-0.24c1-1.6,2.24-2.51,3.1-2.99
	c0.01-0.01,0.03-0.01,0.04,0c0.01,0.01,0.02,0.02,0.02,0.04C87.78,90.18,87.43,91.27,86.96,92.22"/>
<path class="st3" d="M59.17,29.19c1.17,0.01,2.34,0.27,3.48,0.77l0.17,0.03c0.62,0.11,1.87,0.31,3.23,0.39
	c0.11,0.01,0.22,0.01,0.34,0.01c-0.71-0.23-1.25-0.52-1.8-0.82c-0.35-0.19-0.7-0.38-1.11-0.57c-1.36-0.62-2.65-0.83-2.79-0.86
	c-0.18-0.03-0.31-0.18-0.31-0.36c0-0.18,0.13-0.33,0.31-0.36l6.3-0.94l-6.3-0.9c-0.15-0.02-0.27-0.14-0.3-0.28
	c-0.03-0.15,0.03-0.3,0.16-0.38c0.04-0.03,1.03-0.65,2.47-0.97c0.61-0.14,1.84-0.43,3.13-0.88c0.1-0.04,0.21-0.07,0.31-0.11
	c-0.75,0.06-1.35,0-1.99-0.07c-0.38-0.04-0.78-0.08-1.24-0.1c-1.48-0.05-2.76,0.24-2.9,0.28c-0.18,0.04-0.36-0.05-0.43-0.21
	c-0.07-0.17,0-0.36,0.15-0.45l5.46-3.28l-6.17,1.57c-0.14,0.04-0.3-0.02-0.39-0.15c-0.09-0.13-0.08-0.29,0-0.42
	c0.03-0.04,0.72-1,1.91-1.84c0.52-0.36,1.54-1.11,2.56-2.01c0.08-0.07,0.17-0.15,0.25-0.23c-0.66,0.34-1.25,0.52-1.86,0.7
	c-0.38,0.11-0.76,0.22-1.18,0.38c-1.45,0.55-2.56,1.36-2.58,1.37c-0.14,0.11-0.35,0.09-0.48-0.04c-0.13-0.13-0.14-0.33-0.03-0.47
	l3.8-5.12l-5.1,3.81c-0.12,0.09-0.29,0.1-0.41,0.01c-0.13-0.08-0.19-0.24-0.16-0.38c0.01-0.05,0.28-1.21,1.06-2.43
	c0.34-0.53,1-1.61,1.59-2.84c0.05-0.1,0.1-0.2,0.14-0.3c-0.48,0.57-0.96,0.96-1.45,1.36c-0.31,0.25-0.62,0.5-0.94,0.81
	c-1.09,1.02-1.78,2.13-1.85,2.25c-0.09,0.15-0.29,0.22-0.45,0.15c-0.17-0.07-0.26-0.25-0.21-0.42L55.1,8.7l-3.26,5.47
	c-0.08,0.13-0.23,0.2-0.38,0.17c-0.15-0.03-0.27-0.15-0.29-0.3c-0.01-0.05-0.2-1.21,0.05-2.65c0.11-0.62,0.3-1.87,0.38-3.23
	c0.01-0.11,0.01-0.22,0.01-0.34c-0.23,0.72-0.52,1.25-0.82,1.81c-0.19,0.34-0.38,0.7-0.56,1.11c-0.63,1.41-0.84,2.74-0.85,2.79
	c-0.03,0.17-0.18,0.31-0.36,0.31c-0.18,0-0.33-0.14-0.36-0.31l-0.92-6.26l-0.88,6.25c-0.02,0.15-0.14,0.28-0.29,0.31
	c-0.15,0.03-0.3-0.03-0.38-0.16c-0.07-0.11-0.66-1.09-0.96-2.47c-0.14-0.62-0.43-1.84-0.88-3.13c-0.04-0.1-0.07-0.21-0.11-0.31
	c0.06,0.75,0,1.35-0.07,1.99c-0.04,0.39-0.08,0.79-0.1,1.24c-0.05,1.53,0.26,2.85,0.28,2.9c0.04,0.18-0.05,0.35-0.21,0.42
	c-0.17,0.07-0.36,0-0.45-0.15L40.39,8.7l1.58,6.16c0.04,0.15-0.02,0.31-0.15,0.39c-0.13,0.09-0.29,0.09-0.42,0
	c-0.1-0.07-1.03-0.75-1.84-1.91c-0.36-0.52-1.1-1.54-2.01-2.56c-0.07-0.08-0.15-0.17-0.23-0.25c0.34,0.66,0.52,1.25,0.69,1.86
	c0.11,0.38,0.23,0.76,0.38,1.18c0.53,1.4,1.28,2.46,1.37,2.58c0.11,0.14,0.09,0.35-0.03,0.47c-0.13,0.13-0.33,0.14-0.47,0.03
	l-5.13-3.79l3.82,5.1c0.09,0.12,0.1,0.29,0.01,0.42c-0.08,0.13-0.24,0.19-0.39,0.16c-0.05-0.01-1.19-0.27-2.43-1.06
	c-0.53-0.34-1.61-1-2.84-1.59c-0.1-0.05-0.2-0.1-0.3-0.14c0.57,0.48,0.96,0.96,1.36,1.45c0.25,0.31,0.5,0.62,0.81,0.94
	c1.07,1.14,2.24,1.85,2.25,1.86c0.16,0.09,0.22,0.28,0.15,0.45c-0.07,0.17-0.25,0.26-0.42,0.21l-6.19-1.55l5.48,3.25
	c0.13,0.08,0.2,0.23,0.17,0.38c-0.03,0.15-0.15,0.27-0.3,0.29c-0.05,0.01-1.21,0.2-2.65-0.05c-0.62-0.11-1.86-0.3-3.23-0.38
	c-0.11-0.01-0.22-0.01-0.34-0.01c0.71,0.23,1.25,0.52,1.81,0.82c0.32,0.18,0.69,0.38,1.11,0.56c1.41,0.64,2.77,0.85,2.79,0.85
	c0.18,0.03,0.31,0.18,0.31,0.36c0,0.18-0.14,0.33-0.31,0.36l-6.31,0.93l6.31,0.92c0.15,0.02,0.27,0.14,0.3,0.28
	c0.03,0.15-0.03,0.3-0.16,0.38c-0.04,0.03-1.04,0.65-2.47,0.97c-0.62,0.14-1.84,0.44-3.13,0.89c-0.1,0.03-0.21,0.07-0.31,0.11
	c0.75-0.07,1.35,0,1.99,0.07c0.09,0.01,0.97,0.09,1.24,0.1c0.31,0.01,0.65,0,0.98-0.02l0.07-0.05c1.23-0.85,2.74-1.53,4.51-2.01
	c0.22-0.06,0.47-0.01,0.65,0.14c0.15,0.12,0.24,0.3,0.26,0.48c0.32-0.18,0.66-0.36,1.02-0.51c1.33-0.58,2.93-0.95,4.74-1.1
	c0.22-0.02,0.44,0.07,0.59,0.23c0.11,0.12,0.17,0.26,0.19,0.42c0.5-0.2,1.04-0.35,1.61-0.46c1.43-0.28,3.07-0.31,4.87-0.07
	c0.24,0.03,0.45,0.18,0.55,0.39c0.03,0.06,0.05,0.13,0.06,0.19c0.49-0.07,1-0.11,1.54-0.11c1.46,0.01,3.06,0.32,4.78,0.91
	c0.24,0.08,0.41,0.28,0.47,0.52C59.16,29.17,59.16,29.18,59.17,29.19"/>
<path class="st2" d="M49.98,21.22c6.13-0.98,6.81,0.79,6.81,0.79s0.16,0.4,0.66,0.28c0,0,0.42-0.04,0.21-0.54
	c0,0-0.67-2.01-3.93-2.35c0,0-1.68-0.22-3.52,0.1c-0.54,0.1-0.7,1.3-0.7,1.3C49.43,21.33,49.98,21.22,49.98,21.22"/>
<path class="st2" d="M44.75,22.41c-0.75-0.34-2.46-0.27-2.46-0.27c-2.77,0.09-3.5,1.81-3.5,1.81c-0.24,0.58,0.24,0.63,0.24,0.63
	c0.58,0.14,0.77-0.32,0.77-0.32s0.16-0.49,1.3-0.77c-0.06,0.16-0.1,0.34-0.1,0.52c0,0.78,0.64,1.42,1.42,1.42
	c0.79,0,1.42-0.64,1.42-1.42c0-0.2-0.04-0.39-0.11-0.56c0.39,0.15,0.78,0.42,1.02,0.92c0.1,0.2,0.31,0.29,0.84,0.29
	c0.57,0,0.43-0.37,0.43-0.37C45.67,22.84,44.75,22.41,44.75,22.41"/>
<path class="st2" d="M49.86,24.66c0.53,0,0.74-0.09,0.84-0.29c0.24-0.49,0.62-0.77,1.02-0.92c-0.07,0.17-0.11,0.36-0.11,0.56
	c0,0.78,0.64,1.42,1.42,1.42c0.78,0,1.42-0.64,1.42-1.42c0-0.19-0.04-0.36-0.1-0.52c1.14,0.28,1.3,0.77,1.3,0.77
	s0.19,0.47,0.77,0.32c0,0,0.49-0.05,0.24-0.63c0,0-0.73-1.72-3.5-1.81c0,0-1.71-0.07-2.46,0.27c0,0-0.92,0.43-1.26,1.88
	C49.43,24.29,49.29,24.66,49.86,24.66"/>
<path class="st2" d="M37.99,22.29c0.5,0.12,0.66-0.28,0.66-0.28s0.68-1.77,6.81-0.79c0,0,0.56,0.12,0.48-0.42c0,0-0.15-1.2-0.7-1.3
	c-1.85-0.32-3.52-0.1-3.52-0.1c-3.26,0.35-3.93,2.36-3.93,2.36C37.57,22.25,37.99,22.29,37.99,22.29"/>
<path class="st4" d="M74.84,118.27c-0.98-0.12-2.52-0.13-4.29,0.57c-0.2,0.08-0.42,0.03-0.57-0.12c-0.15-0.15-0.19-0.38-0.11-0.58
	c0-0.01,0.54-1.31,0.68-2.66c0-0.02-0.01-0.03-0.02-0.04c-0.01-0.01-0.03-0.01-0.04,0c-0.5,0.41-0.96,0.86-1.36,1.33
	c-1.3,1.51-1.92,3.09-1.84,4.72c0,0.02,0.01,0.03,0.03,0.03c0.18,0.03,0.46,0.07,0.83,0.07c0.35,0,0.78-0.03,1.27-0.13
	c1.23-0.25,3.18-0.99,5.45-3.12c0.01-0.01,0.01-0.02,0.01-0.04C74.87,118.28,74.85,118.27,74.84,118.27"/>
<path class="st4" d="M25.06,115.41c-0.01-0.01-0.03-0.01-0.04,0c-0.01,0.01-0.02,0.02-0.02,0.04c0.12,1.41,0.65,2.69,0.65,2.7
	c0.08,0.2,0.04,0.42-0.11,0.58c-0.15,0.15-0.38,0.2-0.58,0.12c-1.79-0.7-3.32-0.7-4.29-0.57c-0.01,0-0.03,0.01-0.03,0.03
	c0,0.01,0,0.03,0.01,0.04c1.83,1.72,3.67,2.77,5.45,3.13c0.49,0.1,0.92,0.13,1.27,0.13c0.39,0,0.68-0.04,0.83-0.07
	c0.02,0,0.03-0.02,0.03-0.04C28.37,118.62,26.31,116.45,25.06,115.41"/>
<path class="st4" d="M78.85,112.92c-0.98,0.07-2.49,0.36-4.1,1.38c-0.18,0.12-0.41,0.11-0.59-0.01c-0.18-0.12-0.26-0.34-0.22-0.55
	c0-0.01,0.28-1.4,0.15-2.79c0-0.01-0.01-0.03-0.03-0.03c-0.02,0-0.03,0-0.04,0.01c-0.41,0.47-0.78,0.96-1.11,1.46
	c-1.04,1.63-1.52,3.25-1.41,4.82c0,0.02,0.02,0.03,0.04,0.03c0.07,0,0.16,0.01,0.25,0.01c0.46,0,1.19-0.06,2.05-0.34
	c0.92-0.3,1.82-0.79,2.67-1.45c0.83-0.66,1.63-1.49,2.36-2.48c0.01-0.01,0.01-0.03,0-0.04S78.87,112.92,78.85,112.92"/>
<path class="st4" d="M82.15,107.42c-0.97,0.17-2.44,0.61-3.93,1.79c-0.17,0.13-0.4,0.15-0.59,0.05c-0.19-0.1-0.3-0.31-0.28-0.52
	c0-0.01,0.13-1.44-0.14-2.79c0-0.01-0.01-0.03-0.03-0.03c-0.02,0-0.03,0-0.04,0.01c-0.36,0.51-0.68,1.03-0.95,1.57
	c-0.87,1.73-1.17,3.39-0.89,4.93c0,0.02,0.02,0.03,0.04,0.03h0c0.33-0.02,1.22-0.11,2.26-0.57c0.89-0.39,1.73-0.97,2.5-1.72
	c0.76-0.74,1.46-1.65,2.08-2.72c0.01-0.01,0.01-0.03,0-0.04C82.18,107.42,82.16,107.41,82.15,107.42"/>
<path class="st4" d="M84.8,101.38c-0.19,0.04-0.38,0.1-0.57,0.16c-0.79,0.27-1.97,0.86-3.15,2.14c-0.15,0.16-0.37,0.21-0.58,0.14
	c-0.2-0.07-0.34-0.26-0.35-0.48c0-0.01-0.07-1.42-0.5-2.76c0-0.01-0.02-0.02-0.03-0.03c-0.01,0-0.03,0.01-0.04,0.02
	c-0.29,0.52-0.53,1.05-0.73,1.59c-0.66,1.79-0.76,3.5-0.29,5.08c0,0.02,0.02,0.03,0.04,0.03l0.01,0c0.41-0.07,1.23-0.27,2.17-0.82
	c0.83-0.49,1.6-1.16,2.28-2c0.69-0.84,1.29-1.86,1.79-3.02c0-0.01,0-0.03-0.01-0.04C84.82,101.39,84.81,101.38,84.8,101.38"/>
<path class="st4" d="M86.7,95.33c-0.91,0.37-2.26,1.12-3.45,2.58c-0.13,0.17-0.35,0.24-0.56,0.18c-0.21-0.06-0.35-0.23-0.38-0.45
	c-0.01-0.06-0.21-1.54-0.77-2.84c0-0.01-0.02-0.02-0.03-0.02c-0.02,0-0.03,0.01-0.03,0.02c-0.24,0.58-0.43,1.18-0.57,1.78
	c-0.32,1.32-0.54,3.27,0.22,5.1c0,0.01,0.02,0.02,0.03,0.02c0,0,0.01,0,0.01,0c0.32-0.09,1.17-0.36,2.09-1.03
	c0.78-0.57,1.48-1.31,2.07-2.21c0.58-0.88,1.07-1.93,1.45-3.1c0-0.01,0-0.03-0.01-0.04C86.73,95.32,86.72,95.32,86.7,95.33"/>
<path class="st4" d="M87.95,88.93c-0.86,0.48-2.1,1.38-3.1,2.99c-0.11,0.18-0.32,0.28-0.54,0.24c-0.21-0.03-0.38-0.19-0.43-0.4
	c0-0.02-0.39-1.55-1.12-2.79c-0.01-0.01-0.02-0.02-0.04-0.02c-0.01,0-0.03,0.01-0.03,0.03c-0.17,0.6-0.29,1.2-0.36,1.8
	c-0.23,1.95,0.06,3.68,0.87,5.13c0.01,0.01,0.02,0.02,0.03,0.02c0,0,0.01,0,0.01,0c0.38-0.16,1.14-0.53,1.93-1.27
	c0.7-0.66,1.3-1.48,1.77-2.44c0.47-0.95,0.82-2.04,1.05-3.25c0-0.01,0-0.03-0.01-0.04C87.98,88.93,87.97,88.93,87.95,88.93"/>
<path class="st4" d="M85.77,85.81c-0.09,0.2-0.3,0.32-0.51,0.3c-0.22-0.01-0.4-0.16-0.47-0.36c0-0.01-0.49-1.44-1.38-2.53
	c-0.01-0.01-0.03-0.01-0.04-0.01c-0.01,0-0.03,0.02-0.03,0.03c-0.12,0.61-0.18,1.23-0.2,1.84c-0.03,1.91,0.45,3.55,1.44,4.89
	c0.01,0.01,0.02,0.02,0.03,0.02c0,0,0.01,0,0.02,0c0.29-0.16,1.05-0.62,1.78-1.48c0.62-0.73,1.12-1.61,1.49-2.62
	c0.36-1,0.59-2.12,0.67-3.35c0-0.01-0.01-0.03-0.02-0.03c-0.01-0.01-0.03-0.01-0.04,0C87.71,83.07,86.59,84.1,85.77,85.81"/>
<path class="st4" d="M85.55,80c-0.22,0.01-0.41-0.1-0.51-0.3c-0.01-0.01-0.63-1.26-1.57-2.28c-0.01-0.01-0.03-0.01-0.04-0.01
	s-0.02,0.02-0.03,0.03c-0.06,1.57,0.11,4.49,1.85,6.46c0.01,0.01,0.02,0.01,0.02,0.01c0.02,0,0.03,0,0.03-0.01
	c0.28-0.18,0.98-0.71,1.62-1.64c0.55-0.79,0.96-1.71,1.22-2.75c0.26-1.02,0.37-2.17,0.34-3.4c0-0.01-0.01-0.03-0.02-0.03
	c-0.01,0-0.03,0-0.04,0.01c-0.74,0.64-1.76,1.78-2.41,3.55C85.94,79.85,85.76,79.99,85.55,80"/>
<path class="st4" d="M85.25,73.76c-0.21,0.03-0.42-0.06-0.53-0.24c-0.01-0.01-0.73-1.16-1.74-2.07c-0.01-0.01-0.03-0.01-0.04-0.01
	c-0.01,0.01-0.02,0.02-0.02,0.04c0.16,1.71,0.68,4.8,2.4,6.23c0.01,0.01,0.01,0.01,0.02,0.01c0.01,0,0.02,0,0.02-0.01
	c0.26-0.21,0.92-0.81,1.48-1.82c0.47-0.84,0.79-1.8,0.94-2.86c0.16-1.05,0.16-2.2,0.01-3.42c0-0.01-0.01-0.03-0.03-0.03
	c-0.01-0.01-0.03,0-0.04,0.01c-0.68,0.71-1.58,1.94-2.05,3.77C85.63,73.57,85.46,73.73,85.25,73.76"/>
<path class="st4" d="M84.42,67.69c-0.21,0.04-0.42-0.04-0.55-0.22c-0.01-0.01-0.82-1.17-1.89-2.04c-0.01-0.01-0.03-0.01-0.04,0
	c-0.01,0.01-0.02,0.02-0.02,0.04c0.07,0.62,0.17,1.23,0.31,1.81c0.32,1.3,1.01,3.1,2.46,4.32c0.01,0,0.02,0.01,0.02,0.01
	c0.02,0,0.03,0,0.03-0.01c0.24-0.22,0.87-0.85,1.37-1.86c0.43-0.86,0.7-1.83,0.81-2.9c0.11-1.05,0.06-2.2-0.16-3.41
	c0-0.01-0.01-0.03-0.03-0.03c-0.01,0-0.03,0-0.04,0.01c-0.64,0.74-1.49,2.01-1.87,3.86C84.8,67.49,84.63,67.65,84.42,67.69"/>
<path class="st4" d="M83.07,61.7c-0.2,0.07-0.42,0.01-0.57-0.14c-0.01-0.01-0.99-1.06-2.19-1.78c-0.01-0.01-0.03-0.01-0.04,0
	c-0.01,0.01-0.02,0.03-0.01,0.04c0.13,0.6,0.31,1.18,0.53,1.74c0.71,1.8,1.75,3.14,3.09,3.98c0.01,0,0.01,0.01,0.02,0.01
	c0,0,0.02,0,0.03-0.01c0.21-0.25,0.74-0.96,1.1-2.03c0.31-0.91,0.44-1.91,0.4-2.98c-0.04-1.06-0.25-2.19-0.62-3.36
	c0-0.01-0.02-0.02-0.03-0.03c-0.01,0-0.03,0-0.04,0.02c-0.53,0.82-1.2,2.2-1.32,4.08C83.41,61.45,83.27,61.63,83.07,61.7"/>
<path class="st4" d="M80.42,55.75c-0.01-0.01-1.1-0.96-2.36-1.55c-0.01-0.01-0.03,0-0.04,0.01c-0.01,0.01-0.01,0.03-0.01,0.04
	c0.2,0.58,0.43,1.14,0.71,1.67c0.89,1.72,2.06,2.95,3.49,3.65c0,0,0.01,0,0.01,0c0.02,0,0.03-0.01,0.04-0.02
	c0.18-0.27,0.64-1.03,0.88-2.13c0.21-0.94,0.24-1.95,0.09-3c-0.15-1.05-0.47-2.15-0.97-3.28c0-0.01-0.02-0.02-0.03-0.02
	c-0.02,0-0.03,0.01-0.03,0.02c-0.45,0.87-0.96,2.31-0.89,4.19c0.01,0.21-0.11,0.41-0.3,0.5C80.81,55.93,80.58,55.9,80.42,55.75"/>
<path class="st4" d="M75.12,48.96c-0.01,0.01-0.01,0.03-0.01,0.04c0.24,0.57,0.54,1.13,0.87,1.64c1.05,1.6,2.4,2.7,4,3.26l0.01,0
	c0.02,0,0.03-0.01,0.04-0.02c0.15-0.29,0.51-1.09,0.63-2.21c0.1-0.95,0.01-1.96-0.26-3c-0.27-1.03-0.72-2.09-1.35-3.15
	c-0.01-0.01-0.02-0.02-0.03-0.02s-0.03,0.01-0.03,0.02c-0.34,0.91-0.68,2.39-0.39,4.26c0.03,0.21-0.07,0.43-0.26,0.54
	c-0.19,0.11-0.43,0.09-0.6-0.05c-0.01-0.01-1.2-0.94-2.58-1.33C75.14,48.95,75.13,48.95,75.12,48.96"/>
<path class="st4" d="M71.6,44.3c-0.01,0.01-0.01,0.03,0,0.04c0.37,0.55,0.78,1.06,1.22,1.53c1.33,1.41,2.8,2.28,4.37,2.57h0.01
	c0.02,0,0.03-0.01,0.04-0.03c0.13-0.39,0.32-1.2,0.26-2.28c-0.06-0.96-0.31-1.94-0.74-2.91c-0.42-0.95-1.03-1.91-1.8-2.85
	c-0.01-0.01-0.03-0.02-0.04-0.01c-0.01,0-0.03,0.01-0.03,0.03c-0.16,1.01-0.25,2.56,0.27,4.22c0.07,0.22-0.01,0.45-0.2,0.59
	c-0.18,0.13-0.43,0.14-0.62,0c-0.01-0.01-1.2-0.82-2.7-0.93C71.62,44.28,71.61,44.29,71.6,44.3"/>
<path class="st4" d="M70.94,40.52c-0.15,0.16-0.38,0.22-0.59,0.14c-0.01,0-1.26-0.48-2.59-0.48c-0.07,0-0.13,0-0.2,0
	c-0.01,0-0.03,0.01-0.03,0.02c-0.01,0.01,0,0.03,0.01,0.04c0.49,0.51,1,0.97,1.53,1.38c1.07,0.82,2.7,1.79,4.48,1.79
	c0.03,0,0.06,0,0.09,0c0.02,0,0.03-0.01,0.04-0.03c0.04-0.33,0.11-1.22-0.15-2.34c-0.22-0.95-0.63-1.88-1.21-2.77
	c-0.57-0.88-1.32-1.73-2.22-2.53c-0.01-0.01-0.03-0.01-0.04-0.01c-0.01,0.01-0.02,0.02-0.02,0.03c-0.03,0.97,0.12,2.48,0.99,4.15
	C71.12,40.11,71.09,40.35,70.94,40.52"/>
<path class="st4" d="M23.77,117.26c0.1,0,0.18,0,0.25-0.01c0.02,0,0.03-0.02,0.03-0.03c0.16-2.58-1.52-5.02-2.54-6.25
	c-0.01-0.01-0.03-0.02-0.04-0.01c-0.01,0-0.03,0.02-0.03,0.03c-0.15,1.41,0.17,2.72,0.17,2.74c0.05,0.21-0.03,0.43-0.2,0.56
	c-0.18,0.13-0.41,0.14-0.6,0.02c-1.61-1.03-3.12-1.32-4.1-1.38c-0.02,0-0.03,0.01-0.03,0.02c-0.01,0.01,0,0.03,0,0.04
	c0.73,1,1.52,1.83,2.36,2.49c0.85,0.66,1.75,1.15,2.67,1.45C22.58,117.2,23.31,117.26,23.77,117.26"/>
<path class="st4" d="M20.23,112.47L20.23,112.47c0.02,0,0.03-0.01,0.04-0.03c0.32-1.88-0.31-3.7-0.9-4.89
	c-0.27-0.54-0.58-1.07-0.94-1.59c-0.01-0.01-0.02-0.02-0.04-0.01c-0.01,0-0.03,0.01-0.03,0.03c-0.29,1.39-0.15,2.7-0.14,2.76
	c0.03,0.21-0.08,0.42-0.27,0.53c-0.19,0.1-0.42,0.09-0.59-0.05c-1.5-1.19-2.96-1.64-3.93-1.8c-0.02,0-0.03,0-0.04,0.02
	c-0.01,0.01-0.01,0.03,0,0.04c0.62,1.06,1.32,1.98,2.08,2.72c0.77,0.75,1.61,1.33,2.5,1.72C18.98,112.35,19.82,112.45,20.23,112.47"
	/>
<path class="st4" d="M16.94,107.36L16.94,107.36c0.02,0,0.04-0.01,0.04-0.03c0.48-1.57,0.39-3.27-0.28-5.07
	c-0.21-0.56-0.46-1.11-0.77-1.64c-0.01-0.01-0.02-0.02-0.03-0.02c-0.02,0-0.03,0.01-0.03,0.03c-0.44,1.33-0.48,2.77-0.48,2.79
	c-0.01,0.21-0.14,0.4-0.34,0.48c-0.2,0.08-0.42,0.03-0.58-0.12c-1.16-1.16-2.36-1.76-3.16-2.06c-0.18-0.07-0.36-0.13-0.53-0.18
	c-0.01,0-0.03,0-0.04,0.01c-0.01,0.01-0.01,0.03-0.01,0.04c0.49,1.13,1.08,2.12,1.75,2.94c0.68,0.83,1.44,1.51,2.28,2
	C15.74,107.11,16.61,107.3,16.94,107.36"/>
<path class="st4" d="M14.27,101.83C14.27,101.83,14.28,101.83,14.27,101.83c0.03,0,0.04-0.01,0.04-0.02
	c1.24-2.74,0.38-5.45-0.25-6.81c-0.01-0.01-0.02-0.02-0.03-0.02h0c-0.01,0-0.03,0.01-0.03,0.02c-0.6,1.27-0.82,2.74-0.82,2.75
	c-0.03,0.21-0.18,0.38-0.39,0.44c-0.21,0.06-0.42-0.02-0.56-0.18c-1.01-1.29-2.14-2.02-2.9-2.41c-0.17-0.09-0.34-0.16-0.51-0.24
	c-0.01-0.01-0.03,0-0.04,0.01c-0.01,0.01-0.02,0.03-0.01,0.04C10.23,100.21,13.1,101.5,14.27,101.83"/>
<path class="st4" d="M10.28,94.83c0.86,0.76,1.68,1.1,1.99,1.22c0,0,0.01,0,0.01,0c0,0,0.02-0.01,0.03-0.02
	c0.98-1.66,1.28-3.42,0.89-5.23c-0.12-0.58-0.32-1.15-0.58-1.7c-0.01-0.01-0.02-0.02-0.03-0.02c0,0-0.03,0.01-0.03,0.02
	c-0.73,1.23-1.07,2.72-1.08,2.79l0.03,0.01l-0.04-0.01c-0.04,0.21-0.21,0.37-0.42,0.41s-0.42-0.05-0.54-0.22
	c-1.07-1.58-2.33-2.44-3.2-2.88c-0.01-0.01-0.03,0-0.04,0c-0.01,0.01-0.02,0.02-0.01,0.04c0.27,1.2,0.66,2.28,1.16,3.22
	C8.93,93.39,9.55,94.19,10.28,94.83"/>
<path class="st4" d="M10.63,90.17c0.01,0,0.01,0,0.02,0c0,0,0.02,0,0.03-0.01c1.99-2.7,1.8-5.36,1.51-6.7
	c0-0.01-0.01-0.02-0.03-0.03c-0.01,0-0.03,0-0.04,0.01c-0.94,1.11-1.51,2.51-1.52,2.52c-0.08,0.2-0.27,0.33-0.48,0.33h-0.01
	c-0.21,0-0.4-0.12-0.48-0.32c-0.66-1.49-1.57-2.47-2.21-3.03c-0.14-0.12-0.29-0.24-0.44-0.35c-0.01-0.01-0.03-0.01-0.04,0
	c-0.01,0.01-0.02,0.02-0.02,0.03C7.13,87.61,9.58,89.57,10.63,90.17"/>
<path class="st4" d="M10.11,84.11c0.01,0,0.01,0.01,0.01,0.01c0.02,0,0.03,0,0.03-0.01c0.97-0.93,1.58-2.15,1.83-3.61
	c0.21-1.22,0.11-2.37-0.01-3.11c0-0.01-0.01-0.02-0.03-0.03c-0.01,0-0.03,0-0.04,0.01c-1.12,1.02-1.36,2.35-1.36,2.37
	c-0.04,0.24-0.24,0.42-0.48,0.44c-0.25,0.02-0.47-0.13-0.55-0.37c-0.5-1.55-1.3-2.62-1.88-3.24c-0.13-0.14-0.26-0.27-0.4-0.4
	c-0.01-0.01-0.03-0.01-0.04-0.01c-0.01,0-0.02,0.02-0.02,0.03C6.87,81.22,9.13,83.41,10.11,84.11"/>
<path class="st4" d="M8.66,75.89c0.55,0.99,1.2,1.58,1.45,1.79c0.01,0,0.02,0.01,0.02,0.01c0,0,0.02,0,0.03-0.01
	c1.16-1.07,1.91-2.58,2.22-4.5c0.1-0.61,0.15-1.24,0.16-1.88c0-0.01-0.01-0.03-0.02-0.03c-0.01-0.01-0.03,0-0.04,0.01
	c-1.07,0.95-1.65,2.17-1.66,2.18c-0.1,0.2-0.31,0.33-0.53,0.3c-0.22-0.02-0.41-0.18-0.46-0.4c-0.47-1.83-1.37-3.06-2.05-3.77
	c-0.01-0.01-0.03-0.01-0.04-0.01c-0.01,0-0.02,0.02-0.03,0.03c-0.15,1.22-0.15,2.37,0.01,3.42C7.87,74.09,8.19,75.05,8.66,75.89"/>
<path class="st4" d="M9.3,69.66c0.48,0.96,1.06,1.57,1.36,1.85c0.01,0.01,0.02,0.01,0.03,0.01c0.01,0,0.02,0,0.02-0.01
	c1.33-1.19,2.22-2.71,2.63-4.53c0.12-0.55,0.2-1.1,0.23-1.66c0-0.01-0.01-0.03-0.02-0.03c-0.01-0.01-0.03,0-0.04,0
	c-1.11,0.87-1.93,2.05-1.97,2.1c-0.12,0.18-0.34,0.26-0.54,0.22c-0.21-0.04-0.37-0.21-0.41-0.41c-0.38-1.85-1.23-3.12-1.87-3.86
	c-0.01-0.01-0.02-0.02-0.04-0.01c-0.01,0-0.02,0.01-0.03,0.03c-0.21,1.21-0.26,2.36-0.16,3.41C8.61,67.83,8.88,68.8,9.3,69.66"/>
<path class="st4" d="M11.48,65.46c0.01,0.01,0.02,0.01,0.03,0.01c0,0,0.01,0,0.02,0c1.61-1,2.72-2.41,3.3-4.19
	c0.18-0.55,0.3-1.11,0.37-1.67c0-0.01,0-0.03-0.02-0.04c-0.01-0.01-0.03-0.01-0.04,0c-1.31,0.75-2.27,1.87-2.27,1.89
	c-0.14,0.17-0.36,0.23-0.57,0.17c-0.21-0.07-0.35-0.25-0.37-0.47c-0.15-1.89-0.83-3.26-1.37-4.06c-0.01-0.01-0.02-0.02-0.04-0.02
	c-0.01,0-0.03,0.01-0.03,0.03c-0.36,1.18-0.55,2.32-0.58,3.38c-0.02,1.07,0.13,2.07,0.45,2.97C10.73,64.52,11.27,65.21,11.48,65.46"
	/>
<path class="st4" d="M13.04,59.54c0.01,0.01,0.02,0.02,0.03,0.02c0,0,0.01,0,0.02,0c1.72-0.85,2.99-2.12,3.8-3.76
	c0.25-0.5,0.44-1.03,0.58-1.56c0-0.01,0-0.03-0.01-0.04c-0.01-0.01-0.03-0.01-0.04,0c-1.32,0.57-2.45,1.54-2.5,1.58
	c-0.16,0.14-0.39,0.17-0.58,0.08c-0.19-0.09-0.31-0.29-0.3-0.51c0.09-1.9-0.41-3.33-0.85-4.2c-0.01-0.01-0.02-0.02-0.03-0.02
	c-0.02,0-0.03,0.01-0.03,0.02c-0.51,1.13-0.85,2.23-1,3.28c-0.16,1.06-0.14,2.07,0.06,3C12.4,58.47,12.81,59.2,13.04,59.54"/>
<path class="st4" d="M15.27,53.88c0.01,0.01,0.02,0.02,0.03,0.02l0.01,0c1.55-0.45,2.91-1.47,4.05-3.04
	c0.49-0.67,0.84-1.32,1.04-1.74c0.01-0.01,0.01-0.03,0-0.04c-0.01-0.01-0.02-0.02-0.03-0.01c-1.5,0.21-2.59,1.26-2.6,1.27
	c-0.17,0.17-0.42,0.2-0.63,0.09c-0.21-0.11-0.32-0.34-0.27-0.57c0.38-1.86,0.09-3.35-0.21-4.28c0-0.01-0.02-0.02-0.03-0.03
	c-0.01,0-0.03,0-0.03,0.02c-0.67,1.04-1.17,2.08-1.48,3.09c-0.31,1.02-0.44,2.02-0.39,2.98C14.8,52.76,15.13,53.58,15.27,53.88"/>
<path class="st4" d="M18.38,48.46C18.38,48.46,18.39,48.46,18.38,48.46c2.59-0.43,4.59-2.76,5.55-4.11c0.01-0.01,0.01-0.03,0-0.04
	c-0.01-0.01-0.02-0.02-0.03-0.02c-1.48,0.12-2.65,0.92-2.66,0.92c-0.19,0.13-0.44,0.13-0.62-0.01c-0.18-0.14-0.26-0.38-0.19-0.59
	c0.6-1.8,0.5-3.32,0.31-4.27c0-0.01-0.01-0.03-0.03-0.03c-0.01,0-0.03,0-0.04,0.01c-3.23,3.88-2.7,6.96-2.33,8.1
	C18.35,48.45,18.37,48.46,18.38,48.46"/>
<path class="st4" d="M22.01,43.43c0.06,0,0.12,0,0.18,0c1.53,0,3.13-0.97,4.21-1.81c0.53-0.41,1.06-0.87,1.57-1.38
	c0.01-0.01,0.01-0.03,0.01-0.04c0-0.01-0.02-0.02-0.03-0.02c-1.37,0.05-2.66,0.48-2.67,0.48c-0.21,0.07-0.43,0.01-0.58-0.16
	c-0.14-0.17-0.17-0.4-0.07-0.59c0.88-1.69,1.02-3.19,0.99-4.16c0-0.01-0.01-0.03-0.02-0.03c-0.01-0.01-0.03,0-0.04,0.01
	c-0.94,0.82-1.71,1.69-2.29,2.58c-0.59,0.9-0.99,1.83-1.2,2.76c-0.25,1.12-0.16,2.01-0.1,2.33C21.98,43.41,22,43.43,22.01,43.43"/>
<path class="st4" d="M32.72,36.6c-1.38-0.11-2.73,0.16-2.75,0.17c-0.21,0.04-0.43-0.04-0.55-0.22c-0.12-0.18-0.12-0.41-0.01-0.59
	c1.04-1.6,1.33-3.08,1.39-4.05c0-0.01-0.01-0.03-0.02-0.03c-0.01-0.01-0.03,0-0.04,0c-4.1,2.95-4.38,6.05-4.32,7.25
	c0,0.02,0.02,0.03,0.03,0.03c0.09,0,0.18,0.01,0.27,0.01c2.49,0,4.82-1.55,6.01-2.49c0.01-0.01,0.02-0.03,0.01-0.04
	C32.75,36.61,32.74,36.6,32.72,36.6"/>
<path class="st4" d="M37.96,34.08c-0.43-0.13-0.91-0.23-1.43-0.3c-0.77-0.1-1.36-0.1-1.36-0.1l-0.01,0c-0.22,0-0.42-0.14-0.5-0.34
	c-0.08-0.21-0.02-0.45,0.15-0.59c1.42-1.22,2.09-2.34,2.4-3.06c0.01-0.01,0-0.03-0.01-0.04c-0.01-0.01-0.03-0.01-0.04-0.01
	c-4.77,1.62-5.81,4.4-6.03,5.52c0,0.02,0.01,0.04,0.03,0.04c0.48,0.14,1.12,0.25,1.89,0.25c0.89,0,1.96-0.15,3.21-0.58
	c0.57-0.2,1.14-0.44,1.7-0.72c0.01-0.01,0.02-0.02,0.02-0.03C37.99,34.1,37.98,34.09,37.96,34.08"/>
<path class="st4" d="M43.67,32.54c-1.24-0.62-2.64-0.89-2.65-0.89c-0.23-0.04-0.4-0.22-0.43-0.45c-0.03-0.23,0.09-0.45,0.29-0.55
	c1.56-0.77,2.35-1.56,2.74-2.09c0.01-0.01,0.01-0.03,0-0.04c-0.01-0.01-0.02-0.02-0.04-0.02c-2.44,0.34-4.38,1.17-5.61,2.39
	c-0.63,0.63-0.96,1.24-1.12,1.64c-0.01,0.02,0,0.04,0.02,0.05c1.06,0.49,2.18,0.65,3.19,0.65c0.68,0,1.31-0.07,1.84-0.17
	c0.59-0.1,1.18-0.25,1.76-0.45c0.01,0,0.02-0.02,0.03-0.03C43.69,32.56,43.68,32.54,43.67,32.54"/>
<path class="st4" d="M47.39,30.92c-0.21-0.08-0.35-0.29-0.35-0.52c0.01-0.23,0.16-0.43,0.38-0.49c1.55-0.47,2.51-1.06,3.04-1.48
	c0.01-0.01,0.02-0.03,0.01-0.04c0-0.01-0.02-0.03-0.03-0.03c-2.4-0.16-4.43,0.24-5.87,1.15c-0.76,0.48-1.21,1-1.46,1.36
	c-0.01,0.02-0.01,0.04,0.01,0.05c1.62,1.23,3.72,1.52,5.33,1.52c0.5,0,0.95-0.03,1.32-0.06c0.01,0,0.03-0.01,0.03-0.03
	c0-0.01,0-0.03-0.01-0.04C48.72,31.43,47.4,30.93,47.39,30.92"/>
<path class="st4" d="M53.64,31.35c-0.18-0.12-0.27-0.35-0.22-0.57c0.05-0.21,0.24-0.38,0.45-0.4c1.57-0.19,2.63-0.57,3.23-0.85
	c0.01-0.01,0.02-0.02,0.02-0.04c0-0.02-0.01-0.03-0.03-0.03c-2.29-0.62-4.34-0.63-5.92-0.03c-0.84,0.32-1.4,0.74-1.71,1.04
	c-0.01,0.01-0.02,0.04,0,0.05c1.99,2.38,4.78,2.81,6.26,2.86h0c0.01,0,0.03-0.01,0.03-0.02c0.01-0.01,0-0.03,0-0.04
	C54.88,32.2,53.66,31.36,53.64,31.35"/>
<path class="st4" d="M69.2,39.14c0.02,0,0.03-0.02,0.03-0.04c0.01-0.51-0.04-1.52-0.46-2.6c-0.72-1.83-2.17-3.12-4.33-3.84
	c-0.01,0-0.03,0-0.04,0.01c-0.01,0.01-0.01,0.03-0.01,0.04c0.3,0.86,0.83,2.1,1.69,3.19c0.14,0.18,0.16,0.43,0.03,0.62
	c-0.12,0.19-0.35,0.28-0.57,0.23c-0.01,0-1.33-0.31-2.72-0.04c-0.01,0-0.03,0.01-0.03,0.03c0,0.01,0,0.03,0.02,0.04
	c1.36,0.9,3.9,2.37,6.09,2.37C69.01,39.15,69.1,39.15,69.2,39.14"/>
<path class="st4" d="M64.25,35.27c0-0.01,0-0.03-0.01-0.03c-1.19-1.26-2.71-1.84-4.52-1.73c-0.64,0.04-1.29,0.16-1.94,0.37
	c-0.01,0-0.02,0.02-0.03,0.03c0,0.01,0,0.03,0.01,0.04c1.44,1.12,2.95,1.68,4.49,1.68c0.08,0,0.17,0,0.25,0
	c0.74-0.03,1.34-0.19,1.71-0.32C64.24,35.3,64.24,35.29,64.25,35.27"/>
<path class="st4" d="M55.49,31.43c0,0.01,0,0.03,0.02,0.03c0.91,0.64,2.03,0.96,3.33,0.96c0.55,0,1.13-0.06,1.74-0.17
	c0.96-0.18,1.82-0.48,2.37-0.69c0.01-0.01,0.02-0.02,0.02-0.03c0-0.01-0.01-0.03-0.02-0.03c-0.87-0.48-1.76-0.81-2.65-0.96
	c-0.94-0.16-1.89-0.13-2.82,0.09c-0.86,0.2-1.54,0.53-1.96,0.77C55.49,31.41,55.49,31.42,55.49,31.43"/>
<path class="st5" d="M37.67,66.22c0.29,0.36,0.78,0.53,1.49,0.53h6.91c-4.15-2.57-5.67-2.11-8.57-0.79
	C37.56,66.05,37.61,66.14,37.67,66.22"/>
<path class="st5" d="M54.55,63.05c-0.65-0.17-1.26-0.34-1.81-0.55c-2.17-0.87-3.96-2.27-4.04-2.33c-0.44-0.35-0.51-0.99-0.16-1.42
	c0.35-0.44,0.98-0.51,1.42-0.17c0.02,0.01,1.63,1.28,3.53,2.04c0.43,0.17,0.98,0.32,1.57,0.47c0.86,0.23,1.91,0.51,2.8,0.96
	c-0.18-1.14-0.36-2.12-0.56-3.05c-2.79-0.62-5.08-2.5-5.18-2.58c-0.21-0.17-0.34-0.41-0.36-0.69C51.74,55.47,51.83,55.2,52,55
	c0.36-0.43,1-0.49,1.43-0.14c0.01,0.01,1.49,1.21,3.34,1.88c-0.74-2.75-1.73-5.33-3.04-7.88c-0.94-1.82-2.31-3.04-4.1-3.63
	c-1.3-0.43-2.34-0.34-2.34-0.34c-0.03,0-0.06,0-0.1,0c-0.03,0-3.36,0.05-5.45,2.52c-0.01,0.02-0.03,0.04-0.05,0.05
	c-0.39,0.39-1.42,1.62-1.58,2.54c-0.09,0.51,0.04,0.91,0.35,1.09c0.14,0.08,0.68,0.3,1.63-0.36c0.23-0.2,0.39-0.3,0.43-0.33
	c0.45-0.31,1.05-0.21,1.38,0.21c0.33,0.43,0.27,1.04-0.14,1.39c-0.13,0.11-0.27,0.22-0.4,0.32c-0.42,0.35-1.27,1.14-2.21,2.41
	c-1.25,1.69-2.92,4.59-3.76,8.84c-0.02,0.09-0.03,0.17-0.04,0.25c2.88-1.24,5.21-1.76,10.33,1.54c2,1.29,4.32,1.39,4.76,1.39h2.27
	c0.02,0,0.04,0,0.07,0c0.58,0.04,2.27-0.05,3.04-0.88c0.13-0.14,0.23-0.31,0.3-0.5C58.05,64.18,56.96,63.69,54.55,63.05"/>
<path class="st6" d="M44.6,102.64c0.27-0.21,0.57-0.57,0.59-0.8c0.01-0.12-0.09-0.26-0.27-0.42c-0.22-0.19-0.45-0.28-0.7-0.28
	c-0.51,0-1.13,0.36-2.03,0.99c-0.58,0.41-1.54,1.2-1.46,1.94c0.04,0.31,0.15,0.43,0.27,0.5c0.47,0.32,1.41,0.21,1.76,0.16
	C43.1,103.94,43.7,103.26,44.6,102.64"/>
<path class="st6" d="M48.11,103.89c0.01-0.05,0.02-0.22-0.27-0.51c-0.01-0.01-0.45-0.34-1.45,0.24c-0.77,0.44-1.61,0.98-2,1.78
	c0.2,0.21,0.4,0.28,0.54,0.3c0.83,0.16,2-0.56,2.34-0.83c0.03-0.02,0.05-0.03,0.07-0.05C47.56,104.68,48.07,104.24,48.11,103.89"/>
<path class="st6" d="M37.39,98.98c-0.07-0.01-0.13-0.01-0.21-0.01c-0.75,0-1.8,0.52-2.29,1.15c-0.34,0.44-0.22,0.7-0.19,0.78
	c0.06,0.14,0.38,0.32,0.95,0.41c0.12,0.02,0.24,0.03,0.37,0.04c0.23-0.82,0.79-1.44,1.31-1.94c0.15-0.14,0.28-0.26,0.41-0.38
	c-0.12-0.03-0.23-0.04-0.3-0.05C37.44,98.99,37.42,98.98,37.39,98.98"/>
<path class="st6" d="M37.71,102.19c0.02,0.16,0.06,0.6,0.93,0.89c0.13,0.04,0.27,0.08,0.42,0.11c0.26-0.87,0.97-1.72,2.11-2.52
	c0.15-0.11,0.32-0.22,0.49-0.34c0.01-0.06,0-0.12-0.01-0.17c-0.05-0.15-0.22-0.3-0.5-0.44c-0.18-0.09-0.37-0.14-0.57-0.14
	c-0.56,0-1.21,0.36-1.99,1.11C37.92,101.33,37.68,101.73,37.71,102.19"/>
<path class="st6" d="M59.45,100.53c0.52-0.01,0.92-0.14,1.18-0.39c0.26-0.24,0.36-0.57,0.4-0.81c-0.51-0.64-2.23-2.68-4.56-4.19
	c-0.98-0.64-2.03-1.28-3.11-1.7c-1.19-0.46-2.21-0.56-3.1-0.32c-0.02,0-0.03,0.01-0.05,0.01c-0.27,0.06-0.66,0.31-1.1,0.61
	c-0.29,0.19-0.62,0.41-0.99,0.62c-1.03,0.6-2.45,1.02-3.61,1.09c-1.03,0.06-2.33,0.13-3.12-0.98c-0.52-0.73-0.63-1.4-0.35-2.16
	c0.26-0.71,1.08-1.11,2.12-1.62c0.44-0.21,0.9-0.44,1.23-0.65c0.49-0.31,0.79-0.56,1.17-0.87c0.38-0.31,0.81-0.66,1.51-1.15
	c0.29-0.21,0.59-0.37,0.91-0.51c-0.33-0.04-0.69-0.08-1.08-0.12c-1.66-0.14-2.86,0.46-4.6,1.69c-1.51,1.02-4.47,1.95-9.05,2.86
	c-4.37,0.87-10.36,1.75-17.82,2.6c0.22,0.83,0.47,1.66,0.73,2.46c0.95,2.96,2.13,5.78,3.52,8.39c2.65-1.17,9.17-4.11,14.24-6.82
	c1.01-0.96,2.53-1.51,3.71-1.36c0.27,0.02,1.22,0.14,1.95,0.75c0.82-0.26,1.64-0.2,2.38,0.17c0.82,0.41,1.19,0.95,1.35,1.36v0
	c1.05-0.32,1.99-0.13,2.79,0.58c0.5,0.43,0.79,0.92,0.86,1.47c1-0.16,1.76,0.19,2.14,0.58c0.75,0.73,0.84,1.47,0.79,1.96
	c-0.04,0.37-0.17,0.72-0.39,1.07c0.5,0.06,0.99,0,1.43-0.18c0.16-0.07,0.32-0.14,0.46-0.23c-0.22-0.44-0.6-1.09-1.22-1.78
	c-0.16-0.18-0.24-0.41-0.22-0.64c0.01-0.24,0.12-0.45,0.3-0.61c0.37-0.33,0.93-0.29,1.25,0.07c0.9,1.01,1.39,1.96,1.62,2.46
	c0.48,0.06,0.86-0.07,1.18-0.38c0.19-0.18,0.32-0.4,0.4-0.56c-0.09-0.21-0.33-0.62-0.93-1.31c-0.5-0.58-1.63-1.43-2.02-1.7
	c-0.19-0.14-0.32-0.34-0.36-0.57c-0.04-0.23,0.01-0.47,0.15-0.66c0.14-0.19,0.34-0.32,0.57-0.36c0.23-0.04,0.47,0.01,0.66,0.15
	c0.07,0.05,1.59,1.12,2.34,1.99c0.56,0.65,0.96,1.23,1.19,1.71c0.63,0,1.12-0.18,1.46-0.56c0.1-0.12,0.19-0.25,0.26-0.4
	c-0.67-0.9-2.39-2.99-4.46-4c-0.21-0.1-0.37-0.29-0.45-0.51c-0.08-0.22-0.06-0.47,0.04-0.68c0.1-0.21,0.28-0.37,0.51-0.45
	c0.22-0.08,0.47-0.06,0.68,0.04C56.78,97.17,58.71,99.53,59.45,100.53"/>
<path class="st6" d="M48.13,92.25c0.59-0.39,1.1-0.73,1.69-0.86c2.95-0.8,5.99,1.18,7.63,2.25c2.23,1.45,3.9,3.27,4.7,4.23
	c0.01,0.02,0.06,0.07,0.13,0.16l0.03,0.03c0,0,0.01,0.01,0.01,0.01c0.25,0.28,0.78,0.84,1.54,1.38c3.75,2.78,9.46,5.26,11.82,6.23
	c1.46-2.69,2.69-5.61,3.68-8.68c0.24-0.73,0.46-1.49,0.67-2.25c-4.72-0.31-9.76-1.34-13.16-2.15c-3.92-0.93-6.81-1.84-6.93-1.88
	c-0.8-0.27-1.5-0.52-2.13-0.75c-2.14-0.77-3.56-1.28-5.13-1.21c-0.19,0.01-0.37,0.01-0.55,0.02c-0.24,0.01-0.47,0.01-0.69,0.02H51.4
	c-1.47,0.03-2.44,0.05-3.32,0.67c-0.65,0.46-1.06,0.79-1.41,1.08c-0.39,0.32-0.76,0.62-1.32,0.98c-0.42,0.28-0.93,0.52-1.41,0.76
	c-0.38,0.18-1.07,0.52-1.26,0.7c-0.03,0.08-0.04,0.18,0.15,0.45c0.21,0.3,0.74,0.29,1.58,0.24c0.74-0.04,1.9-0.32,2.82-0.85
	C47.56,92.63,47.85,92.44,48.13,92.25"/>
<path class="st7" d="M135.64,107.58l-2.3-7.05c-0.08-0.24-0.31-0.41-0.56-0.41h-9.81c-0.25,0-0.48,0.16-0.56,0.41l-2.3,7.05
	c-0.08,0.24-0.31,0.41-0.56,0.41h-3.59c-0.4,0-0.69-0.39-0.56-0.78l8.8-26.14c0.08-0.24,0.31-0.4,0.56-0.4h6.28
	c0.25,0,0.48,0.16,0.56,0.4l8.8,26.14c0.13,0.38-0.16,0.78-0.56,0.78h-3.63C135.95,107.98,135.72,107.82,135.64,107.58
	 M124.62,96.17h6.48c0.4,0,0.68-0.39,0.56-0.77l-3.25-9.92c-0.18-0.54-0.94-0.54-1.12,0l-3.23,9.92
	C123.94,95.78,124.22,96.17,124.62,96.17"/>
<path class="st7" d="M143.99,87.85h2.89c0.29,0,0.54,0.22,0.58,0.51l0.3,2.12h0.26c0.59-0.95,1.37-1.66,2.33-2.14
	c0.97-0.48,2.03-0.72,3.18-0.72c0.36,0,0.72,0.02,1.09,0.06c0.3,0.03,0.52,0.29,0.52,0.59v3.2c0,0.35-0.29,0.61-0.64,0.58
	c-0.36-0.03-0.78-0.05-1.25-0.05c-0.96,0-1.9,0.2-2.83,0.59c-0.86,0.36-1.54,0.87-2.06,1.51c-0.09,0.11-0.13,0.24-0.13,0.38v12.92
	c0,0.32-0.26,0.59-0.59,0.59h-3.66c-0.32,0-0.59-0.26-0.59-0.59V88.44C143.4,88.11,143.66,87.85,143.99,87.85"/>
<path class="st7" d="M161,116.26c-0.96-0.12-1.87-0.29-2.73-0.52c-0.26-0.07-0.44-0.31-0.44-0.58v-2.62c0-0.39,0.37-0.66,0.74-0.56
	c1.88,0.48,3.67,0.72,5.37,0.72c1.38,0,2.5-0.18,3.36-0.53c0.86-0.35,1.5-0.91,1.91-1.69c0.41-0.77,0.62-1.8,0.62-3.06v-1.59h-0.24
	c-0.63,0.73-1.39,1.29-2.3,1.7c-0.9,0.41-1.92,0.61-3.05,0.61c-1.44,0-2.75-0.35-3.91-1.04c-1.17-0.69-2.1-1.78-2.81-3.25
	c-0.7-1.47-1.05-3.31-1.05-5.53c0-3.54,0.92-6.23,2.77-8.05c1.85-1.82,4.59-2.74,8.23-2.75c1.21,0,2.46,0.09,3.75,0.28
	c1.12,0.16,2.13,0.38,3.04,0.65c0.25,0.07,0.41,0.31,0.41,0.57v17.54c0,2.33-0.38,4.22-1.14,5.68c-0.76,1.46-1.9,2.53-3.42,3.21
	c-1.53,0.68-3.47,1.03-5.82,1.03C163.22,116.48,162.12,116.41,161,116.26 M168.1,103.78c0.61-0.24,1.13-0.59,1.56-1.04
	c0.11-0.11,0.16-0.26,0.16-0.42V92.06c0-0.28-0.2-0.54-0.48-0.59c-0.77-0.14-1.53-0.22-2.29-0.22c-1.91,0-3.34,0.53-4.29,1.59
	c-0.95,1.06-1.43,2.74-1.43,5.06c0,2.3,0.4,3.92,1.2,4.86c0.8,0.94,1.94,1.41,3.43,1.41C166.71,104.18,167.42,104.05,168.1,103.78"
	/>
<path class="st7" d="M195.23,99.36h-11.24c-0.35,0-0.62,0.31-0.58,0.67c0.1,1,0.33,1.81,0.69,2.44c0.43,0.77,1.1,1.33,1.99,1.67
	c0.9,0.34,2.1,0.52,3.6,0.52c1.29,0,2.73-0.18,4.33-0.53c0.37-0.08,0.72,0.19,0.72,0.57v2.46c0,0.28-0.19,0.52-0.46,0.58
	c-1.77,0.41-3.53,0.61-5.26,0.61c-2.4,0-4.37-0.36-5.92-1.09c-1.55-0.73-2.7-1.86-3.46-3.39c-0.76-1.53-1.14-3.52-1.14-5.97
	c0-2.25,0.35-4.15,1.05-5.7c0.7-1.55,1.72-2.72,3.04-3.5c1.33-0.78,2.94-1.17,4.82-1.17c2.74,0,4.83,0.88,6.26,2.65
	c1.43,1.77,2.14,4.39,2.14,7.87v0.72C195.82,99.1,195.56,99.36,195.23,99.36 M184.41,92.02c-0.61,0.8-0.96,2.07-1.05,3.83
	c-0.02,0.33,0.26,0.62,0.59,0.62h6.73c0.33,0,0.61-0.28,0.59-0.61c-0.09-1.76-0.42-3.04-1-3.83c-0.65-0.89-1.61-1.33-2.89-1.33
	C186.08,90.69,185.09,91.13,184.41,92.02"/>
<path class="st7" d="M200.01,87.85h2.91c0.29,0,0.54,0.21,0.58,0.5l0.25,1.62h0.26c0.76-0.79,1.66-1.39,2.7-1.81
	c1.04-0.42,2.15-0.63,3.33-0.63c2.08,0,3.72,0.61,4.93,1.84c1.21,1.22,1.81,3.16,1.81,5.81v12.22c0,0.32-0.26,0.59-0.59,0.59h-3.66
	c-0.32,0-0.59-0.26-0.59-0.59V95.45c0-1.34-0.28-2.3-0.85-2.87c-0.57-0.57-1.39-0.86-2.47-0.86c-0.81,0-1.61,0.17-2.4,0.51
	c-0.72,0.31-1.33,0.76-1.84,1.35c-0.09,0.11-0.14,0.25-0.14,0.39v13.43c0,0.32-0.26,0.59-0.59,0.59h-3.66
	c-0.32,0-0.59-0.26-0.59-0.59V88.44C199.42,88.11,199.68,87.85,200.01,87.85"/>
<path class="st7" d="M233.42,104.77v2.7c0,0.28-0.2,0.53-0.47,0.58c-1.01,0.2-2.02,0.3-3.02,0.3c-4.77,0-7.16-2.41-7.16-7.22v-8.85
	c0-0.32-0.26-0.59-0.59-0.59h-2.29c-0.32,0-0.59-0.26-0.59-0.59v-2.68c0-0.32,0.26-0.59,0.59-0.59h2.36c0.3,0,0.55-0.22,0.59-0.52
	l0.73-6.14c0.03-0.3,0.29-0.52,0.58-0.52h2.88c0.33,0,0.59,0.26,0.59,0.59v6c0,0.32,0.26,0.59,0.59,0.59h4.45
	c0.33,0,0.59,0.26,0.59,0.59v2.68c0,0.33-0.26,0.59-0.59,0.59h-4.45c-0.32,0-0.59,0.26-0.59,0.59v8.07c0,0.99,0.13,1.77,0.38,2.34
	c0.25,0.58,0.64,0.99,1.15,1.25c0.52,0.25,1.2,0.38,2.05,0.38c0.44,0,0.96-0.05,1.56-0.14C233.1,104.13,233.42,104.42,233.42,104.77
	"/>
<path class="st7" d="M236.95,83.72c-0.51-0.45-0.76-1.1-0.76-1.95s0.25-1.5,0.76-1.96c0.51-0.45,1.28-0.68,2.3-0.68
	c1.02,0,1.79,0.23,2.3,0.68c0.51,0.46,0.76,1.11,0.76,1.96s-0.25,1.5-0.76,1.95c-0.51,0.45-1.28,0.67-2.3,0.67
	C238.23,84.4,237.46,84.17,236.95,83.72 M236.82,107.4V88.44c0-0.32,0.26-0.59,0.59-0.59h3.68c0.32,0,0.59,0.26,0.59,0.59v18.96
	c0,0.32-0.26,0.59-0.59,0.59h-3.68C237.08,107.99,236.82,107.72,236.82,107.4"/>
<path class="st7" d="M246.22,87.85h2.91c0.29,0,0.54,0.21,0.58,0.5l0.25,1.62h0.26c0.76-0.79,1.66-1.39,2.7-1.81
	c1.04-0.42,2.15-0.63,3.33-0.63c2.08,0,3.72,0.61,4.93,1.84c1.21,1.22,1.81,3.16,1.81,5.81v12.22c0,0.32-0.26,0.59-0.59,0.59h-3.66
	c-0.32,0-0.59-0.26-0.59-0.59V95.45c0-1.34-0.28-2.3-0.85-2.87c-0.57-0.57-1.39-0.86-2.47-0.86c-0.81,0-1.61,0.17-2.4,0.51
	c-0.72,0.31-1.33,0.76-1.84,1.35c-0.09,0.11-0.14,0.25-0.14,0.39v13.43c0,0.32-0.26,0.59-0.59,0.59h-3.66
	c-0.32,0-0.59-0.26-0.59-0.59V88.44C245.63,88.11,245.9,87.85,246.22,87.85"/>
<path class="st7" d="M279.3,88.3c1.27,0.51,2.21,1.35,2.83,2.52c0.62,1.17,0.93,2.76,0.93,4.76v11.81c0,0.33-0.26,0.59-0.59,0.59
	h-2.92c-0.29,0-0.54-0.21-0.58-0.5l-0.25-1.59h-0.26c-0.6,0.8-1.38,1.41-2.33,1.82c-0.95,0.41-2.01,0.62-3.17,0.62
	c-1.32,0-2.45-0.23-3.41-0.7c-0.96-0.47-1.69-1.13-2.2-1.98c-0.51-0.86-0.77-1.86-0.77-3.02c0-1.87,0.64-3.32,1.92-4.34
	c1.28-1.02,3.3-1.64,6.07-1.86l3.77-0.35v-0.79c0-1.02-0.16-1.83-0.49-2.41c-0.33-0.58-0.84-1-1.53-1.25
	c-0.7-0.25-1.63-0.37-2.8-0.37c-0.83,0-1.72,0.07-2.68,0.21c-0.69,0.1-1.37,0.24-2.02,0.42c-0.38,0.1-0.75-0.17-0.75-0.56v-2.48
	c0-0.26,0.17-0.5,0.42-0.57c0.8-0.22,1.68-0.4,2.63-0.52c1.13-0.15,2.19-0.22,3.2-0.22C276.38,87.53,278.03,87.79,279.3,88.3
	 M276.54,104.5c0.6-0.24,1.14-0.61,1.63-1.11c0.11-0.11,0.17-0.27,0.17-0.42v-3.4c0-0.34-0.3-0.62-0.64-0.59l-2.66,0.24
	c-1.27,0.12-2.19,0.43-2.78,0.91c-0.58,0.49-0.88,1.17-0.88,2.04c0,0.89,0.26,1.56,0.78,2.03c0.52,0.47,1.29,0.7,2.3,0.7
	C275.18,104.9,275.87,104.77,276.54,104.5"/>
<g>
	<path class="st2" d="M117.26,65.21V45.19h4.38l6.32,14.06h-0.5l6.2-14.06h4.38v20.02h-3.38V48.35h0.78l-6.28,14h-3.03l-6.43-14
		h0.93v16.86H117.26z"/>
	<path class="st2" d="M143.61,47.93c-0.76,0-1.32-0.17-1.7-0.51s-0.56-0.82-0.56-1.42c0-0.61,0.19-1.09,0.56-1.43
		c0.37-0.34,0.94-0.51,1.7-0.51c0.77,0,1.33,0.17,1.7,0.51c0.37,0.34,0.55,0.81,0.55,1.43c0,0.6-0.19,1.08-0.55,1.42
		C144.95,47.76,144.38,47.93,143.61,47.93z M141.83,65.21V50.45h3.56v14.76H141.83z"/>
	<path class="st2" d="M148.92,65.21V50.45h2.95l0.24,1.56h0.18c0.57-0.58,1.23-1.02,1.99-1.33c0.76-0.31,1.57-0.46,2.45-0.46
		c0.96,0,1.81,0.19,2.55,0.55c0.74,0.37,1.33,0.96,1.75,1.78s0.64,1.91,0.64,3.27v9.39h-3.56v-9.19c0-1.02-0.22-1.73-0.65-2.12
		c-0.43-0.4-1.03-0.6-1.79-0.6c-0.36,0-0.74,0.05-1.12,0.15c-0.39,0.1-0.76,0.26-1.12,0.47s-0.68,0.5-0.95,0.85v10.43H148.92z"/>
	<path class="st2" d="M166.83,47.93c-0.76,0-1.32-0.17-1.7-0.51s-0.56-0.82-0.56-1.42c0-0.61,0.19-1.09,0.56-1.43
		c0.37-0.34,0.94-0.51,1.7-0.51c0.77,0,1.33,0.17,1.7,0.51c0.37,0.34,0.55,0.81,0.55,1.43c0,0.6-0.19,1.08-0.55,1.42
		C168.16,47.76,167.6,47.93,166.83,47.93z M165.04,65.21V50.45h3.56v14.76H165.04z"/>
	<path class="st2" d="M176.19,65.48c-0.81,0-1.6-0.05-2.35-0.16c-0.76-0.1-1.47-0.26-2.15-0.47v-2.67c0.72,0.22,1.45,0.38,2.2,0.49
		c0.74,0.11,1.5,0.16,2.27,0.16c1.08,0,1.85-0.16,2.31-0.48c0.46-0.32,0.69-0.76,0.69-1.33c0-0.48-0.13-0.84-0.38-1.1
		s-0.68-0.44-1.29-0.55l-2.26-0.43c-1.37-0.27-2.36-0.75-2.98-1.44s-0.92-1.6-0.92-2.73c0-1.35,0.54-2.45,1.62-3.29
		c1.08-0.84,2.73-1.27,4.95-1.27c0.69,0,1.36,0.04,2.01,0.11c0.64,0.08,1.24,0.19,1.78,0.35v2.67c-0.58-0.16-1.17-0.28-1.79-0.37
		c-0.62-0.08-1.25-0.12-1.89-0.12c-0.87,0-1.54,0.08-2.02,0.25s-0.82,0.39-1.02,0.67c-0.2,0.28-0.3,0.59-0.3,0.92
		c0,0.41,0.12,0.74,0.37,1.01s0.67,0.46,1.27,0.59l2.25,0.42c1.33,0.26,2.32,0.71,2.97,1.36s0.97,1.58,0.97,2.81
		c0,1.43-0.54,2.55-1.63,3.37C179.76,65.07,178.21,65.48,176.19,65.48z"/>
	<path class="st2" d="M183.31,53.28v-2.83h10.23v2.83H183.31z M191.11,65.48c-1.69,0-2.99-0.42-3.9-1.27
		c-0.92-0.85-1.37-2.2-1.37-4.05v-9.71l0.64-5.26h2.92v14.42c0,1.09,0.21,1.85,0.64,2.27c0.42,0.42,1.09,0.64,2,0.64
		c0.25,0,0.51-0.02,0.77-0.05c0.26-0.03,0.55-0.08,0.87-0.14v2.85c-0.38,0.08-0.79,0.15-1.24,0.21S191.55,65.48,191.11,65.48z"/>
	<path class="st2" d="M202.69,65.48c-1.74,0-3.18-0.26-4.32-0.79c-1.14-0.53-1.99-1.35-2.55-2.48s-0.84-2.59-0.84-4.38
		c0-1.67,0.26-3.07,0.78-4.19c0.52-1.13,1.26-1.98,2.24-2.55c0.97-0.57,2.15-0.86,3.53-0.86c1.33,0,2.45,0.29,3.36,0.86
		c0.92,0.57,1.61,1.43,2.08,2.58c0.47,1.15,0.7,2.57,0.7,4.28v0.96h-10.69v-2.14h7.98l-0.62,0.3c0-1.12-0.11-2.01-0.33-2.67
		c-0.22-0.66-0.54-1.13-0.96-1.41c-0.42-0.28-0.95-0.43-1.57-0.43c-0.62,0-1.15,0.14-1.6,0.42s-0.78,0.75-1.01,1.41
		c-0.23,0.66-0.34,1.55-0.34,2.67v1.38c0,1.06,0.15,1.91,0.45,2.55c0.3,0.64,0.79,1.09,1.47,1.37c0.68,0.28,1.58,0.41,2.72,0.41
		c0.57,0,1.16-0.04,1.79-0.14c0.62-0.09,1.26-0.22,1.92-0.38v2.72c-0.76,0.19-1.48,0.32-2.16,0.41S203.37,65.48,202.69,65.48z"/>
	<path class="st2" d="M210.31,65.21V50.45h2.92l0.28,1.93h0.18c0.45-0.72,1.03-1.25,1.75-1.6c0.71-0.34,1.48-0.51,2.31-0.51
		c0.22,0,0.43,0.01,0.63,0.03s0.39,0.04,0.55,0.07v3.23c-0.22-0.04-0.44-0.06-0.68-0.07c-0.24-0.01-0.48-0.02-0.71-0.02
		c-0.44,0-0.89,0.06-1.35,0.18c-0.46,0.12-0.89,0.3-1.3,0.55c-0.41,0.24-0.74,0.55-1.01,0.92v10.05H210.31z"/>
	<path class="st2" d="M222.8,47.93c-0.76,0-1.32-0.17-1.7-0.51s-0.56-0.82-0.56-1.42c0-0.61,0.19-1.09,0.56-1.43
		c0.37-0.34,0.94-0.51,1.7-0.51c0.77,0,1.33,0.17,1.7,0.51c0.37,0.34,0.55,0.81,0.55,1.43c0,0.6-0.18,1.08-0.55,1.42
		C224.14,47.76,223.57,47.93,222.8,47.93z M221.01,65.21V50.45h3.56v14.76H221.01z"/>
	<path class="st2" d="M234.27,65.48c-1.4,0-2.61-0.27-3.64-0.83s-1.82-1.39-2.39-2.51c-0.56-1.12-0.85-2.55-0.85-4.28
		c0-1.74,0.27-3.17,0.83-4.3c0.55-1.13,1.34-1.97,2.37-2.52c1.03-0.55,2.25-0.83,3.68-0.83c1.42,0,2.65,0.28,3.68,0.83
		c1.03,0.55,1.82,1.39,2.36,2.52c0.54,1.13,0.82,2.56,0.82,4.29c0,1.72-0.28,3.15-0.84,4.28c-0.56,1.13-1.35,1.97-2.38,2.52
		S235.67,65.48,234.27,65.48z M234.27,62.75c0.68,0,1.27-0.15,1.76-0.45c0.49-0.3,0.86-0.8,1.12-1.51c0.26-0.71,0.39-1.68,0.39-2.92
		c0-1.25-0.13-2.24-0.39-2.96c-0.26-0.72-0.64-1.22-1.13-1.52c-0.49-0.3-1.08-0.45-1.75-0.45c-0.69,0-1.27,0.15-1.77,0.45
		c-0.49,0.3-0.87,0.8-1.13,1.51s-0.39,1.68-0.39,2.92c0,1.25,0.13,2.24,0.39,2.96c0.26,0.72,0.64,1.22,1.13,1.52
		C233,62.6,233.59,62.75,234.27,62.75z"/>
	<path class="st2" d="M255.95,65.47c-1.08,0-2.08-0.25-2.98-0.74c-0.91-0.49-1.63-1.28-2.17-2.35c-0.54-1.08-0.81-2.49-0.81-4.24
		c0-1.73,0.3-3.19,0.89-4.36c0.6-1.18,1.47-2.07,2.64-2.67c1.16-0.6,2.6-0.9,4.3-0.9c0.34,0,0.68,0.01,1.02,0.04
		c0.34,0.03,0.65,0.06,0.93,0.11v-7.01h3.56v21.86h-2.99l-0.23-1.57h-0.18c-0.43,0.54-0.98,0.98-1.65,1.32
		C257.61,65.3,256.83,65.47,255.95,65.47z M256.95,62.53c0.51,0,1.02-0.1,1.53-0.31c0.5-0.21,0.93-0.53,1.29-0.97v-8.09
		c-0.26-0.05-0.57-0.1-0.92-0.14s-0.7-0.06-1.04-0.06c-1.4,0-2.45,0.38-3.17,1.14c-0.71,0.76-1.07,2.01-1.07,3.76
		c0,1.21,0.14,2.15,0.43,2.83c0.28,0.68,0.68,1.15,1.19,1.43C255.69,62.39,256.28,62.53,256.95,62.53z"/>
	<path class="st2" d="M273.85,65.48c-1.74,0-3.18-0.26-4.32-0.79c-1.14-0.53-1.99-1.35-2.55-2.48c-0.56-1.13-0.84-2.59-0.84-4.38
		c0-1.67,0.26-3.07,0.78-4.19c0.52-1.13,1.27-1.98,2.24-2.55c0.97-0.57,2.15-0.86,3.53-0.86c1.33,0,2.45,0.29,3.36,0.86
		c0.92,0.57,1.61,1.43,2.08,2.58c0.47,1.15,0.7,2.57,0.7,4.28v0.96h-10.69v-2.14h7.98l-0.62,0.3c0-1.12-0.11-2.01-0.33-2.67
		c-0.22-0.66-0.54-1.13-0.96-1.41c-0.42-0.28-0.95-0.43-1.57-0.43c-0.62,0-1.16,0.14-1.6,0.42c-0.44,0.28-0.78,0.75-1.01,1.41
		c-0.23,0.66-0.35,1.55-0.35,2.67v1.38c0,1.06,0.15,1.91,0.45,2.55c0.3,0.64,0.79,1.09,1.47,1.37c0.68,0.28,1.58,0.41,2.72,0.41
		c0.57,0,1.16-0.04,1.79-0.14c0.62-0.09,1.26-0.22,1.92-0.38v2.72c-0.76,0.19-1.48,0.32-2.16,0.41
		C275.2,65.44,274.52,65.48,273.85,65.48z"/>
	<path class="st2" d="M281.46,65.21V43.35h3.56v21.86H281.46z"/>
	<path class="st2" d="M295.49,65.21V45.19h3.61v20.02H295.49z"/>
	<path class="st2" d="M302.84,65.21V50.45h2.95l0.24,1.56h0.18c0.57-0.58,1.23-1.02,1.99-1.33c0.76-0.31,1.57-0.46,2.45-0.46
		c0.96,0,1.81,0.19,2.55,0.55c0.74,0.37,1.33,0.96,1.75,1.78c0.42,0.82,0.64,1.91,0.64,3.27v9.39h-3.56v-9.19
		c0-1.02-0.22-1.73-0.65-2.12s-1.03-0.6-1.79-0.6c-0.36,0-0.74,0.05-1.12,0.15c-0.39,0.1-0.76,0.26-1.12,0.47
		c-0.36,0.22-0.68,0.5-0.95,0.85v10.43H302.84z"/>
	<path class="st2" d="M317.41,53.28v-2.83h10.23v2.83H317.41z M325.22,65.48c-1.69,0-2.99-0.42-3.9-1.27
		c-0.92-0.85-1.37-2.2-1.37-4.05v-9.71l0.64-5.26h2.92v14.42c0,1.09,0.21,1.85,0.64,2.27s1.09,0.64,2,0.64
		c0.25,0,0.51-0.02,0.77-0.05c0.26-0.03,0.55-0.08,0.87-0.14v2.85c-0.38,0.08-0.79,0.15-1.24,0.21
		C326.09,65.45,325.65,65.48,325.22,65.48z"/>
	<path class="st2" d="M336.8,65.48c-1.74,0-3.18-0.26-4.32-0.79c-1.14-0.53-1.99-1.35-2.55-2.48c-0.56-1.13-0.84-2.59-0.84-4.38
		c0-1.67,0.26-3.07,0.78-4.19c0.52-1.13,1.27-1.98,2.24-2.55c0.97-0.57,2.15-0.86,3.53-0.86c1.33,0,2.45,0.29,3.36,0.86
		c0.92,0.57,1.61,1.43,2.08,2.58c0.47,1.15,0.7,2.57,0.7,4.28v0.96h-10.69v-2.14h7.98l-0.62,0.3c0-1.12-0.11-2.01-0.33-2.67
		c-0.22-0.66-0.54-1.13-0.96-1.41c-0.42-0.28-0.95-0.43-1.57-0.43c-0.62,0-1.16,0.14-1.6,0.42c-0.44,0.28-0.78,0.75-1.01,1.41
		c-0.23,0.66-0.35,1.55-0.35,2.67v1.38c0,1.06,0.15,1.91,0.45,2.55c0.3,0.64,0.79,1.09,1.47,1.37c0.68,0.28,1.58,0.41,2.72,0.41
		c0.57,0,1.16-0.04,1.79-0.14c0.62-0.09,1.26-0.22,1.92-0.38v2.72c-0.76,0.19-1.48,0.32-2.16,0.41
		C338.15,65.44,337.47,65.48,336.8,65.48z"/>
	<path class="st2" d="M344.42,65.21V50.45h2.92l0.28,1.93h0.18c0.45-0.72,1.03-1.25,1.75-1.6c0.71-0.34,1.48-0.51,2.31-0.51
		c0.22,0,0.43,0.01,0.63,0.03s0.39,0.04,0.55,0.07v3.23c-0.22-0.04-0.44-0.06-0.68-0.07c-0.24-0.01-0.48-0.02-0.71-0.02
		c-0.44,0-0.89,0.06-1.35,0.18c-0.46,0.12-0.89,0.3-1.3,0.55c-0.41,0.24-0.74,0.55-1.01,0.92v10.05H344.42z"/>
	<path class="st2" d="M356.9,47.93c-0.76,0-1.32-0.17-1.7-0.51s-0.56-0.82-0.56-1.42c0-0.61,0.19-1.09,0.56-1.43
		c0.37-0.34,0.94-0.51,1.7-0.51c0.77,0,1.33,0.17,1.7,0.51c0.37,0.34,0.55,0.81,0.55,1.43c0,0.6-0.18,1.08-0.55,1.42
		C358.24,47.76,357.67,47.93,356.9,47.93z M355.12,65.21V50.45h3.56v14.76H355.12z"/>
	<path class="st2" d="M368.38,65.48c-1.4,0-2.61-0.27-3.64-0.83s-1.82-1.39-2.39-2.51c-0.56-1.12-0.85-2.55-0.85-4.28
		c0-1.74,0.27-3.17,0.83-4.3c0.55-1.13,1.34-1.97,2.37-2.52c1.03-0.55,2.25-0.83,3.68-0.83c1.42,0,2.65,0.28,3.68,0.83
		c1.03,0.55,1.82,1.39,2.36,2.52c0.54,1.13,0.82,2.56,0.82,4.29c0,1.72-0.28,3.15-0.84,4.28c-0.56,1.13-1.35,1.97-2.38,2.52
		S369.77,65.48,368.38,65.48z M368.38,62.75c0.68,0,1.27-0.15,1.76-0.45c0.49-0.3,0.86-0.8,1.12-1.51c0.26-0.71,0.39-1.68,0.39-2.92
		c0-1.25-0.13-2.24-0.39-2.96c-0.26-0.72-0.64-1.22-1.13-1.52c-0.49-0.3-1.08-0.45-1.75-0.45c-0.69,0-1.27,0.15-1.77,0.45
		c-0.49,0.3-0.87,0.8-1.13,1.51s-0.39,1.68-0.39,2.92c0,1.25,0.13,2.24,0.39,2.96c0.26,0.72,0.64,1.22,1.13,1.52
		C367.1,62.6,367.69,62.75,368.38,62.75z"/>
	<path class="st2" d="M378.05,65.21V50.45h2.92l0.28,1.93h0.18c0.45-0.72,1.03-1.25,1.75-1.6c0.71-0.34,1.48-0.51,2.31-0.51
		c0.22,0,0.43,0.01,0.63,0.03s0.39,0.04,0.55,0.07v3.23c-0.22-0.04-0.44-0.06-0.68-0.07c-0.24-0.01-0.48-0.02-0.71-0.02
		c-0.44,0-0.89,0.06-1.35,0.18c-0.46,0.12-0.89,0.3-1.3,0.55c-0.41,0.24-0.74,0.55-1.01,0.92v10.05H378.05z"/>
</g>
</svg>
